<svg version="1.1" viewBox="0.0 0.0 600.0 371.0" fill="none" stroke="none" stroke-linecap="square" stroke-miterlimit="10" width="600" height="371" xmlns:xlink="http://www.w3.org/1999/xlink" xmlns="http://www.w3.org/2000/svg"><path fill="#ffffff" d="M0 0L600.0 0L600.0 371.0L0 371.0L0 0Z" fill-rule="nonzero"/><path stroke="#cccccc" stroke-width="1.0" stroke-linecap="butt" d="M123.5 62.5L123.5 298.5" fill-rule="nonzero"/><path stroke="#cccccc" stroke-width="1.0" stroke-linecap="butt" d="M206.5 62.5L206.5 298.5" fill-rule="nonzero"/><path stroke="#cccccc" stroke-width="1.0" stroke-linecap="butt" d="M289.5 62.5L289.5 298.5" fill-rule="nonzero"/><path stroke="#cccccc" stroke-width="1.0" stroke-linecap="butt" d="M373.5 62.5L373.5 298.5" fill-rule="nonzero"/><path stroke="#cccccc" stroke-width="1.0" stroke-linecap="butt" d="M456.5 62.5L456.5 298.5" fill-rule="nonzero"/><path stroke="#cccccc" stroke-width="1.0" stroke-linecap="butt" d="M539.5 62.5L539.5 298.5" fill-rule="nonzero"/><path stroke="#cccccc" stroke-width="1.0" stroke-linecap="butt" d="M81.5 298.5L581.5 298.5" fill-rule="nonzero"/><path stroke="#cccccc" stroke-width="1.0" stroke-linecap="butt" d="M81.5 251.5L581.5 251.5" fill-rule="nonzero"/><path stroke="#cccccc" stroke-width="1.0" stroke-linecap="butt" d="M81.5 204.5L581.5 204.5" fill-rule="nonzero"/><path stroke="#cccccc" stroke-width="1.0" stroke-linecap="butt" d="M81.5 156.5L581.5 156.5" fill-rule="nonzero"/><path stroke="#cccccc" stroke-width="1.0" stroke-linecap="butt" d="M81.5 109.5L581.5 109.5" fill-rule="nonzero"/><path stroke="#cccccc" stroke-width="1.0" stroke-linecap="butt" d="M81.5 62.5L581.5 62.5" fill-rule="nonzero"/><clipPath id="id_0"><path d="M81.55 62.416668L581.45 62.416668L581.45 298.45L81.55 298.45L81.55 62.416668Z" clip-rule="nonzero"/></clipPath><path stroke="#4285f4" stroke-width="2.0" stroke-linecap="butt" clip-path="url(#id_0)" d="M81.55 152.7837L123.208336 130.39427L164.86667 128.506L206.525 128.506L248.18333 137.94733L289.84167 177.89143L331.5 186.6065L373.15833 175.71266L414.81668 160.60654L456.475 166.27133L498.13333 175.71266L539.7917 103.958534L581.45 205.92493" fill-rule="nonzero"/><path fill="#000000" fill-opacity="0.0" clip-path="url(#id_0)" d="M84.55 152.7837C84.55 154.44057 83.206856 155.7837 81.55 155.7837C79.89314 155.7837 78.55 154.44057 78.55 152.7837C78.55 151.12686 79.89314 149.7837 81.55 149.7837C83.206856 149.7837 84.55 151.12686 84.55 152.7837Z" fill-rule="nonzero"/><path fill="#000000" fill-opacity="0.0" clip-path="url(#id_0)" d="M126.208336 130.39427C126.208336 132.05112 124.86519 133.39427 123.208336 133.39427C121.551476 133.39427 120.208336 132.05112 120.208336 130.39427C120.208336 128.73741 121.551476 127.394264 123.208336 127.394264C124.86519 127.394264 126.208336 128.73741 126.208336 130.39427Z" fill-rule="nonzero"/><path fill="#000000" fill-opacity="0.0" clip-path="url(#id_0)" d="M167.86667 128.506C167.86667 130.16286 166.52351 131.506 164.86667 131.506C163.20981 131.506 161.86667 130.16286 161.86667 128.506C161.86667 126.849144 163.20981 125.506 164.86667 125.506C166.52351 125.506 167.86667 126.849144 167.86667 128.506Z" fill-rule="nonzero"/><path fill="#000000" fill-opacity="0.0" clip-path="url(#id_0)" d="M209.525 128.506C209.525 130.16286 208.18185 131.506 206.525 131.506C204.86815 131.506 203.525 130.16286 203.525 128.506C203.525 126.849144 204.86815 125.506 206.525 125.506C208.18185 125.506 209.525 126.849144 209.525 128.506Z" fill-rule="nonzero"/><path fill="#000000" fill-opacity="0.0" clip-path="url(#id_0)" d="M251.18333 137.94733C251.18333 139.60419 249.8402 140.94733 248.18333 140.94733C246.52647 140.94733 245.18333 139.60419 245.18333 137.94733C245.18333 136.29048 246.52647 134.94733 248.18333 134.94733C249.8402 134.94733 251.18333 136.29048 251.18333 137.94733Z" fill-rule="nonzero"/><path fill="#000000" fill-opacity="0.0" clip-path="url(#id_0)" d="M292.84167 177.89143C292.84167 179.5483 291.49854 180.89143 289.84167 180.89143C288.1848 180.89143 286.84167 179.5483 286.84167 177.89143C286.84167 176.23459 288.1848 174.89143 289.84167 174.89143C291.49854 174.89143 292.84167 176.23459 292.84167 177.89143Z" fill-rule="nonzero"/><path fill="#000000" fill-opacity="0.0" clip-path="url(#id_0)" d="M334.5 186.6065C334.5 188.26337 333.15686 189.6065 331.5 189.6065C329.84314 189.6065 328.5 188.26337 328.5 186.6065C328.5 184.94966 329.84314 183.6065 331.5 183.6065C333.15686 183.6065 334.5 184.94966 334.5 186.6065Z" fill-rule="nonzero"/><path fill="#000000" fill-opacity="0.0" clip-path="url(#id_0)" d="M376.15833 175.71266C376.15833 177.36952 374.8152 178.71266 373.15833 178.71266C371.50146 178.71266 370.15833 177.36952 370.15833 175.71266C370.15833 174.05582 371.50146 172.71266 373.15833 172.71266C374.8152 172.71266 376.15833 174.05582 376.15833 175.71266Z" fill-rule="nonzero"/><path fill="#000000" fill-opacity="0.0" clip-path="url(#id_0)" d="M417.81668 160.60654C417.81668 162.26338 416.4735 163.60654 414.81668 163.60654C413.15982 163.60654 411.81668 162.26338 411.81668 160.60654C411.81668 158.94968 413.15982 157.60654 414.81668 157.60654C416.4735 157.60654 417.81668 158.94968 417.81668 160.60654Z" fill-rule="nonzero"/><path fill="#000000" fill-opacity="0.0" clip-path="url(#id_0)" d="M459.475 166.27133C459.475 167.92819 458.13187 169.27133 456.475 169.27133C454.81815 169.27133 453.475 167.92819 453.475 166.27133C453.475 164.61449 454.81815 163.27133 456.475 163.27133C458.13187 163.27133 459.475 164.61449 459.475 166.27133Z" fill-rule="nonzero"/><path fill="#000000" fill-opacity="0.0" clip-path="url(#id_0)" d="M501.13333 175.71266C501.13333 177.36952 499.7902 178.71266 498.13333 178.71266C496.47647 178.71266 495.13333 177.36952 495.13333 175.71266C495.13333 174.05582 496.47647 172.71266 498.13333 172.71266C499.7902 172.71266 501.13333 174.05582 501.13333 175.71266Z" fill-rule="nonzero"/><path fill="#000000" fill-opacity="0.0" clip-path="url(#id_0)" d="M542.7917 103.958534C542.7917 105.61539 541.44855 106.958534 539.7917 106.958534C538.1348 106.958534 536.7917 105.61539 536.7917 103.958534C536.7917 102.30168 538.1348 100.958534 539.7917 100.958534C541.44855 100.958534 542.7917 102.30168 542.7917 103.958534Z" fill-rule="nonzero"/><path fill="#000000" fill-opacity="0.0" clip-path="url(#id_0)" d="M584.45 205.92493C584.45 207.58179 583.1069 208.92493 581.45 208.92493C579.79315 208.92493 578.45 207.58179 578.45 205.92493C578.45 204.26808 579.79315 202.92493 581.45 202.92493C583.1069 202.92493 584.45 204.26808 584.45 205.92493Z" fill-rule="nonzero"/><path fill="#424242" d="M315.0 345.65314Q313.5625 345.23126 312.89062 344.6219Q312.23438 344.0125 312.23438 343.1219Q312.23438 342.1219 313.03125 341.46564Q313.84375 340.79376 315.14062 340.79376Q316.01562 340.79376 316.70312 341.1375Q317.39062 341.48126 317.76562 342.075Q318.15625 342.66876 318.15625 343.3875L317.01562 343.3875Q317.01562 342.60626 316.51562 342.16876Q316.03125 341.73126 315.14062 341.73126Q314.3125 341.73126 313.84375 342.10626Q313.375 342.46564 313.375 343.10626Q313.375 343.6375 313.8125 343.9969Q314.26562 344.35626 315.32812 344.65314Q316.39062 344.95 316.98438 345.3094Q317.59375 345.66876 317.875 346.15314Q318.17188 346.6375 318.17188 347.27814Q318.17188 348.325 317.35938 348.95Q316.54688 349.575 315.20312 349.575Q314.3125 349.575 313.54688 349.23126Q312.79688 348.8875 312.375 348.3094Q311.96875 347.71564 311.96875 346.98126L313.09375 346.98126Q313.09375 347.7469 313.67188 348.2Q314.25 348.65314 315.20312 348.65314Q316.09375 348.65314 316.5625 348.29376Q317.03125 347.91876 317.03125 347.29376Q317.03125 346.66876 316.59375 346.325Q316.15625 345.98126 315.0 345.65314ZM321.95312 349.575Q320.65625 349.575 319.84375 348.73126Q319.04688 347.8719 319.04688 346.45L319.04688 346.2625Q319.04688 345.3094 319.40625 344.575Q319.76562 343.825 320.40625 343.41876Q321.0625 342.9969 321.8125 342.9969Q323.04688 342.9969 323.73438 343.8094Q324.42188 344.6219 324.42188 346.1375L324.42188 346.59064L320.125 346.59064Q320.15625 347.52814 320.67188 348.10626Q321.20312 348.6844 322.01562 348.6844Q322.57812 348.6844 322.96875 348.45Q323.375 348.21564 323.6875 347.825L324.34375 348.34064Q323.54688 349.575 321.95312 349.575ZM321.8125 343.8875Q321.15625 343.8875 320.70312 344.3719Q320.26562 344.84064 320.17188 345.7L323.34375 345.7L323.34375 345.6219Q323.29688 344.79376 322.89062 344.34064Q322.5 343.8875 321.8125 343.8875ZM329.23438 349.45Q329.14062 349.2625 329.07812 348.77814Q328.32812 349.575 327.28125 349.575Q326.34375 349.575 325.73438 349.04376Q325.14062 348.5125 325.14062 347.6844Q325.14062 346.7 325.89062 346.15314Q326.64062 345.60626 328.01562 345.60626L329.0625 345.60626L329.0625 345.10626Q329.0625 344.54376 328.71875 344.21564Q328.39062 343.8719 327.71875 343.8719Q327.14062 343.8719 326.75 344.16876Q326.35938 344.45 326.35938 344.8719L325.26562 344.8719Q325.26562 344.3875 325.59375 343.95Q325.9375 343.5125 326.51562 343.2625Q327.09375 342.9969 327.78125 342.9969Q328.89062 342.9969 329.5 343.54376Q330.125 344.09064 330.15625 345.04376L330.15625 347.96564Q330.15625 348.84064 330.375 349.35626L330.375 349.45L329.23438 349.45ZM327.4375 348.6219Q327.95312 348.6219 328.40625 348.35626Q328.85938 348.09064 329.0625 347.66876L329.0625 346.3719L328.21875 346.3719Q326.21875 346.3719 326.21875 347.54376Q326.21875 348.04376 326.5625 348.34064Q326.90625 348.6219 327.4375 348.6219ZM336.01562 347.7625Q336.01562 347.325 335.67188 347.09064Q335.34375 346.84064 334.51562 346.66876Q333.70312 346.4969 333.21875 346.2469Q332.73438 345.9969 332.5 345.66876Q332.28125 345.325 332.28125 344.85626Q332.28125 344.075 332.9375 343.54376Q333.59375 342.9969 334.625 342.9969Q335.70312 342.9969 336.35938 343.5594Q337.03125 344.10626 337.03125 344.96564L335.95312 344.96564Q335.95312 344.52814 335.5625 344.21564Q335.1875 343.8875 334.625 343.8875Q334.03125 343.8875 333.6875 344.15314Q333.35938 344.40314 333.35938 344.8094Q333.35938 345.2 333.67188 345.40314Q333.98438 345.60626 334.79688 345.79376Q335.60938 345.96564 336.10938 346.21564Q336.60938 346.46564 336.84375 346.825Q337.09375 347.1844 337.09375 347.6844Q337.09375 348.54376 336.40625 349.0594Q335.73438 349.575 334.65625 349.575Q333.89062 349.575 333.29688 349.3094Q332.71875 349.02814 332.39062 348.54376Q332.0625 348.0594 332.0625 347.4969L333.14062 347.4969Q333.17188 348.04376 333.57812 348.3719Q333.98438 348.6844 334.65625 348.6844Q335.26562 348.6844 335.64062 348.4344Q336.01562 348.1844 336.01562 347.7625ZM338.03125 346.21564Q338.03125 345.29376 338.39062 344.54376Q338.76562 343.79376 339.42188 343.40314Q340.07812 342.9969 340.90625 342.9969Q342.20312 342.9969 343.0 343.8875Q343.8125 344.77814 343.8125 346.27814L343.8125 346.35626Q343.8125 347.27814 343.45312 348.0125Q343.09375 348.7469 342.4375 349.16876Q341.78125 349.575 340.92188 349.575Q339.64062 349.575 338.82812 348.6844Q338.03125 347.77814 338.03125 346.29376L338.03125 346.21564ZM339.125 346.35626Q339.125 347.40314 339.60938 348.04376Q340.10938 348.6844 340.92188 348.6844Q341.75 348.6844 342.23438 348.04376Q342.71875 347.3875 342.71875 346.21564Q342.71875 345.1844 342.21875 344.54376Q341.73438 343.8875 340.90625 343.8875Q340.10938 343.8875 339.60938 344.52814Q339.125 345.15314 339.125 346.35626ZM346.34375 343.10626L346.375 343.90314Q347.10938 342.9969 348.28125 342.9969Q350.29688 342.9969 350.3125 345.2625L350.3125 349.45L349.21875 349.45L349.21875 345.2469Q349.21875 344.575 348.90625 344.2469Q348.60938 343.91876 347.95312 343.91876Q347.42188 343.91876 347.01562 344.2Q346.625 344.48126 346.40625 344.9344L346.40625 349.45L345.32812 349.45L345.32812 343.10626L346.34375 343.10626Z" fill-rule="nonzero"/><path fill="#424242" d="M27.096888 200.55833L27.096888 202.57396L30.550013 202.57396L30.550013 203.69896L22.018763 203.69896L22.018763 200.87083Q22.018763 199.43333 22.675013 198.66771Q23.331263 197.88646 24.581263 197.88646Q25.378138 197.88646 25.971888 198.32396Q26.565638 198.74583 26.862513 199.51146L30.471888 197.51146L30.550013 197.51146L30.550013 198.71458L27.096888 200.55833ZM26.175013 202.57396L26.175013 200.83958Q26.175013 199.99583 25.753138 199.51146Q25.315638 199.01146 24.581263 199.01146Q23.800013 199.01146 23.378138 199.48021Q22.956263 199.94896 22.940638 200.83958L22.940638 202.57396L26.175013 202.57396ZM30.550013 192.94896Q30.362513 193.04271 29.878138 193.10521Q30.675013 193.85521 30.675013 194.90208Q30.675013 195.83958 30.143763 196.44896Q29.612513 197.04271 28.784388 197.04271Q27.800013 197.04271 27.253138 196.29271Q26.706263 195.54271 26.706263 194.16771L26.706263 193.12083L26.206263 193.12083Q25.643763 193.12083 25.315638 193.46458Q24.971888 193.79271 24.971888 194.46458Q24.971888 195.04271 25.268763 195.43333Q25.550013 195.82396 25.971888 195.82396L25.971888 196.91771Q25.487513 196.91771 25.050013 196.58958Q24.612513 196.24583 24.362513 195.66771Q24.096888 195.08958 24.096888 194.40208Q24.096888 193.29271 24.643763 192.68333Q25.190638 192.05833 26.143763 192.02708L29.065638 192.02708Q29.940638 192.02708 30.456263 191.80833L30.550013 191.80833L30.550013 192.94896ZM29.721888 194.74583Q29.721888 194.23021 29.456263 193.77708Q29.190638 193.32396 28.768763 193.12083L27.471888 193.12083L27.471888 193.96458Q27.471888 195.96458 28.643763 195.96458Q29.143763 195.96458 29.440638 195.62083Q29.721888 195.27708 29.721888 194.74583ZM22.675013 188.38646L24.206263 188.38646L24.206263 187.21458L25.050013 187.21458L25.050013 188.38646L28.971888 188.38646Q29.362513 188.38646 29.550013 188.23021Q29.737513 188.07396 29.737513 187.69896Q29.737513 187.51146 29.675013 187.18333L30.550013 187.18333Q30.675013 187.60521 30.675013 188.01146Q30.675013 188.73021 30.237513 189.10521Q29.784388 189.48021 28.971888 189.48021L25.050013 189.48021L25.050013 190.63646L24.206263 190.63646L24.206263 189.48021L22.675013 189.48021L22.675013 188.38646ZM30.550013 184.68333L30.550013 185.76146L24.206263 185.76146L24.206263 184.68333L30.550013 184.68333ZM22.534388 185.85521Q22.268763 185.85521 22.081263 185.69896Q21.893763 185.52708 21.893763 185.21458Q21.893763 184.90208 22.081263 184.74583Q22.268763 184.57396 22.534388 184.57396Q22.784388 184.57396 22.971888 184.74583Q23.143763 184.90208 23.143763 185.21458Q23.143763 185.52708 22.971888 185.69896Q22.784388 185.85521 22.534388 185.85521ZM24.206263 181.83958L25.003138 181.80833Q24.096888 181.07396 24.096888 179.90208Q24.096888 177.88646 26.362513 177.87083L30.550013 177.87083L30.550013 178.96458L26.346888 178.96458Q25.675013 178.96458 25.346888 179.27708Q25.018763 179.57396 25.018763 180.23021Q25.018763 180.76146 25.300013 181.16771Q25.581263 181.55833 26.034388 181.77708L30.550013 181.77708L30.550013 182.85521L24.206263 182.85521L24.206263 181.83958ZM27.331263 176.12083Q25.846888 176.12083 24.971888 175.43333Q24.096888 174.74583 24.096888 173.62083Q24.096888 172.46458 24.909388 171.80833L24.206263 171.76146L24.206263 170.76146L30.393763 170.76146Q31.628138 170.76146 32.33126 171.49583Q33.05001 172.23021 33.05001 173.44896Q33.05001 174.13646 32.753136 174.79271Q32.45626 175.44896 31.956263 175.79271L31.300013 175.23021Q32.159386 174.54271 32.159386 173.52708Q32.159386 172.74583 31.706263 172.30833Q31.268763 171.85521 30.456263 171.85521L29.909388 171.85521Q30.675013 172.51146 30.675013 173.63646Q30.675013 174.74583 29.784388 175.43333Q28.878138 176.12083 27.331263 176.12083ZM27.456263 175.02708Q28.518763 175.02708 29.143763 174.58958Q29.753138 174.15208 29.753138 173.35521Q29.753138 172.33958 28.815638 171.85521L25.925013 171.85521Q25.018763 172.35521 25.018763 173.35521Q25.018763 174.13646 25.628138 174.58958Q26.237513 175.02708 27.456263 175.02708Z" fill-rule="nonzero"/><path fill="#757575" d="M57.76875 295.02814L54.2375 302.95L53.096874 302.95L56.6125 295.3094L52.003124 295.3094L52.003124 294.41876L57.76875 294.41876L57.76875 295.02814ZM59.39375 302.3875Q59.39375 302.10626 59.55 301.91876Q59.721874 301.73126 60.05 301.73126Q60.39375 301.73126 60.565624 301.91876Q60.7375 302.10626 60.7375 302.3875Q60.7375 302.65314 60.565624 302.84064Q60.39375 303.0125 60.05 303.0125Q59.721874 303.0125 59.55 302.84064Q59.39375 302.65314 59.39375 302.3875ZM62.753124 298.66876L63.190624 294.41876L67.56563 294.41876L67.56563 295.41876L64.1125 295.41876L63.846874 297.7469Q64.4875 297.3719 65.28438 297.3719Q66.44063 297.3719 67.12813 298.15314Q67.81563 298.91876 67.81563 300.23126Q67.81563 301.54376 67.09688 302.3094Q66.39375 303.075 65.1125 303.075Q63.9875 303.075 63.26875 302.45Q62.55 301.8094 62.45625 300.7L63.471874 300.7Q63.58125 301.4344 64.00313 301.8094Q64.425 302.1844 65.1125 302.1844Q65.8625 302.1844 66.3 301.66876Q66.7375 301.15314 66.7375 300.2469Q66.7375 299.3875 66.26875 298.8719Q65.8 298.35626 65.01875 298.35626Q64.31563 298.35626 63.909374 298.65314L63.628124 298.8875L62.753124 298.66876ZM74.6125 299.3094Q74.6125 301.21564 73.95625 302.15314Q73.31563 303.075 71.925 303.075Q70.56563 303.075 69.90938 302.16876Q69.25313 301.2625 69.22188 299.45L69.22188 298.0125Q69.22188 296.1219 69.8625 295.21564Q70.51875 294.29376 71.90938 294.29376Q73.28438 294.29376 73.94063 295.1844Q74.59688 296.0594 74.6125 297.90314L74.6125 299.3094ZM73.51875 297.825Q73.51875 296.45 73.12813 295.825Q72.75313 295.1844 71.90938 295.1844Q71.08125 295.1844 70.69063 295.825Q70.31563 296.45 70.31563 297.7469L70.31563 299.48126Q70.31563 300.85626 70.70625 301.52814Q71.1125 302.1844 71.925 302.1844Q72.72188 302.1844 73.1125 301.5594Q73.50313 300.9344 73.51875 299.60626L73.51875 297.825Z" fill-rule="nonzero"/><path fill="#757575" d="M57.76875 247.82146L54.2375 255.74333L53.096874 255.74333L56.6125 248.1027L52.003124 248.1027L52.003124 247.21208L57.76875 247.21208L57.76875 247.82146ZM59.39375 255.18083Q59.39375 254.89958 59.55 254.71208Q59.721874 254.52458 60.05 254.52458Q60.39375 254.52458 60.565624 254.71208Q60.7375 254.89958 60.7375 255.18083Q60.7375 255.44646 60.565624 255.63396Q60.39375 255.80583 60.05 255.80583Q59.721874 255.80583 59.55 255.63396Q59.39375 255.44646 59.39375 255.18083ZM67.76875 247.82146L64.2375 255.74333L63.096874 255.74333L66.6125 248.1027L62.003124 248.1027L62.003124 247.21208L67.76875 247.21208L67.76875 247.82146ZM69.75313 251.46208L70.19063 247.21208L74.56563 247.21208L74.56563 248.21208L71.1125 248.21208L70.84688 250.5402Q71.4875 250.1652 72.28438 250.1652Q73.44063 250.1652 74.12813 250.94646Q74.81563 251.71208 74.81563 253.02458Q74.81563 254.33708 74.09688 255.1027Q73.39375 255.86833 72.1125 255.86833Q70.9875 255.86833 70.26875 255.24333Q69.55 254.6027 69.45625 253.49333L70.47188 253.49333Q70.58125 254.2277 71.00313 254.6027Q71.425 254.9777 72.1125 254.9777Q72.8625 254.9777 73.3 254.46208Q73.7375 253.94646 73.7375 253.0402Q73.7375 252.18083 73.26875 251.6652Q72.8 251.14958 72.01875 251.14958Q71.31563 251.14958 70.90938 251.44646L70.62813 251.68083L69.75313 251.46208Z" fill-rule="nonzero"/><path fill="#757575" d="M57.440624 202.22417Q57.440624 202.86479 57.096874 203.36479Q56.753124 203.86479 56.190624 204.14604Q56.846874 204.42729 57.2375 204.98979Q57.628124 205.53667 57.628124 206.23979Q57.628124 207.33354 56.878124 208.00542Q56.14375 208.66167 54.925 208.66167Q53.690624 208.66167 52.940624 208.00542Q52.20625 207.33354 52.20625 206.23979Q52.20625 205.53667 52.58125 204.98979Q52.95625 204.42729 53.628124 204.14604Q53.065624 203.86479 52.7375 203.36479Q52.409374 202.86479 52.409374 202.22417Q52.409374 201.14604 53.096874 200.52104Q53.784374 199.88042 54.925 199.88042Q56.05 199.88042 56.7375 200.52104Q57.440624 201.14604 57.440624 202.22417ZM56.55 206.20854Q56.55 205.48979 56.096874 205.05229Q55.64375 204.59917 54.909374 204.59917Q54.175 204.59917 53.721874 205.05229Q53.284374 205.48979 53.284374 206.22417Q53.284374 206.94292 53.721874 207.36479Q54.159374 207.77104 54.925 207.77104Q55.675 207.77104 56.1125 207.34917Q56.55 206.92729 56.55 206.20854ZM54.925 200.77104Q54.284374 200.77104 53.878124 201.17729Q53.4875 201.56792 53.4875 202.25542Q53.4875 202.89604 53.878124 203.30229Q54.26875 203.70854 54.909374 203.70854Q55.565624 203.70854 55.95625 203.30229Q56.346874 202.89604 56.346874 202.25542Q56.346874 201.59917 55.940624 201.19292Q55.534374 200.77104 54.925 200.77104ZM59.39375 207.97417Q59.39375 207.69292 59.55 207.50542Q59.721874 207.31792 60.05 207.31792Q60.39375 207.31792 60.565624 207.50542Q60.7375 207.69292 60.7375 207.97417Q60.7375 208.23979 60.565624 208.42729Q60.39375 208.59917 60.05 208.59917Q59.721874 208.59917 59.55 208.42729Q59.39375 208.23979 59.39375 207.97417ZM67.6125 204.89604Q67.6125 206.80229 66.95625 207.73979Q66.31563 208.66167 64.925 208.66167Q63.565624 208.66167 62.909374 207.75542Q62.253124 206.84917 62.221874 205.03667L62.221874 203.59917Q62.221874 201.70854 62.8625 200.80229Q63.51875 199.88042 64.90938 199.88042Q66.28438 199.88042 66.94063 200.77104Q67.59688 201.64604 67.6125 203.48979L67.6125 204.89604ZM66.51875 203.41167Q66.51875 202.03667 66.12813 201.41167Q65.75313 200.77104 64.90938 200.77104Q64.08125 200.77104 63.690624 201.41167Q63.315624 202.03667 63.315624 203.33354L63.315624 205.06792Q63.315624 206.44292 63.70625 207.11479Q64.1125 207.77104 64.925 207.77104Q65.72188 207.77104 66.1125 207.14604Q66.50313 206.52104 66.51875 205.19292L66.51875 203.41167ZM74.6125 204.89604Q74.6125 206.80229 73.95625 207.73979Q73.31563 208.66167 71.925 208.66167Q70.56563 208.66167 69.90938 207.75542Q69.25313 206.84917 69.22188 205.03667L69.22188 203.59917Q69.22188 201.70854 69.8625 200.80229Q70.51875 199.88042 71.90938 199.88042Q73.28438 199.88042 73.94063 200.77104Q74.59688 201.64604 74.6125 203.48979L74.6125 204.89604ZM73.51875 203.41167Q73.51875 202.03667 73.12813 201.41167Q72.75313 200.77104 71.90938 200.77104Q71.08125 200.77104 70.69063 201.41167Q70.31563 202.03667 70.31563 203.33354L70.31563 205.06792Q70.31563 206.44292 70.70625 207.11479Q71.1125 207.77104 71.925 207.77104Q72.72188 207.77104 73.1125 207.14604Q73.50313 206.52104 73.51875 205.19292L73.51875 203.41167Z" fill-rule="nonzero"/><path fill="#757575" d="M57.440624 155.0175Q57.440624 155.65813 57.096874 156.15813Q56.753124 156.65813 56.190624 156.93938Q56.846874 157.22063 57.2375 157.78313Q57.628124 158.33 57.628124 159.03313Q57.628124 160.12688 56.878124 160.79875Q56.14375 161.455 54.925 161.455Q53.690624 161.455 52.940624 160.79875Q52.20625 160.12688 52.20625 159.03313Q52.20625 158.33 52.58125 157.78313Q52.95625 157.22063 53.628124 156.93938Q53.065624 156.65813 52.7375 156.15813Q52.409374 155.65813 52.409374 155.0175Q52.409374 153.93938 53.096874 153.31438Q53.784374 152.67375 54.925 152.67375Q56.05 152.67375 56.7375 153.31438Q57.440624 153.93938 57.440624 155.0175ZM56.55 159.00188Q56.55 158.28313 56.096874 157.84563Q55.64375 157.3925 54.909374 157.3925Q54.175 157.3925 53.721874 157.84563Q53.284374 158.28313 53.284374 159.0175Q53.284374 159.73625 53.721874 160.15813Q54.159374 160.56438 54.925 160.56438Q55.675 160.56438 56.1125 160.1425Q56.55 159.72063 56.55 159.00188ZM54.925 153.56438Q54.284374 153.56438 53.878124 153.97063Q53.4875 154.36125 53.4875 155.04875Q53.4875 155.68938 53.878124 156.09563Q54.26875 156.50188 54.909374 156.50188Q55.565624 156.50188 55.95625 156.09563Q56.346874 155.68938 56.346874 155.04875Q56.346874 154.3925 55.940624 153.98625Q55.534374 153.56438 54.925 153.56438ZM59.39375 160.7675Q59.39375 160.48625 59.55 160.29875Q59.721874 160.11125 60.05 160.11125Q60.39375 160.11125 60.565624 160.29875Q60.7375 160.48625 60.7375 160.7675Q60.7375 161.03313 60.565624 161.22063Q60.39375 161.3925 60.05 161.3925Q59.721874 161.3925 59.55 161.22063Q59.39375 161.03313 59.39375 160.7675ZM67.84688 161.33L62.253124 161.33L62.253124 160.54875L65.20625 157.2675Q65.8625 156.5175 66.1125 156.06438Q66.3625 155.59563 66.3625 155.09563Q66.3625 154.42375 65.95625 154.00188Q65.56563 153.56438 64.87813 153.56438Q64.08125 153.56438 63.628124 154.03313Q63.175 154.48625 63.175 155.31438L62.096874 155.31438Q62.096874 154.12688 62.846874 153.40813Q63.6125 152.67375 64.87813 152.67375Q66.08125 152.67375 66.76875 153.29875Q67.45625 153.92375 67.45625 154.97063Q67.45625 156.22063 65.84688 157.97063L63.565624 160.43938L67.84688 160.43938L67.84688 161.33ZM69.75313 157.04875L70.19063 152.79875L74.56563 152.79875L74.56563 153.79875L71.1125 153.79875L70.84688 156.12688Q71.4875 155.75188 72.28438 155.75188Q73.44063 155.75188 74.12813 156.53313Q74.81563 157.29875 74.81563 158.61125Q74.81563 159.92375 74.09688 160.68938Q73.39375 161.455 72.1125 161.455Q70.9875 161.455 70.26875 160.83Q69.55 160.18938 69.45625 159.08L70.47188 159.08Q70.58125 159.81438 71.00313 160.18938Q71.425 160.56438 72.1125 160.56438Q72.8625 160.56438 73.3 160.04875Q73.7375 159.53313 73.7375 158.62688Q73.7375 157.7675 73.26875 157.25188Q72.8 156.73625 72.01875 156.73625Q71.31563 156.73625 70.90938 157.03313L70.62813 157.2675L69.75313 157.04875Z" fill-rule="nonzero"/><path fill="#757575" d="M57.440624 107.81084Q57.440624 108.45146 57.096874 108.95146Q56.753124 109.45146 56.190624 109.73271Q56.846874 110.01396 57.2375 110.57646Q57.628124 111.12334 57.628124 111.82646Q57.628124 112.92021 56.878124 113.59209Q56.14375 114.24834 54.925 114.24834Q53.690624 114.24834 52.940624 113.59209Q52.20625 112.92021 52.20625 111.82646Q52.20625 111.12334 52.58125 110.57646Q52.95625 110.01396 53.628124 109.73271Q53.065624 109.45146 52.7375 108.95146Q52.409374 108.45146 52.409374 107.81084Q52.409374 106.73271 53.096874 106.10771Q53.784374 105.46709 54.925 105.46709Q56.05 105.46709 56.7375 106.10771Q57.440624 106.73271 57.440624 107.81084ZM56.55 111.79521Q56.55 111.07646 56.096874 110.63896Q55.64375 110.18584 54.909374 110.18584Q54.175 110.18584 53.721874 110.63896Q53.284374 111.07646 53.284374 111.81084Q53.284374 112.52959 53.721874 112.95146Q54.159374 113.35771 54.925 113.35771Q55.675 113.35771 56.1125 112.93584Q56.55 112.51396 56.55 111.79521ZM54.925 106.35771Q54.284374 106.35771 53.878124 106.76396Q53.4875 107.15459 53.4875 107.84209Q53.4875 108.48271 53.878124 108.88896Q54.26875 109.29521 54.909374 109.29521Q55.565624 109.29521 55.95625 108.88896Q56.346874 108.48271 56.346874 107.84209Q56.346874 107.18584 55.940624 106.77959Q55.534374 106.35771 54.925 106.35771ZM59.39375 113.56084Q59.39375 113.27959 59.55 113.09209Q59.721874 112.90459 60.05 112.90459Q60.39375 112.90459 60.565624 113.09209Q60.7375 113.27959 60.7375 113.56084Q60.7375 113.82646 60.565624 114.01396Q60.39375 114.18584 60.05 114.18584Q59.721874 114.18584 59.55 114.01396Q59.39375 113.82646 59.39375 113.56084ZM62.753124 109.84209L63.190624 105.59209L67.56563 105.59209L67.56563 106.59209L64.1125 106.59209L63.846874 108.92021Q64.4875 108.54521 65.28438 108.54521Q66.44063 108.54521 67.12813 109.32646Q67.81563 110.09209 67.81563 111.40459Q67.81563 112.71709 67.09688 113.48271Q66.39375 114.24834 65.1125 114.24834Q63.9875 114.24834 63.26875 113.62334Q62.55 112.98271 62.45625 111.87334L63.471874 111.87334Q63.58125 112.60771 64.00313 112.98271Q64.425 113.35771 65.1125 113.35771Q65.8625 113.35771 66.3 112.84209Q66.7375 112.32646 66.7375 111.42021Q66.7375 110.56084 66.26875 110.04521Q65.8 109.52959 65.01875 109.52959Q64.31563 109.52959 63.909374 109.82646L63.628124 110.06084L62.753124 109.84209ZM74.6125 110.48271Q74.6125 112.38896 73.95625 113.32646Q73.31563 114.24834 71.925 114.24834Q70.56563 114.24834 69.90938 113.34209Q69.25313 112.43584 69.22188 110.62334L69.22188 109.18584Q69.22188 107.29521 69.8625 106.38896Q70.51875 105.46709 71.90938 105.46709Q73.28438 105.46709 73.94063 106.35771Q74.59688 107.23271 74.6125 109.07646L74.6125 110.48271ZM73.51875 108.99834Q73.51875 107.62334 73.12813 106.99834Q72.75313 106.35771 71.90938 106.35771Q71.08125 106.35771 70.69063 106.99834Q70.31563 107.62334 70.31563 108.92021L70.31563 110.65459Q70.31563 112.02959 70.70625 112.70146Q71.1125 113.35771 71.925 113.35771Q72.72188 113.35771 73.1125 112.73271Q73.50313 112.10771 73.51875 110.77959L73.51875 108.99834Z" fill-rule="nonzero"/><path fill="#757575" d="M57.440624 60.604164Q57.440624 61.24479 57.096874 61.74479Q56.753124 62.24479 56.190624 62.52604Q56.846874 62.80729 57.2375 63.36979Q57.628124 63.916664 57.628124 64.61979Q57.628124 65.71354 56.878124 66.385414Q56.14375 67.041664 54.925 67.041664Q53.690624 67.041664 52.940624 66.385414Q52.20625 65.71354 52.20625 64.61979Q52.20625 63.916664 52.58125 63.36979Q52.95625 62.80729 53.628124 62.52604Q53.065624 62.24479 52.7375 61.74479Q52.409374 61.24479 52.409374 60.604164Q52.409374 59.52604 53.096874 58.90104Q53.784374 58.260414 54.925 58.260414Q56.05 58.260414 56.7375 58.90104Q57.440624 59.52604 57.440624 60.604164ZM56.55 64.58854Q56.55 63.86979 56.096874 63.43229Q55.64375 62.979164 54.909374 62.979164Q54.175 62.979164 53.721874 63.43229Q53.284374 63.86979 53.284374 64.604164Q53.284374 65.322914 53.721874 65.74479Q54.159374 66.15104 54.925 66.15104Q55.675 66.15104 56.1125 65.729164Q56.55 65.30729 56.55 64.58854ZM54.925 59.15104Q54.284374 59.15104 53.878124 59.55729Q53.4875 59.947914 53.4875 60.635414Q53.4875 61.27604 53.878124 61.68229Q54.26875 62.08854 54.909374 62.08854Q55.565624 62.08854 55.95625 61.68229Q56.346874 61.27604 56.346874 60.635414Q56.346874 59.979164 55.940624 59.572914Q55.534374 59.15104 54.925 59.15104ZM59.39375 66.354164Q59.39375 66.072914 59.55 65.885414Q59.721874 65.697914 60.05 65.697914Q60.39375 65.697914 60.565624 65.885414Q60.7375 66.072914 60.7375 66.354164Q60.7375 66.61979 60.565624 66.80729Q60.39375 66.979164 60.05 66.979164Q59.721874 66.979164 59.55 66.80729Q59.39375 66.61979 59.39375 66.354164ZM67.76875 58.99479L64.2375 66.916664L63.096874 66.916664L66.6125 59.27604L62.003124 59.27604L62.003124 58.385414L67.76875 58.385414L67.76875 58.99479ZM69.75313 62.635414L70.19063 58.385414L74.56563 58.385414L74.56563 59.385414L71.1125 59.385414L70.84688 61.71354Q71.4875 61.33854 72.28438 61.33854Q73.44063 61.33854 74.12813 62.11979Q74.81563 62.885414 74.81563 64.197914Q74.81563 65.510414 74.09688 66.27604Q73.39375 67.041664 72.1125 67.041664Q70.9875 67.041664 70.26875 66.416664Q69.55 65.77604 69.45625 64.666664L70.47188 64.666664Q70.58125 65.40104 71.00313 65.77604Q71.425 66.15104 72.1125 66.15104Q72.8625 66.15104 73.3 65.635414Q73.7375 65.11979 73.7375 64.21354Q73.7375 63.354164 73.26875 62.83854Q72.8 62.322914 72.01875 62.322914Q71.31563 62.322914 70.90938 62.61979L70.62813 62.854164L69.75313 62.635414Z" fill-rule="nonzero"/><path fill="#757575" d="M126.00521 316.45L120.41146 316.45L120.41146 315.66876L123.364586 312.3875Q124.020836 311.6375 124.270836 311.1844Q124.520836 310.71564 124.520836 310.21564Q124.520836 309.54376 124.114586 309.1219Q123.72396 308.6844 123.03646 308.6844Q122.239586 308.6844 121.78646 309.15314Q121.333336 309.60626 121.333336 310.4344L120.25521 310.4344Q120.25521 309.2469 121.00521 308.52814Q121.770836 307.79376 123.03646 307.79376Q124.239586 307.79376 124.927086 308.41876Q125.614586 309.04376 125.614586 310.09064Q125.614586 311.34064 124.00521 313.09064L121.72396 315.5594L126.00521 315.5594L126.00521 316.45Z" fill-rule="nonzero"/><path fill="#757575" d="M208.30624 313.59064L209.49374 313.59064L209.49374 314.46564L208.30624 314.46564L208.30624 316.45L207.22812 316.45L207.22812 314.46564L203.3375 314.46564L203.3375 313.825L207.15 307.91876L208.30624 307.91876L208.30624 313.59064ZM204.57187 313.59064L207.22812 313.59064L207.22812 309.40314L207.0875 309.6375L204.57187 313.59064Z" fill-rule="nonzero"/><path fill="#757575" d="M291.31042 307.91876L291.31042 308.825L291.1073 308.825Q289.84167 308.85626 289.09167 309.59064Q288.34167 310.3094 288.21667 311.6219Q288.90417 310.85626 290.06042 310.85626Q291.1698 310.85626 291.84167 311.6375Q292.51355 312.41876 292.51355 313.66876Q292.51355 314.98126 291.7948 315.77814Q291.07605 316.575 289.8573 316.575Q288.63855 316.575 287.87292 315.6375Q287.12292 314.6844 287.12292 313.2L287.12292 312.79376Q287.12292 310.4344 288.12292 309.1844Q289.12292 307.9344 291.1073 307.91876L291.31042 307.91876ZM289.88855 311.7625Q289.32605 311.7625 288.8573 312.09064Q288.38855 312.41876 288.20105 312.9344L288.20105 313.325Q288.20105 314.3875 288.6698 315.02814Q289.15417 315.66876 289.8573 315.66876Q290.59167 315.66876 291.01355 315.1375Q291.43542 314.59064 291.43542 313.71564Q291.43542 312.84064 291.01355 312.3094Q290.59167 311.7625 289.88855 311.7625Z" fill-rule="nonzero"/><path fill="#757575" d="M375.54895 310.1375Q375.54895 310.77814 375.2052 311.27814Q374.86145 311.77814 374.29895 312.0594Q374.9552 312.34064 375.34583 312.90314Q375.73645 313.45 375.73645 314.15314Q375.73645 315.2469 374.98645 315.91876Q374.25208 316.575 373.03333 316.575Q371.79895 316.575 371.04895 315.91876Q370.31458 315.2469 370.31458 314.15314Q370.31458 313.45 370.68958 312.90314Q371.06458 312.34064 371.73645 312.0594Q371.17395 311.77814 370.84583 311.27814Q370.5177 310.77814 370.5177 310.1375Q370.5177 309.0594 371.2052 308.4344Q371.8927 307.79376 373.03333 307.79376Q374.15833 307.79376 374.84583 308.4344Q375.54895 309.0594 375.54895 310.1375ZM374.65833 314.1219Q374.65833 313.40314 374.2052 312.96564Q373.75208 312.5125 373.0177 312.5125Q372.28333 312.5125 371.8302 312.96564Q371.3927 313.40314 371.3927 314.1375Q371.3927 314.85626 371.8302 315.27814Q372.2677 315.6844 373.03333 315.6844Q373.78333 315.6844 374.22083 315.2625Q374.65833 314.84064 374.65833 314.1219ZM373.03333 308.6844Q372.3927 308.6844 371.98645 309.09064Q371.59583 309.48126 371.59583 310.16876Q371.59583 310.8094 371.98645 311.21564Q372.37708 311.6219 373.0177 311.6219Q373.67395 311.6219 374.06458 311.21564Q374.4552 310.8094 374.4552 310.16876Q374.4552 309.5125 374.04895 309.10626Q373.6427 308.6844 373.03333 308.6844Z" fill-rule="nonzero"/><path fill="#757575" d="M453.74063 316.45L452.6625 316.45L452.6625 309.23126L450.475 310.02814L450.475 309.04376L453.58438 307.8719L453.74063 307.8719L453.74063 316.45ZM462.5375 312.8094Q462.5375 314.71564 461.88126 315.65314Q461.24063 316.575 459.85 316.575Q458.49063 316.575 457.83438 315.66876Q457.17813 314.7625 457.14688 312.95L457.14688 311.5125Q457.14688 309.6219 457.7875 308.71564Q458.44376 307.79376 459.83438 307.79376Q461.20938 307.79376 461.86563 308.6844Q462.52188 309.5594 462.5375 311.40314L462.5375 312.8094ZM461.44376 311.325Q461.44376 309.95 461.05313 309.325Q460.67813 308.6844 459.83438 308.6844Q459.00626 308.6844 458.61563 309.325Q458.24063 309.95 458.24063 311.2469L458.24063 312.98126Q458.24063 314.35626 458.63126 315.02814Q459.0375 315.6844 459.85 315.6844Q460.64688 315.6844 461.0375 315.0594Q461.42813 314.4344 461.44376 313.10626L461.44376 311.325Z" fill-rule="nonzero"/><path fill="#757575" d="M537.0573 316.45L535.9792 316.45L535.9792 309.23126L533.7917 310.02814L533.7917 309.04376L536.90106 307.8719L537.0573 307.8719L537.0573 316.45ZM546.08856 316.45L540.4948 316.45L540.4948 315.66876L543.44794 312.3875Q544.1042 311.6375 544.3542 311.1844Q544.6042 310.71564 544.6042 310.21564Q544.6042 309.54376 544.19794 309.1219Q543.8073 308.6844 543.1198 308.6844Q542.32294 308.6844 541.8698 309.15314Q541.4167 309.60626 541.4167 310.4344L540.33856 310.4344Q540.33856 309.2469 541.08856 308.52814Q541.8542 307.79376 543.1198 307.79376Q544.32294 307.79376 545.01044 308.41876Q545.69794 309.04376 545.69794 310.09064Q545.69794 311.34064 544.08856 313.09064L541.8073 315.5594L546.08856 315.5594L546.08856 316.45Z" fill-rule="nonzero"/><path fill="#757575" d="M25.409374 31.8L22.08125 31.8L22.08125 37.55L20.190624 37.55L20.190624 23.33125L24.89375 23.33125Q27.3 23.33125 28.596874 24.425Q29.89375 25.51875 29.89375 27.6125Q29.89375 28.940624 29.175 29.925Q28.45625 30.909374 27.175 31.39375L30.51875 37.425L30.51875 37.55L28.503124 37.55L25.409374 31.8ZM22.08125 30.26875L24.95625 30.26875Q26.346874 30.26875 27.175 29.55Q28.003124 28.815624 28.003124 27.6125Q28.003124 26.284374 27.20625 25.58125Q26.425 24.878124 24.940624 24.878124L22.08125 24.878124L22.08125 30.26875ZM38.440624 37.55Q38.284374 37.2375 38.190624 36.440624Q36.925 37.753124 35.175 37.753124Q33.6125 37.753124 32.6125 36.8625Q31.6125 35.971874 31.6125 34.6125Q31.6125 32.971874 32.8625 32.065624Q34.128124 31.14375 36.39375 31.14375L38.159374 31.14375L38.159374 30.315624Q38.159374 29.3625 37.58125 28.8Q37.01875 28.2375 35.925 28.2375Q34.95625 28.2375 34.3 28.7375Q33.64375 29.221874 33.64375 29.909374L31.83125 29.909374Q31.83125 29.128124 32.39375 28.39375Q32.95625 27.64375 33.909374 27.221874Q34.878124 26.784374 36.034374 26.784374Q37.8625 26.784374 38.89375 27.70625Q39.925 28.6125 39.971874 30.221874L39.971874 35.08125Q39.971874 36.534374 40.33125 37.39375L40.33125 37.55L38.440624 37.55ZM35.440624 36.175Q36.3 36.175 37.05 35.7375Q37.815624 35.3 38.159374 34.596874L38.159374 32.425L36.7375 32.425Q33.425 32.425 33.425 34.3625Q33.425 35.221874 33.9875 35.70625Q34.55 36.175 35.440624 36.175ZM45.3625 24.425L45.3625 26.9875L47.346874 26.9875L47.346874 28.378124L45.3625 28.378124L45.3625 34.925Q45.3625 35.565624 45.628124 35.89375Q45.89375 36.20625 46.534374 36.20625Q46.846874 36.20625 47.39375 36.08125L47.39375 37.55Q46.675 37.753124 46.003124 37.753124Q44.8 37.753124 44.175 37.01875Q43.565624 36.284374 43.565624 34.925L43.565624 28.378124L41.64375 28.378124L41.64375 26.9875L43.565624 26.9875L43.565624 24.425L45.3625 24.425ZM51.878124 37.55L50.08125 37.55L50.08125 26.9875L51.878124 26.9875L51.878124 37.55ZM49.925 24.175Q49.925 23.7375 50.190624 23.440624Q50.471874 23.128124 50.9875 23.128124Q51.51875 23.128124 51.784374 23.440624Q52.065624 23.7375 52.065624 24.175Q52.065624 24.6125 51.784374 24.909374Q51.51875 25.20625 50.9875 25.20625Q50.471874 25.20625 50.190624 24.909374Q49.925 24.6125 49.925 24.175ZM56.628124 26.9875L56.690624 28.315624Q57.89375 26.784374 59.846874 26.784374Q63.20625 26.784374 63.221874 30.565624L63.221874 37.55L61.425 37.55L61.425 30.55Q61.409374 29.409374 60.89375 28.8625Q60.39375 28.315624 59.3 28.315624Q58.425 28.315624 57.753124 28.784374Q57.096874 29.253124 56.721874 30.01875L56.721874 37.55L54.925 37.55L54.925 26.9875L56.628124 26.9875ZM65.4875 32.175Q65.4875 29.70625 66.62813 28.253124Q67.76875 26.784374 69.65938 26.784374Q71.59688 26.784374 72.675 28.159374L72.76875 26.9875L74.40938 26.9875L74.40938 37.3Q74.40938 39.346874 73.19063 40.51875Q71.9875 41.70625 69.925 41.70625Q68.78438 41.70625 67.69063 41.221874Q66.59688 40.7375 66.01875 39.878124L66.95625 38.8Q68.12813 40.2375 69.8 40.2375Q71.12813 40.2375 71.8625 39.4875Q72.59688 38.753124 72.59688 37.409374L72.59688 36.4875Q71.51875 37.753124 69.64375 37.753124Q67.78438 37.753124 66.62813 36.253124Q65.4875 34.753124 65.4875 32.175ZM67.3 32.378124Q67.3 34.175 68.03438 35.190624Q68.76875 36.20625 70.08125 36.20625Q71.8 36.20625 72.59688 34.659374L72.59688 29.83125Q71.76875 28.315624 70.1125 28.315624Q68.78438 28.315624 68.03438 29.346874Q67.3 30.378124 67.3 32.378124ZM85.40938 35.096874L88.01875 26.9875L89.8625 26.9875L86.08125 37.55L84.70625 37.55L80.87813 26.9875L82.72188 26.9875L85.40938 35.096874ZM98.06563 34.753124Q98.06563 34.01875 97.51875 33.6125Q96.97188 33.20625 95.59688 32.909374Q94.22188 32.6125 93.40938 32.20625Q92.6125 31.8 92.22188 31.2375Q91.84688 30.659374 91.84688 29.878124Q91.84688 28.58125 92.94063 27.690624Q94.03438 26.784374 95.75313 26.784374Q97.55 26.784374 98.65938 27.721874Q99.78438 28.64375 99.78438 30.08125L97.95625 30.08125Q97.95625 29.346874 97.33125 28.815624Q96.70625 28.26875 95.75313 28.26875Q94.75313 28.26875 94.19063 28.70625Q93.64375 29.128124 93.64375 29.83125Q93.64375 30.471874 94.15938 30.815624Q94.675 31.14375 96.03438 31.45625Q97.39375 31.753124 98.22188 32.175Q99.06563 32.58125 99.47188 33.175Q99.87813 33.76875 99.87813 34.6125Q99.87813 36.034374 98.7375 36.89375Q97.6125 37.753124 95.8 37.753124Q94.53438 37.753124 93.55 37.3Q92.58125 36.846874 92.01875 36.05Q91.47188 35.2375 91.47188 34.3L93.28438 34.3Q93.33125 35.20625 94.00313 35.7375Q94.69063 36.26875 95.8 36.26875Q96.83125 36.26875 97.44063 35.8625Q98.06563 35.440624 98.06563 34.753124ZM101.95625 36.596874Q101.95625 36.128124 102.2375 35.815624Q102.51875 35.503124 103.06563 35.503124Q103.62813 35.503124 103.90938 35.815624Q104.20625 36.128124 104.20625 36.596874Q104.20625 37.05 103.90938 37.3625Q103.62813 37.659374 103.06563 37.659374Q102.51875 37.659374 102.2375 37.3625Q101.95625 37.05 101.95625 36.596874ZM116.39375 31.20625Q113.97188 30.51875 112.87813 29.51875Q111.78438 28.503124 111.78438 27.01875Q111.78438 25.33125 113.12813 24.2375Q114.47188 23.128124 116.6125 23.128124Q118.08125 23.128124 119.22188 23.70625Q120.37813 24.26875 121.00313 25.26875Q121.62813 26.253124 121.62813 27.440624L119.75313 27.440624Q119.75313 26.159374 118.925 25.425Q118.1125 24.675 116.6125 24.675Q115.22188 24.675 114.44063 25.284374Q113.675 25.89375 113.675 26.9875Q113.675 27.846874 114.40938 28.45625Q115.14375 29.05 116.90938 29.55Q118.69063 30.05 119.69063 30.659374Q120.69063 31.253124 121.175 32.05Q121.65938 32.846874 121.65938 33.940624Q121.65938 35.659374 120.31563 36.70625Q118.97188 37.753124 116.70625 37.753124Q115.25313 37.753124 113.97188 37.190624Q112.70625 36.628124 112.01875 35.659374Q111.33125 34.675 111.33125 33.425L113.22188 33.425Q113.22188 34.721874 114.175 35.471874Q115.12813 36.20625 116.70625 36.20625Q118.19063 36.20625 118.9875 35.6125Q119.78438 35.003124 119.78438 33.95625Q119.78438 32.909374 119.05 32.346874Q118.31563 31.76875 116.39375 31.20625ZM128.3 37.753124Q126.15938 37.753124 124.8 36.346874Q123.45625 34.925 123.45625 32.565624L123.45625 32.221874Q123.45625 30.659374 124.05 29.425Q124.65938 28.190624 125.7375 27.4875Q126.81563 26.784374 128.08125 26.784374Q130.14375 26.784374 131.28438 28.14375Q132.425 29.503124 132.425 32.034374L132.425 32.784374L125.26875 32.784374Q125.3 34.346874 126.175 35.315624Q127.05 36.26875 128.39375 36.26875Q129.3625 36.26875 130.01875 35.878124Q130.69063 35.4875 131.19063 34.846874L132.28438 35.70625Q130.95625 37.753124 128.3 37.753124ZM128.08125 28.26875Q126.9875 28.26875 126.2375 29.065624Q125.50313 29.8625 125.33125 31.3L130.6125 31.3L130.6125 31.159374Q130.53438 29.784374 129.8625 29.034374Q129.20625 28.26875 128.08125 28.26875ZM141.44063 37.55Q141.28438 37.2375 141.19063 36.440624Q139.925 37.753124 138.175 37.753124Q136.6125 37.753124 135.6125 36.8625Q134.6125 35.971874 134.6125 34.6125Q134.6125 32.971874 135.8625 32.065624Q137.12813 31.14375 139.39375 31.14375L141.15938 31.14375L141.15938 30.315624Q141.15938 29.3625 140.58125 28.8Q140.01875 28.2375 138.925 28.2375Q137.95625 28.2375 137.3 28.7375Q136.64375 29.221874 136.64375 29.909374L134.83125 29.909374Q134.83125 29.128124 135.39375 28.39375Q135.95625 27.64375 136.90938 27.221874Q137.87813 26.784374 139.03438 26.784374Q140.8625 26.784374 141.89375 27.70625Q142.925 28.6125 142.97188 30.221874L142.97188 35.08125Q142.97188 36.534374 143.33125 37.39375L143.33125 37.55L141.44063 37.55ZM138.44063 36.175Q139.3 36.175 140.05 35.7375Q140.81563 35.3 141.15938 34.596874L141.15938 32.425L139.7375 32.425Q136.425 32.425 136.425 34.3625Q136.425 35.221874 136.9875 35.70625Q137.55 36.175 138.44063 36.175ZM152.06563 34.753124Q152.06563 34.01875 151.51875 33.6125Q150.97188 33.20625 149.59688 32.909374Q148.22188 32.6125 147.40938 32.20625Q146.6125 31.8 146.22188 31.2375Q145.84688 30.659374 145.84688 29.878124Q145.84688 28.58125 146.94063 27.690624Q148.03438 26.784374 149.75313 26.784374Q151.55 26.784374 152.65938 27.721874Q153.78438 28.64375 153.78438 30.08125L151.95625 30.08125Q151.95625 29.346874 151.33125 28.815624Q150.70625 28.26875 149.75313 28.26875Q148.75313 28.26875 148.19063 28.70625Q147.64375 29.128124 147.64375 29.83125Q147.64375 30.471874 148.15938 30.815624Q148.675 31.14375 150.03438 31.45625Q151.39375 31.753124 152.22188 32.175Q153.06563 32.58125 153.47188 33.175Q153.87813 33.76875 153.87813 34.6125Q153.87813 36.034374 152.7375 36.89375Q151.6125 37.753124 149.8 37.753124Q148.53438 37.753124 147.55 37.3Q146.58125 36.846874 146.01875 36.05Q145.47188 35.2375 145.47188 34.3L147.28438 34.3Q147.33125 35.20625 148.00313 35.7375Q148.69063 36.26875 149.8 36.26875Q150.83125 36.26875 151.44063 35.8625Q152.06563 35.440624 152.06563 34.753124ZM155.44063 32.175Q155.44063 30.6125 156.05 29.378124Q156.65938 28.128124 157.7375 27.45625Q158.83125 26.784374 160.2375 26.784374Q162.39375 26.784374 163.72188 28.284374Q165.06563 29.76875 165.06563 32.253124L165.06563 32.378124Q165.06563 33.925 164.47188 35.159374Q163.87813 36.378124 162.76875 37.065624Q161.675 37.753124 160.25313 37.753124Q158.1125 37.753124 156.76875 36.253124Q155.44063 34.753124 155.44063 32.3L155.44063 32.175ZM157.25313 32.378124Q157.25313 34.14375 158.06563 35.20625Q158.89375 36.26875 160.25313 36.26875Q161.62813 36.26875 162.44063 35.190624Q163.25313 34.1125 163.25313 32.175Q163.25313 30.425 162.425 29.346874Q161.59688 28.26875 160.2375 28.26875Q158.89375 28.26875 158.06563 29.33125Q157.25313 30.39375 157.25313 32.378124ZM168.62813 26.9875L168.69063 28.315624Q169.89375 26.784374 171.84688 26.784374Q175.20625 26.784374 175.22188 30.565624L175.22188 37.55L173.425 37.55L173.425 30.55Q173.40938 29.409374 172.89375 28.8625Q172.39375 28.315624 171.3 28.315624Q170.425 28.315624 169.75313 28.784374Q169.09688 29.253124 168.72188 30.01875L168.72188 37.55L166.925 37.55L166.925 26.9875L168.62813 26.9875Z" fill-rule="nonzero"/></svg>