<svg version="1.1" viewBox="0.0 0.0 600.0 371.0" fill="none" stroke="none" stroke-linecap="square" stroke-miterlimit="10" width="600" height="371" xmlns:xlink="http://www.w3.org/1999/xlink" xmlns="http://www.w3.org/2000/svg"><path fill="#ffffff" d="M0 0L600.0 0L600.0 371.0L0 371.0L0 0Z" fill-rule="nonzero"/><path stroke="#333333" stroke-width="1.0" stroke-linecap="butt" d="M45.5 331.5L554.5 331.5" fill-rule="nonzero"/><path stroke="#cccccc" stroke-width="1.0" stroke-linecap="butt" d="M45.5 261.5L554.5 261.5" fill-rule="nonzero"/><path stroke="#cccccc" stroke-width="1.0" stroke-linecap="butt" d="M45.5 192.5L554.5 192.5" fill-rule="nonzero"/><path stroke="#cccccc" stroke-width="1.0" stroke-linecap="butt" d="M45.5 122.5L554.5 122.5" fill-rule="nonzero"/><path stroke="#cccccc" stroke-width="1.0" stroke-linecap="butt" d="M45.5 53.5L554.5 53.5" fill-rule="nonzero"/><clipPath id="id_0"><path d="M45.55 53.416668L554.45 53.416668L554.45 331.45L45.55 331.45L45.55 53.416668Z" clip-rule="nonzero"/></clipPath><path stroke="#000000" stroke-width="0.0" stroke-linecap="butt" stroke-opacity="0.0" clip-path="url(#id_0)" d="M163.0 331.0L87.0 331.0L87.0 55.0C87.0 53.89543 87.89543 53.0 89.0 53.0L161.0 53.0C162.10457 53.0 163.0 53.89543 163.0 55.0Z" fill-rule="nonzero"/><path fill="#4285f4" clip-path="url(#id_0)" d="M163.0 331.0L87.0 331.0L87.0 55.0C87.0 53.89543 87.89543 53.0 89.0 53.0L161.0 53.0C162.10457 53.0 163.0 53.89543 163.0 55.0Z" fill-rule="nonzero"/><path stroke="#000000" stroke-width="0.0" stroke-linecap="butt" stroke-opacity="0.0" clip-path="url(#id_0)" d="M280.0 331.0L204.0 331.0L204.0 125.0C204.0 123.89543 204.89543 123.0 206.0 123.0L278.0 123.0C279.10458 123.0 280.0 123.89543 280.0 125.0Z" fill-rule="nonzero"/><path fill="#4285f4" clip-path="url(#id_0)" d="M280.0 331.0L204.0 331.0L204.0 125.0C204.0 123.89543 204.89543 123.0 206.0 123.0L278.0 123.0C279.10458 123.0 280.0 123.89543 280.0 125.0Z" fill-rule="nonzero"/><path stroke="#000000" stroke-width="0.0" stroke-linecap="butt" stroke-opacity="0.0" clip-path="url(#id_0)" d="M396.0 331.0L320.0 331.0L320.0 299.0C320.0 297.89542 320.89542 297.0 322.0 297.0L394.0 297.0C395.10458 297.0 396.0 297.89542 396.0 299.0Z" fill-rule="nonzero"/><path fill="#4285f4" clip-path="url(#id_0)" d="M396.0 331.0L320.0 331.0L320.0 299.0C320.0 297.89542 320.89542 297.0 322.0 297.0L394.0 297.0C395.10458 297.0 396.0 297.89542 396.0 299.0Z" fill-rule="nonzero"/><path stroke="#000000" stroke-width="0.0" stroke-linecap="butt" stroke-opacity="0.0" clip-path="url(#id_0)" d="M513.0 331.0L437.0 331.0L437.0 313.0C437.0 311.89542 437.89542 311.0 439.0 311.0L511.0 311.0C512.10455 311.0 513.0 311.89542 513.0 313.0Z" fill-rule="nonzero"/><path fill="#4285f4" clip-path="url(#id_0)" d="M513.0 331.0L437.0 331.0L437.0 313.0C437.0 311.89542 437.89542 311.0 439.0 311.0L511.0 311.0C512.10455 311.0 513.0 311.89542 513.0 313.0Z" fill-rule="nonzero"/><path stroke="#db4437" stroke-width="2.0" stroke-linecap="butt" clip-path="url(#id_0)" d="M124.51724 101.37742L241.50575 159.99611L358.49426 81.22L475.48276 81.22" fill-rule="nonzero"/><path fill="#000000" fill-opacity="0.0" clip-path="url(#id_0)" d="M127.51724 101.37742C127.51724 103.03427 126.174095 104.37742 124.51724 104.37742C122.86039 104.37742 121.51724 103.03427 121.51724 101.37742C121.51724 99.720566 122.86039 98.37742 124.51724 98.37742C126.174095 98.37742 127.51724 99.720566 127.51724 101.37742Z" fill-rule="nonzero"/><path fill="#000000" fill-opacity="0.0" clip-path="url(#id_0)" d="M244.50575 159.99611C244.50575 161.65297 243.1626 162.99611 241.50575 162.99611C239.84889 162.99611 238.50575 161.65297 238.50575 159.99611C238.50575 158.33926 239.84889 156.99611 241.50575 156.99611C243.1626 156.99611 244.50575 158.33926 244.50575 159.99611Z" fill-rule="nonzero"/><path fill="#000000" fill-opacity="0.0" clip-path="url(#id_0)" d="M361.49426 81.22C361.49426 82.876854 360.1511 84.22 358.49426 84.22C356.8374 84.22 355.49426 82.876854 355.49426 81.22C355.49426 79.56315 356.8374 78.22 358.49426 78.22C360.1511 78.22 361.49426 79.56315 361.49426 81.22Z" fill-rule="nonzero"/><path fill="#000000" fill-opacity="0.0" clip-path="url(#id_0)" d="M478.48276 81.22C478.48276 82.876854 477.13962 84.22 475.48276 84.22C473.8259 84.22 472.48276 82.876854 472.48276 81.22C472.48276 79.56315 473.8259 78.22 475.48276 78.22C477.13962 78.22 478.48276 79.56315 478.48276 81.22Z" fill-rule="nonzero"/><path fill="#757575" d="M38.6125 332.3094Q38.6125 334.21564 37.95625 335.15314Q37.315624 336.075 35.925 336.075Q34.565624 336.075 33.909374 335.16876Q33.253124 334.2625 33.221874 332.45L33.221874 331.0125Q33.221874 329.1219 33.8625 328.21564Q34.51875 327.29376 35.909374 327.29376Q37.284374 327.29376 37.940624 328.1844Q38.596874 329.0594 38.6125 330.90314L38.6125 332.3094ZM37.51875 330.825Q37.51875 329.45 37.128124 328.825Q36.753124 328.1844 35.909374 328.1844Q35.08125 328.1844 34.690624 328.825Q34.315624 329.45 34.315624 330.7469L34.315624 332.48126Q34.315624 333.85626 34.70625 334.52814Q35.1125 335.1844 35.925 335.1844Q36.721874 335.1844 37.1125 334.5594Q37.503124 333.9344 37.51875 332.60626L37.51875 330.825Z" fill-rule="nonzero"/><path fill="#757575" d="M29.815624 266.44168L28.7375 266.44168L28.7375 259.22293L26.55 260.0198L26.55 259.03543L29.659374 257.86356L29.815624 257.86356L29.815624 266.44168ZM38.6125 262.80106Q38.6125 264.7073 37.95625 265.6448Q37.315624 266.56668 35.925 266.56668Q34.565624 266.56668 33.909374 265.66043Q33.253124 264.75418 33.221874 262.94168L33.221874 261.50418Q33.221874 259.61356 33.8625 258.7073Q34.51875 257.78543 35.909374 257.78543Q37.284374 257.78543 37.940624 258.67606Q38.596874 259.55106 38.6125 261.3948L38.6125 262.80106ZM37.51875 261.31668Q37.51875 259.94168 37.128124 259.31668Q36.753124 258.67606 35.909374 258.67606Q35.08125 258.67606 34.690624 259.31668Q34.315624 259.94168 34.315624 261.23856L34.315624 262.97293Q34.315624 264.34793 34.70625 265.0198Q35.1125 265.67606 35.925 265.67606Q36.721874 265.67606 37.1125 265.05106Q37.503124 264.42606 37.51875 263.09793L37.51875 261.31668Z" fill-rule="nonzero"/><path fill="#757575" d="M31.846874 196.93333L26.253124 196.93333L26.253124 196.15208L29.20625 192.87083Q29.8625 192.12083 30.1125 191.66771Q30.3625 191.19896 30.3625 190.69896Q30.3625 190.02708 29.95625 189.60521Q29.565624 189.16771 28.878124 189.16771Q28.08125 189.16771 27.628124 189.63646Q27.175 190.08958 27.175 190.91771L26.096874 190.91771Q26.096874 189.73021 26.846874 189.01146Q27.6125 188.27708 28.878124 188.27708Q30.08125 188.27708 30.76875 188.90208Q31.45625 189.52708 31.45625 190.57396Q31.45625 191.82396 29.846874 193.57396L27.565624 196.04271L31.846874 196.04271L31.846874 196.93333ZM38.6125 193.29271Q38.6125 195.19896 37.95625 196.13646Q37.315624 197.05833 35.925 197.05833Q34.565624 197.05833 33.909374 196.15208Q33.253124 195.24583 33.221874 193.43333L33.221874 191.99583Q33.221874 190.10521 33.8625 189.19896Q34.51875 188.27708 35.909374 188.27708Q37.284374 188.27708 37.940624 189.16771Q38.596874 190.04271 38.6125 191.88646L38.6125 193.29271ZM37.51875 191.80833Q37.51875 190.43333 37.128124 189.80833Q36.753124 189.16771 35.909374 189.16771Q35.08125 189.16771 34.690624 189.80833Q34.315624 190.43333 34.315624 191.73021L34.315624 193.46458Q34.315624 194.83958 34.70625 195.51146Q35.1125 196.16771 35.925 196.16771Q36.721874 196.16771 37.1125 195.54271Q37.503124 194.91771 37.51875 193.58958L37.51875 191.80833Z" fill-rule="nonzero"/><path fill="#757575" d="M27.83125 122.62813L28.64375 122.62813Q29.425 122.6125 29.8625 122.22188Q30.3 121.83125 30.3 121.15938Q30.3 119.65938 28.8 119.65938Q28.096874 119.65938 27.675 120.06563Q27.26875 120.47188 27.26875 121.12813L26.175 121.12813Q26.175 120.1125 26.909374 119.44063Q27.659374 118.76875 28.8 118.76875Q30.003124 118.76875 30.690624 119.40938Q31.378124 120.05 31.378124 121.19063Q31.378124 121.75313 31.01875 122.26875Q30.659374 122.78438 30.034374 123.05Q30.7375 123.26875 31.1125 123.78438Q31.503124 124.3 31.503124 125.05Q31.503124 126.19063 30.753124 126.87813Q30.003124 127.55 28.8 127.55Q27.6125 127.55 26.846874 126.89375Q26.096874 126.2375 26.096874 125.175L27.190624 125.175Q27.190624 125.84688 27.628124 126.25313Q28.065624 126.65938 28.815624 126.65938Q29.596874 126.65938 30.003124 126.25313Q30.425 125.83125 30.425 125.06563Q30.425 124.33125 29.971874 123.94063Q29.51875 123.53438 28.64375 123.51875L27.83125 123.51875L27.83125 122.62813ZM38.6125 123.78438Q38.6125 125.69063 37.95625 126.62813Q37.315624 127.55 35.925 127.55Q34.565624 127.55 33.909374 126.64375Q33.253124 125.7375 33.221874 123.925L33.221874 122.4875Q33.221874 120.59688 33.8625 119.69063Q34.51875 118.76875 35.909374 118.76875Q37.284374 118.76875 37.940624 119.65938Q38.596874 120.53438 38.6125 122.37813L38.6125 123.78438ZM37.51875 122.3Q37.51875 120.925 37.128124 120.3Q36.753124 119.65938 35.909374 119.65938Q35.08125 119.65938 34.690624 120.3Q34.315624 120.925 34.315624 122.22188L34.315624 123.95625Q34.315624 125.33125 34.70625 126.00313Q35.1125 126.65938 35.925 126.65938Q36.721874 126.65938 37.1125 126.03438Q37.503124 125.40938 37.51875 124.08125L37.51875 122.3Z" fill-rule="nonzero"/><path fill="#757575" d="M30.83125 55.057293L32.01875 55.057293L32.01875 55.932293L30.83125 55.932293L30.83125 57.916668L29.753124 57.916668L29.753124 55.932293L25.8625 55.932293L25.8625 55.291668L29.675 49.385418L30.83125 49.385418L30.83125 55.057293ZM27.096874 55.057293L29.753124 55.057293L29.753124 50.869793L29.6125 51.104168L27.096874 55.057293ZM38.6125 54.276043Q38.6125 56.182293 37.95625 57.119793Q37.315624 58.041668 35.925 58.041668Q34.565624 58.041668 33.909374 57.135418Q33.253124 56.229168 33.221874 54.416668L33.221874 52.979168Q33.221874 51.088543 33.8625 50.182293Q34.51875 49.260418 35.909374 49.260418Q37.284374 49.260418 37.940624 50.151043Q38.596874 51.026043 38.6125 52.869793L38.6125 54.276043ZM37.51875 52.791668Q37.51875 51.416668 37.128124 50.791668Q36.753124 50.151043 35.909374 50.151043Q35.08125 50.151043 34.690624 50.791668Q34.315624 51.416668 34.315624 52.713543L34.315624 54.447918Q34.315624 55.822918 34.70625 56.494793Q35.1125 57.151043 35.925 57.151043Q36.721874 57.151043 37.1125 56.526043Q37.503124 55.901043 37.51875 54.572918L37.51875 52.791668Z" fill-rule="nonzero"/><path fill="#757575" d="M566.66876 328.02814L563.1375 335.95L561.9969 335.95L565.5125 328.3094L560.90314 328.3094L560.90314 327.41876L566.66876 327.41876L566.66876 328.02814ZM568.29376 335.3875Q568.29376 335.10626 568.45 334.91876Q568.6219 334.73126 568.95 334.73126Q569.29376 334.73126 569.46564 334.91876Q569.6375 335.10626 569.6375 335.3875Q569.6375 335.65314 569.46564 335.84064Q569.29376 336.0125 568.95 336.0125Q568.6219 336.0125 568.45 335.84064Q568.29376 335.65314 568.29376 335.3875ZM571.65314 331.66876L572.09064 327.41876L576.46564 327.41876L576.46564 328.41876L573.0125 328.41876L572.7469 330.7469Q573.3875 330.3719 574.1844 330.3719Q575.34064 330.3719 576.02814 331.15314Q576.71564 331.91876 576.71564 333.23126Q576.71564 334.54376 575.9969 335.3094Q575.29376 336.075 574.0125 336.075Q572.8875 336.075 572.16876 335.45Q571.45 334.8094 571.35626 333.7L572.3719 333.7Q572.48126 334.4344 572.90314 334.8094Q573.325 335.1844 574.0125 335.1844Q574.7625 335.1844 575.2 334.66876Q575.6375 334.15314 575.6375 333.2469Q575.6375 332.3875 575.16876 331.8719Q574.7 331.35626 573.91876 331.35626Q573.21564 331.35626 572.8094 331.65314L572.52814 331.8875L571.65314 331.66876Z" fill-rule="nonzero"/><path fill="#757575" d="M566.66876 258.5198L563.1375 266.44168L561.9969 266.44168L565.5125 258.80106L560.90314 258.80106L560.90314 257.91043L566.66876 257.91043L566.66876 258.5198ZM568.29376 265.87918Q568.29376 265.59793 568.45 265.41043Q568.6219 265.22293 568.95 265.22293Q569.29376 265.22293 569.46564 265.41043Q569.6375 265.59793 569.6375 265.87918Q569.6375 266.1448 569.46564 266.3323Q569.29376 266.50418 568.95 266.50418Q568.6219 266.50418 568.45 266.3323Q568.29376 266.1448 568.29376 265.87918ZM576.34064 260.12918Q576.34064 260.7698 575.9969 261.2698Q575.65314 261.7698 575.09064 262.05106Q575.7469 262.3323 576.1375 262.8948Q576.52814 263.44168 576.52814 264.1448Q576.52814 265.23856 575.77814 265.91043Q575.04376 266.56668 573.825 266.56668Q572.59064 266.56668 571.84064 265.91043Q571.10626 265.23856 571.10626 264.1448Q571.10626 263.44168 571.48126 262.8948Q571.85626 262.3323 572.52814 262.05106Q571.96564 261.7698 571.6375 261.2698Q571.3094 260.7698 571.3094 260.12918Q571.3094 259.05106 571.9969 258.42606Q572.6844 257.78543 573.825 257.78543Q574.95 257.78543 575.6375 258.42606Q576.34064 259.05106 576.34064 260.12918ZM575.45 264.11356Q575.45 263.3948 574.9969 262.9573Q574.54376 262.50418 573.8094 262.50418Q573.075 262.50418 572.6219 262.9573Q572.1844 263.3948 572.1844 264.12918Q572.1844 264.84793 572.6219 265.2698Q573.0594 265.67606 573.825 265.67606Q574.575 265.67606 575.0125 265.25418Q575.45 264.8323 575.45 264.11356ZM573.825 258.67606Q573.1844 258.67606 572.77814 259.0823Q572.3875 259.47293 572.3875 260.16043Q572.3875 260.80106 572.77814 261.2073Q573.16876 261.61356 573.8094 261.61356Q574.46564 261.61356 574.85626 261.2073Q575.2469 260.80106 575.2469 260.16043Q575.2469 259.50418 574.84064 259.09793Q574.4344 258.67606 573.825 258.67606Z" fill-rule="nonzero"/><path fill="#757575" d="M566.34064 190.62083Q566.34064 191.26146 565.9969 191.76146Q565.65314 192.26146 565.09064 192.54271Q565.7469 192.82396 566.1375 193.38646Q566.52814 193.93333 566.52814 194.63646Q566.52814 195.73021 565.77814 196.40208Q565.04376 197.05833 563.825 197.05833Q562.59064 197.05833 561.84064 196.40208Q561.10626 195.73021 561.10626 194.63646Q561.10626 193.93333 561.48126 193.38646Q561.85626 192.82396 562.52814 192.54271Q561.96564 192.26146 561.6375 191.76146Q561.3094 191.26146 561.3094 190.62083Q561.3094 189.54271 561.9969 188.91771Q562.6844 188.27708 563.825 188.27708Q564.95 188.27708 565.6375 188.91771Q566.34064 189.54271 566.34064 190.62083ZM565.45 194.60521Q565.45 193.88646 564.9969 193.44896Q564.54376 192.99583 563.8094 192.99583Q563.075 192.99583 562.6219 193.44896Q562.1844 193.88646 562.1844 194.62083Q562.1844 195.33958 562.6219 195.76146Q563.0594 196.16771 563.825 196.16771Q564.575 196.16771 565.0125 195.74583Q565.45 195.32396 565.45 194.60521ZM563.825 189.16771Q563.1844 189.16771 562.77814 189.57396Q562.3875 189.96458 562.3875 190.65208Q562.3875 191.29271 562.77814 191.69896Q563.16876 192.10521 563.8094 192.10521Q564.46564 192.10521 564.85626 191.69896Q565.2469 191.29271 565.2469 190.65208Q565.2469 189.99583 564.84064 189.58958Q564.4344 189.16771 563.825 189.16771ZM568.29376 196.37083Q568.29376 196.08958 568.45 195.90208Q568.6219 195.71458 568.95 195.71458Q569.29376 195.71458 569.46564 195.90208Q569.6375 196.08958 569.6375 196.37083Q569.6375 196.63646 569.46564 196.82396Q569.29376 196.99583 568.95 196.99583Q568.6219 196.99583 568.45 196.82396Q568.29376 196.63646 568.29376 196.37083ZM576.5125 193.29271Q576.5125 195.19896 575.85626 196.13646Q575.21564 197.05833 573.825 197.05833Q572.46564 197.05833 571.8094 196.15208Q571.15314 195.24583 571.1219 193.43333L571.1219 191.99583Q571.1219 190.10521 571.7625 189.19896Q572.41876 188.27708 573.8094 188.27708Q575.1844 188.27708 575.84064 189.16771Q576.4969 190.04271 576.5125 191.88646L576.5125 193.29271ZM575.41876 191.80833Q575.41876 190.43333 575.02814 189.80833Q574.65314 189.16771 573.8094 189.16771Q572.98126 189.16771 572.59064 189.80833Q572.21564 190.43333 572.21564 191.73021L572.21564 193.46458Q572.21564 194.83958 572.60626 195.51146Q573.0125 196.16771 573.825 196.16771Q574.6219 196.16771 575.0125 195.54271Q575.40314 194.91771 575.41876 193.58958L575.41876 191.80833Z" fill-rule="nonzero"/><path fill="#757575" d="M566.34064 121.1125Q566.34064 121.75313 565.9969 122.25313Q565.65314 122.75313 565.09064 123.03438Q565.7469 123.31563 566.1375 123.87813Q566.52814 124.425 566.52814 125.12813Q566.52814 126.22188 565.77814 126.89375Q565.04376 127.55 563.825 127.55Q562.59064 127.55 561.84064 126.89375Q561.10626 126.22188 561.10626 125.12813Q561.10626 124.425 561.48126 123.87813Q561.85626 123.31563 562.52814 123.03438Q561.96564 122.75313 561.6375 122.25313Q561.3094 121.75313 561.3094 121.1125Q561.3094 120.03438 561.9969 119.40938Q562.6844 118.76875 563.825 118.76875Q564.95 118.76875 565.6375 119.40938Q566.34064 120.03438 566.34064 121.1125ZM565.45 125.09688Q565.45 124.37813 564.9969 123.94063Q564.54376 123.4875 563.8094 123.4875Q563.075 123.4875 562.6219 123.94063Q562.1844 124.37813 562.1844 125.1125Q562.1844 125.83125 562.6219 126.25313Q563.0594 126.65938 563.825 126.65938Q564.575 126.65938 565.0125 126.2375Q565.45 125.81563 565.45 125.09688ZM563.825 119.65938Q563.1844 119.65938 562.77814 120.06563Q562.3875 120.45625 562.3875 121.14375Q562.3875 121.78438 562.77814 122.19063Q563.16876 122.59688 563.8094 122.59688Q564.46564 122.59688 564.85626 122.19063Q565.2469 121.78438 565.2469 121.14375Q565.2469 120.4875 564.84064 120.08125Q564.4344 119.65938 563.825 119.65938ZM568.29376 126.8625Q568.29376 126.58125 568.45 126.39375Q568.6219 126.20625 568.95 126.20625Q569.29376 126.20625 569.46564 126.39375Q569.6375 126.58125 569.6375 126.8625Q569.6375 127.12813 569.46564 127.31563Q569.29376 127.4875 568.95 127.4875Q568.6219 127.4875 568.45 127.31563Q568.29376 127.12813 568.29376 126.8625ZM572.73126 122.62813L573.54376 122.62813Q574.325 122.6125 574.7625 122.22188Q575.2 121.83125 575.2 121.15938Q575.2 119.65938 573.7 119.65938Q572.9969 119.65938 572.575 120.06563Q572.16876 120.47188 572.16876 121.12813L571.075 121.12813Q571.075 120.1125 571.8094 119.44063Q572.5594 118.76875 573.7 118.76875Q574.90314 118.76875 575.59064 119.40938Q576.27814 120.05 576.27814 121.19063Q576.27814 121.75313 575.91876 122.26875Q575.5594 122.78438 574.9344 123.05Q575.6375 123.26875 576.0125 123.78438Q576.40314 124.3 576.40314 125.05Q576.40314 126.19063 575.65314 126.87813Q574.90314 127.55 573.7 127.55Q572.5125 127.55 571.7469 126.89375Q570.9969 126.2375 570.9969 125.175L572.09064 125.175Q572.09064 125.84688 572.52814 126.25313Q572.96564 126.65938 573.71564 126.65938Q574.4969 126.65938 574.90314 126.25313Q575.325 125.83125 575.325 125.06563Q575.325 124.33125 574.8719 123.94063Q574.41876 123.53438 573.54376 123.51875L572.73126 123.51875L572.73126 122.62813Z" fill-rule="nonzero"/><path fill="#757575" d="M566.34064 51.604168Q566.34064 52.244793 565.9969 52.744793Q565.65314 53.244793 565.09064 53.526043Q565.7469 53.807293 566.1375 54.369793Q566.52814 54.916668 566.52814 55.619793Q566.52814 56.713543 565.77814 57.385418Q565.04376 58.041668 563.825 58.041668Q562.59064 58.041668 561.84064 57.385418Q561.10626 56.713543 561.10626 55.619793Q561.10626 54.916668 561.48126 54.369793Q561.85626 53.807293 562.52814 53.526043Q561.96564 53.244793 561.6375 52.744793Q561.3094 52.244793 561.3094 51.604168Q561.3094 50.526043 561.9969 49.901043Q562.6844 49.260418 563.825 49.260418Q564.95 49.260418 565.6375 49.901043Q566.34064 50.526043 566.34064 51.604168ZM565.45 55.588543Q565.45 54.869793 564.9969 54.432293Q564.54376 53.979168 563.8094 53.979168Q563.075 53.979168 562.6219 54.432293Q562.1844 54.869793 562.1844 55.604168Q562.1844 56.322918 562.6219 56.744793Q563.0594 57.151043 563.825 57.151043Q564.575 57.151043 565.0125 56.729168Q565.45 56.307293 565.45 55.588543ZM563.825 50.151043Q563.1844 50.151043 562.77814 50.557293Q562.3875 50.947918 562.3875 51.635418Q562.3875 52.276043 562.77814 52.682293Q563.16876 53.088543 563.8094 53.088543Q564.46564 53.088543 564.85626 52.682293Q565.2469 52.276043 565.2469 51.635418Q565.2469 50.979168 564.84064 50.572918Q564.4344 50.151043 563.825 50.151043ZM568.29376 57.354168Q568.29376 57.072918 568.45 56.885418Q568.6219 56.697918 568.95 56.697918Q569.29376 56.697918 569.46564 56.885418Q569.6375 57.072918 569.6375 57.354168Q569.6375 57.619793 569.46564 57.807293Q569.29376 57.979168 568.95 57.979168Q568.6219 57.979168 568.45 57.807293Q568.29376 57.619793 568.29376 57.354168ZM571.65314 53.635418L572.09064 49.385418L576.46564 49.385418L576.46564 50.385418L573.0125 50.385418L572.7469 52.713543Q573.3875 52.338543 574.1844 52.338543Q575.34064 52.338543 576.02814 53.119793Q576.71564 53.885418 576.71564 55.197918Q576.71564 56.510418 575.9969 57.276043Q575.29376 58.041668 574.0125 58.041668Q572.8875 58.041668 572.16876 57.416668Q571.45 56.776043 571.35626 55.666668L572.3719 55.666668Q572.48126 56.401043 572.90314 56.776043Q573.325 57.151043 574.0125 57.151043Q574.7625 57.151043 575.2 56.635418Q575.6375 56.119793 575.6375 55.213543Q575.6375 54.354168 575.16876 53.838543Q574.7 53.322918 573.91876 53.322918Q573.21564 53.322918 572.8094 53.619793L572.52814 53.854168L571.65314 53.635418Z" fill-rule="nonzero"/><path fill="#757575" d="M99.78287 349.45L98.70474 349.45L98.70474 342.23126L96.51724 343.02814L96.51724 342.04376L99.62662 340.8719L99.78287 340.8719L99.78287 349.45ZM103.36099 348.8875Q103.36099 348.60626 103.51724 348.41876Q103.68912 348.23126 104.01724 348.23126Q104.36099 348.23126 104.53287 348.41876Q104.70474 348.60626 104.70474 348.8875Q104.70474 349.15314 104.53287 349.34064Q104.36099 349.5125 104.01724 349.5125Q103.68912 349.5125 103.51724 349.34064Q103.36099 349.15314 103.36099 348.8875ZM110.95474 340.91876L113.75162 347.8719L116.53287 340.91876L118.00162 340.91876L118.00162 349.45L116.87662 349.45L116.87662 346.1219L116.98599 342.54376L114.17349 349.45L113.31412 349.45L110.51724 342.5594L110.62662 346.1219L110.62662 349.45L109.50162 349.45L109.50162 340.91876L110.95474 340.91876ZM119.04849 346.21564Q119.04849 345.29376 119.40787 344.54376Q119.78287 343.79376 120.43912 343.40314Q121.09537 342.9969 121.92349 342.9969Q123.22037 342.9969 124.01724 343.8875Q124.82974 344.77814 124.82974 346.27814L124.82974 346.35626Q124.82974 347.27814 124.47037 348.0125Q124.11099 348.7469 123.45474 349.16876Q122.79849 349.575 121.93912 349.575Q120.65787 349.575 119.84537 348.6844Q119.04849 347.77814 119.04849 346.29376L119.04849 346.21564ZM120.14224 346.35626Q120.14224 347.40314 120.62662 348.04376Q121.12662 348.6844 121.93912 348.6844Q122.76724 348.6844 123.25162 348.04376Q123.73599 347.3875 123.73599 346.21564Q123.73599 345.1844 123.23599 344.54376Q122.75162 343.8875 121.92349 343.8875Q121.12662 343.8875 120.62662 344.52814Q120.14224 345.15314 120.14224 346.35626ZM129.40787 344.075Q129.15787 344.04376 128.87662 344.04376Q127.79849 344.04376 127.42349 344.95L127.42349 349.45L126.34537 349.45L126.34537 343.10626L127.39224 343.10626L127.40787 343.84064Q127.93912 342.9969 128.9235 342.9969Q129.236 342.9969 129.40787 343.075L129.40787 344.075ZM131.361 343.10626L131.39224 343.90314Q132.12662 342.9969 133.2985 342.9969Q135.31412 342.9969 135.32974 345.2625L135.32974 349.45L134.236 349.45L134.236 345.2469Q134.236 344.575 133.9235 344.2469Q133.62662 343.91876 132.97037 343.91876Q132.43912 343.91876 132.03287 344.2Q131.64224 344.48126 131.4235 344.9344L131.4235 349.45L130.34537 349.45L130.34537 343.10626L131.361 343.10626ZM138.51724 349.45L137.43912 349.45L137.43912 343.10626L138.51724 343.10626L138.51724 349.45ZM137.34537 341.4344Q137.34537 341.16876 137.50162 340.98126Q137.6735 340.79376 137.986 340.79376Q138.2985 340.79376 138.45474 340.98126Q138.62662 341.16876 138.62662 341.4344Q138.62662 341.6844 138.45474 341.8719Q138.2985 342.04376 137.986 342.04376Q137.6735 342.04376 137.50162 341.8719Q137.34537 341.6844 137.34537 341.4344ZM141.361 343.10626L141.39224 343.90314Q142.12662 342.9969 143.2985 342.9969Q145.31412 342.9969 145.32974 345.2625L145.32974 349.45L144.236 349.45L144.236 345.2469Q144.236 344.575 143.9235 344.2469Q143.62662 343.91876 142.97037 343.91876Q142.43912 343.91876 142.03287 344.2Q141.64224 344.48126 141.4235 344.9344L141.4235 349.45L140.34537 349.45L140.34537 343.10626L141.361 343.10626ZM147.07974 346.23126Q147.07974 344.7469 147.76724 343.8719Q148.45474 342.9969 149.57974 342.9969Q150.736 342.9969 151.39224 343.8094L151.43912 343.10626L152.43912 343.10626L152.43912 349.29376Q152.43912 350.52814 151.70474 351.23126Q150.97037 351.95 149.75162 351.95Q149.06412 351.95 148.40787 351.65314Q147.75162 351.35626 147.40787 350.85626L147.97037 350.2Q148.65787 351.0594 149.6735 351.0594Q150.45474 351.0594 150.89224 350.60626Q151.34537 350.16876 151.34537 349.35626L151.34537 348.8094Q150.68912 349.575 149.56412 349.575Q148.45474 349.575 147.76724 348.6844Q147.07974 347.77814 147.07974 346.23126ZM148.1735 346.35626Q148.1735 347.41876 148.611 348.04376Q149.0485 348.65314 149.84537 348.65314Q150.861 348.65314 151.34537 347.71564L151.34537 344.825Q150.84537 343.91876 149.84537 343.91876Q149.06412 343.91876 148.611 344.52814Q148.1735 345.1375 148.1735 346.35626Z" fill-rule="nonzero"/><path fill="#757575" d="M214.30263 349.45L208.70888 349.45L208.70888 348.66876L211.662 345.3875Q212.31825 344.6375 212.56825 344.1844Q212.81825 343.71564 212.81825 343.21564Q212.81825 342.54376 212.412 342.1219Q212.02138 341.6844 211.33388 341.6844Q210.537 341.6844 210.08388 342.15314Q209.63075 342.60626 209.63075 343.4344L208.55263 343.4344Q208.55263 342.2469 209.30263 341.52814Q210.06825 340.79376 211.33388 340.79376Q212.537 340.79376 213.2245 341.41876Q213.912 342.04376 213.912 343.09064Q213.912 344.34064 212.30263 346.09064L210.02138 348.5594L214.30263 348.5594L214.30263 349.45ZM215.8495 348.8875Q215.8495 348.60626 216.00575 348.41876Q216.17763 348.23126 216.50575 348.23126Q216.8495 348.23126 217.02138 348.41876Q217.19325 348.60626 217.19325 348.8875Q217.19325 349.15314 217.02138 349.34064Q216.8495 349.5125 216.50575 349.5125Q216.17763 349.5125 216.00575 349.34064Q215.8495 349.15314 215.8495 348.8875ZM226.70888 347.21564L223.13075 347.21564L222.33388 349.45L221.17763 349.45L224.42763 340.91876L225.412 340.91876L228.67763 349.45L227.52138 349.45L226.70888 347.21564ZM223.4745 346.29376L226.38075 346.29376L224.92763 342.3094L223.4745 346.29376ZM230.36513 349.45L230.36513 343.95L229.36513 343.95L229.36513 343.10626L230.36513 343.10626L230.36513 342.46564Q230.36513 341.4344 230.89638 340.8875Q231.44325 340.325 232.44325 340.325Q232.81825 340.325 233.19325 340.41876L233.13075 341.3094Q232.8495 341.2469 232.55263 341.2469Q232.02138 341.2469 231.7245 341.5594Q231.44325 341.8719 231.44325 342.4344L231.44325 343.10626L232.80263 343.10626L232.80263 343.95L231.44325 343.95L231.44325 349.45L230.36513 349.45ZM235.30263 341.575L235.30263 343.10626L236.4745 343.10626L236.4745 343.95L235.30263 343.95L235.30263 347.8719Q235.30263 348.2625 235.45888 348.45Q235.61513 348.6375 235.99013 348.6375Q236.17763 348.6375 236.50575 348.575L236.50575 349.45Q236.08388 349.575 235.67763 349.575Q234.95888 349.575 234.58388 349.1375Q234.20888 348.6844 234.20888 347.8719L234.20888 343.95L233.05263 343.95L233.05263 343.10626L234.20888 343.10626L234.20888 341.575L235.30263 341.575ZM240.45888 349.575Q239.162 349.575 238.3495 348.73126Q237.55263 347.8719 237.55263 346.45L237.55263 346.2625Q237.55263 345.3094 237.912 344.575Q238.27138 343.825 238.912 343.41876Q239.56825 342.9969 240.31825 342.9969Q241.55263 342.9969 242.24013 343.8094Q242.92763 344.6219 242.92763 346.1375L242.92763 346.59064L238.63075 346.59064Q238.662 347.52814 239.17763 348.10626Q239.70888 348.6844 240.52138 348.6844Q241.08388 348.6844 241.4745 348.45Q241.88075 348.21564 242.19325 347.825L242.8495 348.34064Q242.05263 349.575 240.45888 349.575ZM240.31825 343.8875Q239.662 343.8875 239.20888 344.3719Q238.77138 344.84064 238.67763 345.7L241.8495 345.7L241.8495 345.6219Q241.80263 344.79376 241.39638 344.34064Q241.00575 343.8875 240.31825 343.8875ZM246.89638 344.075Q246.64638 344.04376 246.36513 344.04376Q245.287 344.04376 244.912 344.95L244.912 349.45L243.83388 349.45L243.83388 343.10626L244.88075 343.10626L244.89638 343.84064Q245.42763 342.9969 246.412 342.9969Q246.7245 342.9969 246.89638 343.075L246.89638 344.075ZM248.8495 343.10626L248.88075 343.90314Q249.61513 342.9969 250.787 342.9969Q252.80263 342.9969 252.81825 345.2625L252.81825 349.45L251.7245 349.45L251.7245 345.2469Q251.7245 344.575 251.412 344.2469Q251.11513 343.91876 250.45888 343.91876Q249.92763 343.91876 249.52138 344.2Q249.13075 344.48126 248.912 344.9344L248.912 349.45L247.83388 349.45L247.83388 343.10626L248.8495 343.10626ZM254.537 346.21564Q254.537 345.29376 254.89638 344.54376Q255.27138 343.79376 255.92763 343.40314Q256.58386 342.9969 257.412 342.9969Q258.70886 342.9969 259.50574 343.8875Q260.31824 344.77814 260.31824 346.27814L260.31824 346.35626Q260.31824 347.27814 259.95886 348.0125Q259.5995 348.7469 258.94324 349.16876Q258.287 349.575 257.4276 349.575Q256.14636 349.575 255.33388 348.6844Q254.537 347.77814 254.537 346.29376L254.537 346.21564ZM255.63075 346.35626Q255.63075 347.40314 256.1151 348.04376Q256.6151 348.6844 257.4276 348.6844Q258.25574 348.6844 258.7401 348.04376Q259.2245 347.3875 259.2245 346.21564Q259.2245 345.1844 258.7245 344.54376Q258.2401 343.8875 257.412 343.8875Q256.6151 343.8875 256.1151 344.52814Q255.63075 345.15314 255.63075 346.35626ZM261.537 346.21564Q261.537 345.29376 261.89636 344.54376Q262.27136 343.79376 262.9276 343.40314Q263.58386 342.9969 264.412 342.9969Q265.70886 342.9969 266.50574 343.8875Q267.31824 344.77814 267.31824 346.27814L267.31824 346.35626Q267.31824 347.27814 266.95886 348.0125Q266.5995 348.7469 265.94324 349.16876Q265.287 349.575 264.4276 349.575Q263.14636 349.575 262.33386 348.6844Q261.537 347.77814 261.537 346.29376L261.537 346.21564ZM262.63074 346.35626Q262.63074 347.40314 263.1151 348.04376Q263.6151 348.6844 264.4276 348.6844Q265.25574 348.6844 265.7401 348.04376Q266.2245 347.3875 266.2245 346.21564Q266.2245 345.1844 265.7245 344.54376Q265.2401 343.8875 264.412 343.8875Q263.6151 343.8875 263.1151 344.52814Q262.63074 345.15314 262.63074 346.35626ZM269.8495 343.10626L269.88074 343.90314Q270.6151 342.9969 271.787 342.9969Q273.8026 342.9969 273.81824 345.2625L273.81824 349.45L272.7245 349.45L272.7245 345.2469Q272.7245 344.575 272.412 344.2469Q272.1151 343.91876 271.45886 343.91876Q270.9276 343.91876 270.52136 344.2Q270.13074 344.48126 269.912 344.9344L269.912 349.45L268.83386 349.45L268.83386 343.10626L269.8495 343.10626Z" fill-rule="nonzero"/><path fill="#757575" d="M332.7755 344.65314L333.588 344.65314Q334.36926 344.6375 334.80676 344.2469Q335.24426 343.85626 335.24426 343.1844Q335.24426 341.6844 333.74426 341.6844Q333.04114 341.6844 332.61926 342.09064Q332.213 342.4969 332.213 343.15314L331.11926 343.15314Q331.11926 342.1375 331.85364 341.46564Q332.60364 340.79376 333.74426 340.79376Q334.9474 340.79376 335.6349 341.4344Q336.3224 342.075 336.3224 343.21564Q336.3224 343.77814 335.963 344.29376Q335.60364 344.8094 334.97864 345.075Q335.68176 345.29376 336.05676 345.8094Q336.4474 346.325 336.4474 347.075Q336.4474 348.21564 335.6974 348.90314Q334.9474 349.575 333.74426 349.575Q332.55676 349.575 331.79114 348.91876Q331.04114 348.2625 331.04114 347.2L332.1349 347.2Q332.1349 347.8719 332.5724 348.27814Q333.0099 348.6844 333.7599 348.6844Q334.54114 348.6844 334.9474 348.27814Q335.36926 347.85626 335.36926 347.09064Q335.36926 346.35626 334.91614 345.96564Q334.463 345.5594 333.588 345.54376L332.7755 345.54376L332.7755 344.65314ZM338.338 348.8875Q338.338 348.60626 338.49426 348.41876Q338.66614 348.23126 338.99426 348.23126Q339.338 348.23126 339.5099 348.41876Q339.68176 348.60626 339.68176 348.8875Q339.68176 349.15314 339.5099 349.34064Q339.338 349.5125 338.99426 349.5125Q338.66614 349.5125 338.49426 349.34064Q338.338 349.15314 338.338 348.8875ZM349.30676 345.5125L345.60364 345.5125L345.60364 348.52814L349.9005 348.52814L349.9005 349.45L344.47864 349.45L344.47864 340.91876L349.85364 340.91876L349.85364 341.84064L345.60364 341.84064L345.60364 344.59064L349.30676 344.59064L349.30676 345.5125ZM353.4005 347.98126L354.97864 343.10626L356.088 343.10626L353.80676 349.45L352.97864 349.45L350.68176 343.10626L351.79114 343.10626L353.4005 347.98126ZM359.9474 349.575Q358.6505 349.575 357.838 348.73126Q357.04114 347.8719 357.04114 346.45L357.04114 346.2625Q357.04114 345.3094 357.4005 344.575Q357.7599 343.825 358.4005 343.41876Q359.05676 342.9969 359.80676 342.9969Q361.04114 342.9969 361.72864 343.8094Q362.41614 344.6219 362.41614 346.1375L362.41614 346.59064L358.11926 346.59064Q358.1505 347.52814 358.66614 348.10626Q359.1974 348.6844 360.0099 348.6844Q360.5724 348.6844 360.963 348.45Q361.36926 348.21564 361.68176 347.825L362.338 348.34064Q361.54114 349.575 359.9474 349.575ZM359.80676 343.8875Q359.1505 343.8875 358.6974 344.3719Q358.2599 344.84064 358.16614 345.7L361.338 345.7L361.338 345.6219Q361.29114 344.79376 360.8849 344.34064Q360.49426 343.8875 359.80676 343.8875ZM364.338 343.10626L364.36926 343.90314Q365.10364 342.9969 366.2755 342.9969Q368.29114 342.9969 368.30676 345.2625L368.30676 349.45L367.213 349.45L367.213 345.2469Q367.213 344.575 366.9005 344.2469Q366.60364 343.91876 365.9474 343.91876Q365.41614 343.91876 365.0099 344.2Q364.61926 344.48126 364.4005 344.9344L364.4005 349.45L363.3224 349.45L363.3224 343.10626L364.338 343.10626ZM371.49426 349.45L370.41614 349.45L370.41614 343.10626L371.49426 343.10626L371.49426 349.45ZM370.3224 341.4344Q370.3224 341.16876 370.47864 340.98126Q370.6505 340.79376 370.963 340.79376Q371.2755 340.79376 371.43176 340.98126Q371.60364 341.16876 371.60364 341.4344Q371.60364 341.6844 371.43176 341.8719Q371.2755 342.04376 370.963 342.04376Q370.6505 342.04376 370.47864 341.8719Q370.3224 341.6844 370.3224 341.4344ZM374.338 343.10626L374.36926 343.90314Q375.10364 342.9969 376.2755 342.9969Q378.29114 342.9969 378.30676 345.2625L378.30676 349.45L377.213 349.45L377.213 345.2469Q377.213 344.575 376.9005 344.2469Q376.60364 343.91876 375.9474 343.91876Q375.41614 343.91876 375.0099 344.2Q374.61926 344.48126 374.4005 344.9344L374.4005 349.45L373.3224 349.45L373.3224 343.10626L374.338 343.10626ZM380.05676 346.23126Q380.05676 344.7469 380.74426 343.8719Q381.43176 342.9969 382.55676 342.9969Q383.713 342.9969 384.36926 343.8094L384.41614 343.10626L385.41614 343.10626L385.41614 349.29376Q385.41614 350.52814 384.68176 351.23126Q383.9474 351.95 382.72864 351.95Q382.04114 351.95 381.3849 351.65314Q380.72864 351.35626 380.3849 350.85626L380.9474 350.2Q381.6349 351.0594 382.6505 351.0594Q383.43176 351.0594 383.86926 350.60626Q384.3224 350.16876 384.3224 349.35626L384.3224 348.8094Q383.66614 349.575 382.54114 349.575Q381.43176 349.575 380.74426 348.6844Q380.05676 347.77814 380.05676 346.23126ZM381.1505 346.35626Q381.1505 347.41876 381.588 348.04376Q382.0255 348.65314 382.8224 348.65314Q383.838 348.65314 384.3224 347.71564L384.3224 344.825Q383.8224 343.91876 382.8224 343.91876Q382.04114 343.91876 381.588 344.52814Q381.1505 345.1375 381.1505 346.35626Z" fill-rule="nonzero"/><path fill="#757575" d="M459.264 346.59064L460.4515 346.59064L460.4515 347.46564L459.264 347.46564L459.264 349.45L458.18588 349.45L458.18588 347.46564L454.29526 347.46564L454.29526 346.825L458.10776 340.91876L459.264 340.91876L459.264 346.59064ZM455.52963 346.59064L458.18588 346.59064L458.18588 342.40314L458.04526 342.6375L455.52963 346.59064ZM461.8265 348.8875Q461.8265 348.60626 461.98276 348.41876Q462.15463 348.23126 462.48276 348.23126Q462.8265 348.23126 462.99838 348.41876Q463.17026 348.60626 463.17026 348.8875Q463.17026 349.15314 462.99838 349.34064Q462.8265 349.5125 462.48276 349.5125Q462.15463 349.5125 461.98276 349.34064Q461.8265 349.15314 461.8265 348.8875ZM474.52963 349.45L473.40463 349.45L469.10776 342.8719L469.10776 349.45L467.96713 349.45L467.96713 340.91876L469.10776 340.91876L473.40463 347.52814L473.40463 340.91876L474.52963 340.91876L474.52963 349.45ZM477.98276 349.45L476.90463 349.45L476.90463 343.10626L477.98276 343.10626L477.98276 349.45ZM476.81088 341.4344Q476.81088 341.16876 476.96713 340.98126Q477.139 340.79376 477.4515 340.79376Q477.764 340.79376 477.92026 340.98126Q478.09213 341.16876 478.09213 341.4344Q478.09213 341.6844 477.92026 341.8719Q477.764 342.04376 477.4515 342.04376Q477.139 342.04376 476.96713 341.8719Q476.81088 341.6844 476.81088 341.4344ZM479.54526 346.23126Q479.54526 344.7469 480.23276 343.8719Q480.92026 342.9969 482.04526 342.9969Q483.2015 342.9969 483.85776 343.8094L483.90463 343.10626L484.90463 343.10626L484.90463 349.29376Q484.90463 350.52814 484.17026 351.23126Q483.43588 351.95 482.21713 351.95Q481.52963 351.95 480.87338 351.65314Q480.21713 351.35626 479.87338 350.85626L480.43588 350.2Q481.12338 351.0594 482.139 351.0594Q482.92026 351.0594 483.35776 350.60626Q483.81088 350.16876 483.81088 349.35626L483.81088 348.8094Q483.15463 349.575 482.02963 349.575Q480.92026 349.575 480.23276 348.6844Q479.54526 347.77814 479.54526 346.23126ZM480.639 346.35626Q480.639 347.41876 481.0765 348.04376Q481.514 348.65314 482.31088 348.65314Q483.3265 348.65314 483.81088 347.71564L483.81088 344.825Q483.31088 343.91876 482.31088 343.91876Q481.52963 343.91876 481.0765 344.52814Q480.639 345.1375 480.639 346.35626ZM487.889 343.8719Q488.60776 342.9969 489.764 342.9969Q491.77963 342.9969 491.79526 345.2625L491.79526 349.45L490.7015 349.45L490.7015 345.2469Q490.7015 344.575 490.389 344.2469Q490.09213 343.91876 489.43588 343.91876Q488.90463 343.91876 488.49838 344.2Q488.10776 344.48126 487.889 344.9344L487.889 349.45L486.81088 349.45L486.81088 340.45L487.889 340.45L487.889 343.8719ZM495.27963 341.575L495.27963 343.10626L496.4515 343.10626L496.4515 343.95L495.27963 343.95L495.27963 347.8719Q495.27963 348.2625 495.43588 348.45Q495.59213 348.6375 495.96713 348.6375Q496.15463 348.6375 496.48276 348.575L496.48276 349.45Q496.06088 349.575 495.65463 349.575Q494.93588 349.575 494.56088 349.1375Q494.18588 348.6844 494.18588 347.8719L494.18588 343.95L493.02963 343.95L493.02963 343.10626L494.18588 343.10626L494.18588 341.575L495.27963 341.575Z" fill-rule="nonzero"/><path fill="#4285f4" d="M233.0 21.05C233.0 20.497715 233.44771 20.05 234.0 20.05L244.0 20.05C244.55229 20.05 245.0 20.497715 245.0 21.05L245.0 31.05C245.0 31.602285 244.55229 32.05 244.0 32.05L234.0 32.05C233.44771 32.05 233.0 31.602285 233.0 31.05Z" fill-rule="nonzero"/><path fill="#757575" d="M258.8125 26.6125L255.10938 26.6125L255.10938 29.628124L259.40625 29.628124L259.40625 30.55L253.98438 30.55L253.98438 22.01875L259.35938 22.01875L259.35938 22.940624L255.10938 22.940624L255.10938 25.690624L258.8125 25.690624L258.8125 26.6125ZM266.17188 27.45625Q266.17188 28.89375 265.51562 29.784374Q264.85938 30.675 263.71875 30.675Q262.5625 30.675 261.90625 29.940624L261.90625 32.9875L260.82812 32.9875L260.82812 24.20625L261.8125 24.20625L261.85938 24.909374Q262.53125 24.096874 263.70312 24.096874Q264.84375 24.096874 265.5 24.95625Q266.17188 25.815624 266.17188 27.346874L266.17188 27.45625ZM265.09375 27.33125Q265.09375 26.253124 264.625 25.64375Q264.17188 25.01875 263.375 25.01875Q262.39062 25.01875 261.90625 25.878124L261.90625 28.909374Q262.39062 29.784374 263.39062 29.784374Q264.17188 29.784374 264.625 29.175Q265.09375 28.55 265.09375 27.33125ZM269.0 30.55L267.92188 30.55L267.92188 24.20625L269.0 24.20625L269.0 30.55ZM267.82812 22.534374Q267.82812 22.26875 267.98438 22.08125Q268.15625 21.89375 268.46875 21.89375Q268.78125 21.89375 268.9375 22.08125Q269.10938 22.26875 269.10938 22.534374Q269.10938 22.784374 268.9375 22.971874Q268.78125 23.14375 268.46875 23.14375Q268.15625 23.14375 267.98438 22.971874Q267.82812 22.784374 267.82812 22.534374ZM274.51562 28.8625Q274.51562 28.425 274.17188 28.190624Q273.84375 27.940624 273.01562 27.76875Q272.20312 27.596874 271.71875 27.346874Q271.23438 27.096874 271.0 26.76875Q270.78125 26.425 270.78125 25.95625Q270.78125 25.175 271.4375 24.64375Q272.09375 24.096874 273.125 24.096874Q274.20312 24.096874 274.85938 24.659374Q275.53125 25.20625 275.53125 26.065624L274.45312 26.065624Q274.45312 25.628124 274.0625 25.315624Q273.6875 24.9875 273.125 24.9875Q272.53125 24.9875 272.1875 25.253124Q271.85938 25.503124 271.85938 25.909374Q271.85938 26.3 272.17188 26.503124Q272.48438 26.70625 273.29688 26.89375Q274.10938 27.065624 274.60938 27.315624Q275.10938 27.565624 275.34375 27.925Q275.59375 28.284374 275.59375 28.784374Q275.59375 29.64375 274.90625 30.159374Q274.23438 30.675 273.15625 30.675Q272.39062 30.675 271.79688 30.409374Q271.21875 30.128124 270.89062 29.64375Q270.5625 29.159374 270.5625 28.596874L271.64062 28.596874Q271.67188 29.14375 272.07812 29.471874Q272.48438 29.784374 273.15625 29.784374Q273.76562 29.784374 274.14062 29.534374Q274.51562 29.284374 274.51562 28.8625ZM276.53125 27.315624Q276.53125 26.39375 276.89062 25.64375Q277.26562 24.89375 277.92188 24.503124Q278.57812 24.096874 279.40625 24.096874Q280.70312 24.096874 281.5 24.9875Q282.3125 25.878124 282.3125 27.378124L282.3125 27.45625Q282.3125 28.378124 281.95312 29.1125Q281.59375 29.846874 280.9375 30.26875Q280.28125 30.675 279.42188 30.675Q278.14062 30.675 277.32812 29.784374Q276.53125 28.878124 276.53125 27.39375L276.53125 27.315624ZM277.625 27.45625Q277.625 28.503124 278.10938 29.14375Q278.60938 29.784374 279.42188 29.784374Q280.25 29.784374 280.73438 29.14375Q281.21875 28.4875 281.21875 27.315624Q281.21875 26.284374 280.71875 25.64375Q280.23438 24.9875 279.40625 24.9875Q278.60938 24.9875 278.10938 25.628124Q277.625 26.253124 277.625 27.45625ZM283.5625 27.33125Q283.5625 25.8625 284.25 24.9875Q284.9375 24.096874 286.0625 24.096874Q287.17188 24.096874 287.82812 24.846874L287.82812 21.55L288.90625 21.55L288.90625 30.55L287.90625 30.55L287.85938 29.8625Q287.20312 30.675 286.04688 30.675Q284.95312 30.675 284.25 29.76875Q283.5625 28.8625 283.5625 27.409374L283.5625 27.33125ZM284.64062 27.45625Q284.64062 28.534374 285.07812 29.14375Q285.53125 29.753124 286.3125 29.753124Q287.34375 29.753124 287.82812 28.815624L287.82812 25.909374Q287.34375 25.01875 286.32812 25.01875Q285.53125 25.01875 285.07812 25.628124Q284.64062 26.2375 284.64062 27.45625ZM293.45312 30.675Q292.15625 30.675 291.34375 29.83125Q290.54688 28.971874 290.54688 27.55L290.54688 27.3625Q290.54688 26.409374 290.90625 25.675Q291.26562 24.925 291.90625 24.51875Q292.5625 24.096874 293.3125 24.096874Q294.54688 24.096874 295.23438 24.909374Q295.92188 25.721874 295.92188 27.2375L295.92188 27.690624L291.625 27.690624Q291.65625 28.628124 292.17188 29.20625Q292.70312 29.784374 293.51562 29.784374Q294.07812 29.784374 294.46875 29.55Q294.875 29.315624 295.1875 28.925L295.84375 29.440624Q295.04688 30.675 293.45312 30.675ZM293.3125 24.9875Q292.65625 24.9875 292.20312 25.471874Q291.76562 25.940624 291.67188 26.8L294.84375 26.8L294.84375 26.721874Q294.79688 25.89375 294.39062 25.440624Q294.0 24.9875 293.3125 24.9875Z" fill-rule="nonzero"/><path stroke="#db4437" stroke-width="4.0" stroke-linecap="butt" d="M312.0 26.05L324.0 26.05" fill-rule="nonzero"/><path fill="#757575" d="M336.125 27.096874L334.10938 27.096874L334.10938 30.55L332.98438 30.55L332.98438 22.01875L335.8125 22.01875Q337.25 22.01875 338.01562 22.675Q338.79688 23.33125 338.79688 24.58125Q338.79688 25.378124 338.35938 25.971874Q337.9375 26.565624 337.17188 26.8625L339.17188 30.471874L339.17188 30.55L337.96875 30.55L336.125 27.096874ZM334.10938 26.175L335.84375 26.175Q336.6875 26.175 337.17188 25.753124Q337.67188 25.315624 337.67188 24.58125Q337.67188 23.8 337.20312 23.378124Q336.73438 22.95625 335.84375 22.940624L334.10938 22.940624L334.10938 26.175ZM343.73438 30.55Q343.64062 30.3625 343.57812 29.878124Q342.82812 30.675 341.78125 30.675Q340.84375 30.675 340.23438 30.14375Q339.64062 29.6125 339.64062 28.784374Q339.64062 27.8 340.39062 27.253124Q341.14062 26.70625 342.51562 26.70625L343.5625 26.70625L343.5625 26.20625Q343.5625 25.64375 343.21875 25.315624Q342.89062 24.971874 342.21875 24.971874Q341.64062 24.971874 341.25 25.26875Q340.85938 25.55 340.85938 25.971874L339.76562 25.971874Q339.76562 25.4875 340.09375 25.05Q340.4375 24.6125 341.01562 24.3625Q341.59375 24.096874 342.28125 24.096874Q343.39062 24.096874 344.0 24.64375Q344.625 25.190624 344.65625 26.14375L344.65625 29.065624Q344.65625 29.940624 344.875 30.45625L344.875 30.55L343.73438 30.55ZM341.9375 29.721874Q342.45312 29.721874 342.90625 29.45625Q343.35938 29.190624 343.5625 28.76875L343.5625 27.471874L342.71875 27.471874Q340.71875 27.471874 340.71875 28.64375Q340.71875 29.14375 341.0625 29.440624Q341.40625 29.721874 341.9375 29.721874ZM348.29688 22.675L348.29688 24.20625L349.46875 24.20625L349.46875 25.05L348.29688 25.05L348.29688 28.971874Q348.29688 29.3625 348.45312 29.55Q348.60938 29.7375 348.98438 29.7375Q349.17188 29.7375 349.5 29.675L349.5 30.55Q349.07812 30.675 348.67188 30.675Q347.95312 30.675 347.57812 30.2375Q347.20312 29.784374 347.20312 28.971874L347.20312 25.05L346.04688 25.05L346.04688 24.20625L347.20312 24.20625L347.20312 22.675L348.29688 22.675ZM352.0 30.55L350.92188 30.55L350.92188 24.20625L352.0 24.20625L352.0 30.55ZM350.82812 22.534374Q350.82812 22.26875 350.98438 22.08125Q351.15625 21.89375 351.46875 21.89375Q351.78125 21.89375 351.9375 22.08125Q352.10938 22.26875 352.10938 22.534374Q352.10938 22.784374 351.9375 22.971874Q351.78125 23.14375 351.46875 23.14375Q351.15625 23.14375 350.98438 22.971874Q350.82812 22.784374 350.82812 22.534374ZM354.84375 24.20625L354.875 25.003124Q355.60938 24.096874 356.78125 24.096874Q358.79688 24.096874 358.8125 26.3625L358.8125 30.55L357.71875 30.55L357.71875 26.346874Q357.71875 25.675 357.40625 25.346874Q357.10938 25.01875 356.45312 25.01875Q355.92188 25.01875 355.51562 25.3Q355.125 25.58125 354.90625 26.034374L354.90625 30.55L353.82812 30.55L353.82812 24.20625L354.84375 24.20625ZM360.5625 27.33125Q360.5625 25.846874 361.25 24.971874Q361.9375 24.096874 363.0625 24.096874Q364.21875 24.096874 364.875 24.909374L364.92188 24.20625L365.92188 24.20625L365.92188 30.39375Q365.92188 31.628124 365.1875 32.33125Q364.45312 33.05 363.23438 33.05Q362.54688 33.05 361.89062 32.753124Q361.23438 32.45625 360.89062 31.95625L361.45312 31.3Q362.14062 32.159374 363.15625 32.159374Q363.9375 32.159374 364.375 31.70625Q364.82812 31.26875 364.82812 30.45625L364.82812 29.909374Q364.17188 30.675 363.04688 30.675Q361.9375 30.675 361.25 29.784374Q360.5625 28.878124 360.5625 27.33125ZM361.65625 27.45625Q361.65625 28.51875 362.09375 29.14375Q362.53125 29.753124 363.32812 29.753124Q364.34375 29.753124 364.82812 28.815624L364.82812 25.925Q364.32812 25.01875 363.32812 25.01875Q362.54688 25.01875 362.09375 25.628124Q361.65625 26.2375 361.65625 27.45625Z" fill-rule="nonzero"/></svg>