<svg version="1.1" viewBox="0.0 0.0 600.0 371.0" fill="none" stroke="none" stroke-linecap="square" stroke-miterlimit="10" width="600" height="371" xmlns:xlink="http://www.w3.org/1999/xlink" xmlns="http://www.w3.org/2000/svg"><path fill="#ffffff" d="M0 0L600.0 0L600.0 371.0L0 371.0L0 0Z" fill-rule="nonzero"/><path stroke="#333333" stroke-width="1.0" stroke-linecap="butt" d="M45.5 316.5L554.5 316.5" fill-rule="nonzero"/><path stroke="#cccccc" stroke-width="1.0" stroke-linecap="butt" d="M45.5 250.5L554.5 250.5" fill-rule="nonzero"/><path stroke="#cccccc" stroke-width="1.0" stroke-linecap="butt" d="M45.5 184.5L554.5 184.5" fill-rule="nonzero"/><path stroke="#cccccc" stroke-width="1.0" stroke-linecap="butt" d="M45.5 119.5L554.5 119.5" fill-rule="nonzero"/><path stroke="#cccccc" stroke-width="1.0" stroke-linecap="butt" d="M45.5 53.5L554.5 53.5" fill-rule="nonzero"/><clipPath id="id_0"><path d="M45.55 53.416668L554.45 53.416668L554.45 316.45L45.55 316.45L45.55 53.416668Z" clip-rule="nonzero"/></clipPath><path stroke="#000000" stroke-width="0.0" stroke-linecap="butt" stroke-opacity="0.0" clip-path="url(#id_0)" d="M115.0 316.0L70.0 316.0L70.0 108.0C70.0 106.89543 70.89543 106.0 72.0 106.0L113.0 106.0C114.10457 106.0 115.0 106.89543 115.0 108.0Z" fill-rule="nonzero"/><path fill="#4285f4" clip-path="url(#id_0)" d="M115.0 316.0L70.0 316.0L70.0 108.0C70.0 106.89543 70.89543 106.0 72.0 106.0L113.0 106.0C114.10457 106.0 115.0 106.89543 115.0 108.0Z" fill-rule="nonzero"/><path stroke="#000000" stroke-width="0.0" stroke-linecap="butt" stroke-opacity="0.0" clip-path="url(#id_0)" d="M185.0 316.0L140.0 316.0L140.0 134.0C140.0 132.89543 140.89543 132.0 142.0 132.0L183.0 132.0C184.10457 132.0 185.0 132.89543 185.0 134.0Z" fill-rule="nonzero"/><path fill="#4285f4" clip-path="url(#id_0)" d="M185.0 316.0L140.0 316.0L140.0 134.0C140.0 132.89543 140.89543 132.0 142.0 132.0L183.0 132.0C184.10457 132.0 185.0 132.89543 185.0 134.0Z" fill-rule="nonzero"/><path stroke="#000000" stroke-width="0.0" stroke-linecap="butt" stroke-opacity="0.0" clip-path="url(#id_0)" d="M254.0 316.0L209.0 316.0L209.0 174.0C209.0 172.89543 209.89543 172.0 211.0 172.0L252.0 172.0C253.10457 172.0 254.0 172.89543 254.0 174.0Z" fill-rule="nonzero"/><path fill="#4285f4" clip-path="url(#id_0)" d="M254.0 316.0L209.0 316.0L209.0 174.0C209.0 172.89543 209.89543 172.0 211.0 172.0L252.0 172.0C253.10457 172.0 254.0 172.89543 254.0 174.0Z" fill-rule="nonzero"/><path stroke="#000000" stroke-width="0.0" stroke-linecap="butt" stroke-opacity="0.0" clip-path="url(#id_0)" d="M323.0 316.0L278.0 316.0L278.0 187.0C278.0 185.89543 278.89542 185.0 280.0 185.0L321.0 185.0C322.10458 185.0 323.0 185.89543 323.0 187.0Z" fill-rule="nonzero"/><path fill="#4285f4" clip-path="url(#id_0)" d="M323.0 316.0L278.0 316.0L278.0 187.0C278.0 185.89543 278.89542 185.0 280.0 185.0L321.0 185.0C322.10458 185.0 323.0 185.89543 323.0 187.0Z" fill-rule="nonzero"/><path stroke="#000000" stroke-width="0.0" stroke-linecap="butt" stroke-opacity="0.0" clip-path="url(#id_0)" d="M392.0 316.0L347.0 316.0L347.0 134.0C347.0 132.89543 347.89542 132.0 349.0 132.0L390.0 132.0C391.10458 132.0 392.0 132.89543 392.0 134.0Z" fill-rule="nonzero"/><path fill="#4285f4" clip-path="url(#id_0)" d="M392.0 316.0L347.0 316.0L347.0 134.0C347.0 132.89543 347.89542 132.0 349.0 132.0L390.0 132.0C391.10458 132.0 392.0 132.89543 392.0 134.0Z" fill-rule="nonzero"/><path stroke="#000000" stroke-width="0.0" stroke-linecap="butt" stroke-opacity="0.0" clip-path="url(#id_0)" d="M461.0 316.0L416.0 316.0L416.0 161.0C416.0 159.89543 416.89542 159.0 418.0 159.0L459.0 159.0C460.10458 159.0 461.0 159.89543 461.0 161.0Z" fill-rule="nonzero"/><path fill="#4285f4" clip-path="url(#id_0)" d="M461.0 316.0L416.0 316.0L416.0 161.0C416.0 159.89543 416.89542 159.0 418.0 159.0L459.0 159.0C460.10458 159.0 461.0 159.89543 461.0 161.0Z" fill-rule="nonzero"/><path stroke="#000000" stroke-width="0.0" stroke-linecap="butt" stroke-opacity="0.0" clip-path="url(#id_0)" d="M531.0 316.0L486.0 316.0L486.0 305.0C486.0 303.89542 486.89542 303.0 488.0 303.0L529.0 303.0C530.10455 303.0 531.0 303.89542 531.0 305.0Z" fill-rule="nonzero"/><path fill="#4285f4" clip-path="url(#id_0)" d="M531.0 316.0L486.0 316.0L486.0 305.0C486.0 303.89542 486.89542 303.0 488.0 303.0L529.0 303.0C530.10455 303.0 531.0 303.89542 531.0 305.0Z" fill-rule="nonzero"/><path stroke="#db4437" stroke-width="2.0" stroke-linecap="butt" clip-path="url(#id_0)" d="M92.28571 89.58375L161.5238 106.02333L230.7619 177.7597L300.0 155.99966L369.2381 83.477615L438.4762 110.40722L507.7143 290.14667" fill-rule="nonzero"/><path fill="#000000" fill-opacity="0.0" clip-path="url(#id_0)" d="M95.28571 89.58375C95.28571 91.2406 93.942566 92.58375 92.28571 92.58375C90.62886 92.58375 89.28571 91.2406 89.28571 89.58375C89.28571 87.926895 90.62886 86.58375 92.28571 86.58375C93.942566 86.58375 95.28571 87.926895 95.28571 89.58375Z" fill-rule="nonzero"/><path fill="#000000" fill-opacity="0.0" clip-path="url(#id_0)" d="M164.5238 106.02333C164.5238 107.68019 163.18066 109.02333 161.5238 109.02333C159.86696 109.02333 158.5238 107.68019 158.5238 106.02333C158.5238 104.36648 159.86696 103.02333 161.5238 103.02333C163.18066 103.02333 164.5238 104.36648 164.5238 106.02333Z" fill-rule="nonzero"/><path fill="#000000" fill-opacity="0.0" clip-path="url(#id_0)" d="M233.7619 177.7597C233.7619 179.41655 232.41876 180.7597 230.7619 180.7597C229.10506 180.7597 227.7619 179.41655 227.7619 177.7597C227.7619 176.10284 229.10506 174.7597 230.7619 174.7597C232.41876 174.7597 233.7619 176.10284 233.7619 177.7597Z" fill-rule="nonzero"/><path fill="#000000" fill-opacity="0.0" clip-path="url(#id_0)" d="M303.0 155.99966C303.0 157.65652 301.65686 158.99966 300.0 158.99966C298.34314 158.99966 297.0 157.65652 297.0 155.99966C297.0 154.34282 298.34314 152.99966 300.0 152.99966C301.65686 152.99966 303.0 154.34282 303.0 155.99966Z" fill-rule="nonzero"/><path fill="#000000" fill-opacity="0.0" clip-path="url(#id_0)" d="M372.2381 83.477615C372.2381 85.134476 370.89496 86.477615 369.2381 86.477615C367.58124 86.477615 366.2381 85.134476 366.2381 83.477615C366.2381 81.82076 367.58124 80.477615 369.2381 80.477615C370.89496 80.477615 372.2381 81.82076 372.2381 83.477615Z" fill-rule="nonzero"/><path fill="#000000" fill-opacity="0.0" clip-path="url(#id_0)" d="M441.4762 110.40722C441.4762 112.06408 440.13306 113.40722 438.4762 113.40722C436.81934 113.40722 435.4762 112.06408 435.4762 110.40722C435.4762 108.75037 436.81934 107.40722 438.4762 107.40722C440.13306 107.40722 441.4762 108.75037 441.4762 110.40722Z" fill-rule="nonzero"/><path fill="#000000" fill-opacity="0.0" clip-path="url(#id_0)" d="M510.7143 290.14667C510.7143 291.80353 509.37115 293.14667 507.7143 293.14667C506.05743 293.14667 504.7143 291.80353 504.7143 290.14667C504.7143 288.4898 506.05743 287.14667 507.7143 287.14667C509.37115 287.14667 510.7143 288.4898 510.7143 290.14667Z" fill-rule="nonzero"/><path fill="#757575" d="M38.6125 317.3094Q38.6125 319.21564 37.95625 320.15314Q37.315624 321.075 35.925 321.075Q34.565624 321.075 33.909374 320.16876Q33.253124 319.2625 33.221874 317.45L33.221874 316.0125Q33.221874 314.1219 33.8625 313.21564Q34.51875 312.29376 35.909374 312.29376Q37.284374 312.29376 37.940624 313.1844Q38.596874 314.0594 38.6125 315.90314L38.6125 317.3094ZM37.51875 315.825Q37.51875 314.45 37.128124 313.825Q36.753124 313.1844 35.909374 313.1844Q35.08125 313.1844 34.690624 313.825Q34.315624 314.45 34.315624 315.7469L34.315624 317.48126Q34.315624 318.85626 34.70625 319.52814Q35.1125 320.1844 35.925 320.1844Q36.721874 320.1844 37.1125 319.5594Q37.503124 318.9344 37.51875 317.60626L37.51875 315.825Z" fill-rule="nonzero"/><path fill="#757575" d="M33.753124 250.91042L34.190624 246.66042L38.565624 246.66042L38.565624 247.66042L35.1125 247.66042L34.846874 249.98854Q35.4875 249.61354 36.284374 249.61354Q37.440624 249.61354 38.128124 250.39479Q38.815624 251.16042 38.815624 252.47292Q38.815624 253.78542 38.096874 254.55104Q37.39375 255.31667 36.1125 255.31667Q34.9875 255.31667 34.26875 254.69167Q33.55 254.05104 33.45625 252.94167L34.471874 252.94167Q34.58125 253.67604 35.003124 254.05104Q35.425 254.42604 36.1125 254.42604Q36.8625 254.42604 37.3 253.91042Q37.7375 253.39479 37.7375 252.48854Q37.7375 251.62917 37.26875 251.11354Q36.8 250.59792 36.01875 250.59792Q35.315624 250.59792 34.909374 250.89479L34.628124 251.12917L33.753124 250.91042Z" fill-rule="nonzero"/><path fill="#757575" d="M29.815624 189.43333L28.7375 189.43333L28.7375 182.21458L26.55 183.01146L26.55 182.02708L29.659374 180.85521L29.815624 180.85521L29.815624 189.43333ZM38.6125 185.79271Q38.6125 187.69896 37.95625 188.63646Q37.315624 189.55833 35.925 189.55833Q34.565624 189.55833 33.909374 188.65208Q33.253124 187.74583 33.221874 185.93333L33.221874 184.49583Q33.221874 182.60521 33.8625 181.69896Q34.51875 180.77708 35.909374 180.77708Q37.284374 180.77708 37.940624 181.66771Q38.596874 182.54271 38.6125 184.38646L38.6125 185.79271ZM37.51875 184.30833Q37.51875 182.93333 37.128124 182.30833Q36.753124 181.66771 35.909374 181.66771Q35.08125 181.66771 34.690624 182.30833Q34.315624 182.93333 34.315624 184.23021L34.315624 185.96458Q34.315624 187.33958 34.70625 188.01146Q35.1125 188.66771 35.925 188.66771Q36.721874 188.66771 37.1125 188.04271Q37.503124 187.41771 37.51875 186.08958L37.51875 184.30833Z" fill-rule="nonzero"/><path fill="#757575" d="M29.815624 123.675L28.7375 123.675L28.7375 116.45625L26.55 117.25313L26.55 116.26875L29.659374 115.09688L29.815624 115.09688L29.815624 123.675ZM33.753124 119.39375L34.190624 115.14375L38.565624 115.14375L38.565624 116.14375L35.1125 116.14375L34.846874 118.47188Q35.4875 118.09688 36.284374 118.09688Q37.440624 118.09688 38.128124 118.87813Q38.815624 119.64375 38.815624 120.95625Q38.815624 122.26875 38.096874 123.03438Q37.39375 123.8 36.1125 123.8Q34.9875 123.8 34.26875 123.175Q33.55 122.53438 33.45625 121.425L34.471874 121.425Q34.58125 122.15938 35.003124 122.53438Q35.425 122.90938 36.1125 122.90938Q36.8625 122.90938 37.3 122.39375Q37.7375 121.87813 37.7375 120.97188Q37.7375 120.1125 37.26875 119.59688Q36.8 119.08125 36.01875 119.08125Q35.315624 119.08125 34.909374 119.37813L34.628124 119.6125L33.753124 119.39375Z" fill-rule="nonzero"/><path fill="#757575" d="M31.846874 57.916668L26.253124 57.916668L26.253124 57.135418L29.20625 53.854168Q29.8625 53.104168 30.1125 52.651043Q30.3625 52.182293 30.3625 51.682293Q30.3625 51.010418 29.95625 50.588543Q29.565624 50.151043 28.878124 50.151043Q28.08125 50.151043 27.628124 50.619793Q27.175 51.072918 27.175 51.901043L26.096874 51.901043Q26.096874 50.713543 26.846874 49.994793Q27.6125 49.260418 28.878124 49.260418Q30.08125 49.260418 30.76875 49.885418Q31.45625 50.510418 31.45625 51.557293Q31.45625 52.807293 29.846874 54.557293L27.565624 57.026043L31.846874 57.026043L31.846874 57.916668ZM38.6125 54.276043Q38.6125 56.182293 37.95625 57.119793Q37.315624 58.041668 35.925 58.041668Q34.565624 58.041668 33.909374 57.135418Q33.253124 56.229168 33.221874 54.416668L33.221874 52.979168Q33.221874 51.088543 33.8625 50.182293Q34.51875 49.260418 35.909374 49.260418Q37.284374 49.260418 37.940624 50.151043Q38.596874 51.026043 38.6125 52.869793L38.6125 54.276043ZM37.51875 52.791668Q37.51875 51.416668 37.128124 50.791668Q36.753124 50.151043 35.909374 50.151043Q35.08125 50.151043 34.690624 50.791668Q34.315624 51.416668 34.315624 52.713543L34.315624 54.447918Q34.315624 55.822918 34.70625 56.494793Q35.1125 57.151043 35.925 57.151043Q36.721874 57.151043 37.1125 56.526043Q37.503124 55.901043 37.51875 54.572918L37.51875 52.791668Z" fill-rule="nonzero"/><path fill="#757575" d="M566.66876 313.02814L563.1375 320.95L561.9969 320.95L565.5125 313.3094L560.90314 313.3094L560.90314 312.41876L566.66876 312.41876L566.66876 313.02814ZM568.29376 320.3875Q568.29376 320.10626 568.45 319.91876Q568.6219 319.73126 568.95 319.73126Q569.29376 319.73126 569.46564 319.91876Q569.6375 320.10626 569.6375 320.3875Q569.6375 320.65314 569.46564 320.84064Q569.29376 321.0125 568.95 321.0125Q568.6219 321.0125 568.45 320.84064Q568.29376 320.65314 568.29376 320.3875ZM571.65314 316.66876L572.09064 312.41876L576.46564 312.41876L576.46564 313.41876L573.0125 313.41876L572.7469 315.7469Q573.3875 315.3719 574.1844 315.3719Q575.34064 315.3719 576.02814 316.15314Q576.71564 316.91876 576.71564 318.23126Q576.71564 319.54376 575.9969 320.3094Q575.29376 321.075 574.0125 321.075Q572.8875 321.075 572.16876 320.45Q571.45 319.8094 571.35626 318.7L572.3719 318.7Q572.48126 319.4344 572.90314 319.8094Q573.325 320.1844 574.0125 320.1844Q574.7625 320.1844 575.2 319.66876Q575.6375 319.15314 575.6375 318.2469Q575.6375 317.3875 575.16876 316.8719Q574.7 316.35626 573.91876 316.35626Q573.21564 316.35626 572.8094 316.65314L572.52814 316.8875L571.65314 316.66876Z" fill-rule="nonzero"/><path fill="#757575" d="M566.66876 247.26979L563.1375 255.19167L561.9969 255.19167L565.5125 247.55104L560.90314 247.55104L560.90314 246.66042L566.66876 246.66042L566.66876 247.26979ZM568.29376 254.62917Q568.29376 254.34792 568.45 254.16042Q568.6219 253.97292 568.95 253.97292Q569.29376 253.97292 569.46564 254.16042Q569.6375 254.34792 569.6375 254.62917Q569.6375 254.89479 569.46564 255.08229Q569.29376 255.25417 568.95 255.25417Q568.6219 255.25417 568.45 255.08229Q568.29376 254.89479 568.29376 254.62917ZM576.34064 248.87917Q576.34064 249.51979 575.9969 250.01979Q575.65314 250.51979 575.09064 250.80104Q575.7469 251.08229 576.1375 251.64479Q576.52814 252.19167 576.52814 252.89479Q576.52814 253.98854 575.77814 254.66042Q575.04376 255.31667 573.825 255.31667Q572.59064 255.31667 571.84064 254.66042Q571.10626 253.98854 571.10626 252.89479Q571.10626 252.19167 571.48126 251.64479Q571.85626 251.08229 572.52814 250.80104Q571.96564 250.51979 571.6375 250.01979Q571.3094 249.51979 571.3094 248.87917Q571.3094 247.80104 571.9969 247.17604Q572.6844 246.53542 573.825 246.53542Q574.95 246.53542 575.6375 247.17604Q576.34064 247.80104 576.34064 248.87917ZM575.45 252.86354Q575.45 252.14479 574.9969 251.70729Q574.54376 251.25417 573.8094 251.25417Q573.075 251.25417 572.6219 251.70729Q572.1844 252.14479 572.1844 252.87917Q572.1844 253.59792 572.6219 254.01979Q573.0594 254.42604 573.825 254.42604Q574.575 254.42604 575.0125 254.00417Q575.45 253.58229 575.45 252.86354ZM573.825 247.42604Q573.1844 247.42604 572.77814 247.83229Q572.3875 248.22292 572.3875 248.91042Q572.3875 249.55104 572.77814 249.95729Q573.16876 250.36354 573.8094 250.36354Q574.46564 250.36354 574.85626 249.95729Q575.2469 249.55104 575.2469 248.91042Q575.2469 248.25417 574.84064 247.84792Q574.4344 247.42604 573.825 247.42604Z" fill-rule="nonzero"/><path fill="#757575" d="M566.34064 183.12083Q566.34064 183.76146 565.9969 184.26146Q565.65314 184.76146 565.09064 185.04271Q565.7469 185.32396 566.1375 185.88646Q566.52814 186.43333 566.52814 187.13646Q566.52814 188.23021 565.77814 188.90208Q565.04376 189.55833 563.825 189.55833Q562.59064 189.55833 561.84064 188.90208Q561.10626 188.23021 561.10626 187.13646Q561.10626 186.43333 561.48126 185.88646Q561.85626 185.32396 562.52814 185.04271Q561.96564 184.76146 561.6375 184.26146Q561.3094 183.76146 561.3094 183.12083Q561.3094 182.04271 561.9969 181.41771Q562.6844 180.77708 563.825 180.77708Q564.95 180.77708 565.6375 181.41771Q566.34064 182.04271 566.34064 183.12083ZM565.45 187.10521Q565.45 186.38646 564.9969 185.94896Q564.54376 185.49583 563.8094 185.49583Q563.075 185.49583 562.6219 185.94896Q562.1844 186.38646 562.1844 187.12083Q562.1844 187.83958 562.6219 188.26146Q563.0594 188.66771 563.825 188.66771Q564.575 188.66771 565.0125 188.24583Q565.45 187.82396 565.45 187.10521ZM563.825 181.66771Q563.1844 181.66771 562.77814 182.07396Q562.3875 182.46458 562.3875 183.15208Q562.3875 183.79271 562.77814 184.19896Q563.16876 184.60521 563.8094 184.60521Q564.46564 184.60521 564.85626 184.19896Q565.2469 183.79271 565.2469 183.15208Q565.2469 182.49583 564.84064 182.08958Q564.4344 181.66771 563.825 181.66771ZM568.29376 188.87083Q568.29376 188.58958 568.45 188.40208Q568.6219 188.21458 568.95 188.21458Q569.29376 188.21458 569.46564 188.40208Q569.6375 188.58958 569.6375 188.87083Q569.6375 189.13646 569.46564 189.32396Q569.29376 189.49583 568.95 189.49583Q568.6219 189.49583 568.45 189.32396Q568.29376 189.13646 568.29376 188.87083ZM576.5125 185.79271Q576.5125 187.69896 575.85626 188.63646Q575.21564 189.55833 573.825 189.55833Q572.46564 189.55833 571.8094 188.65208Q571.15314 187.74583 571.1219 185.93333L571.1219 184.49583Q571.1219 182.60521 571.7625 181.69896Q572.41876 180.77708 573.8094 180.77708Q575.1844 180.77708 575.84064 181.66771Q576.4969 182.54271 576.5125 184.38646L576.5125 185.79271ZM575.41876 184.30833Q575.41876 182.93333 575.02814 182.30833Q574.65314 181.66771 573.8094 181.66771Q572.98126 181.66771 572.59064 182.30833Q572.21564 182.93333 572.21564 184.23021L572.21564 185.96458Q572.21564 187.33958 572.60626 188.01146Q573.0125 188.66771 573.825 188.66771Q574.6219 188.66771 575.0125 188.04271Q575.40314 187.41771 575.41876 186.08958L575.41876 184.30833Z" fill-rule="nonzero"/><path fill="#757575" d="M566.34064 117.3625Q566.34064 118.00313 565.9969 118.50313Q565.65314 119.00313 565.09064 119.28438Q565.7469 119.56563 566.1375 120.12813Q566.52814 120.675 566.52814 121.37813Q566.52814 122.47188 565.77814 123.14375Q565.04376 123.8 563.825 123.8Q562.59064 123.8 561.84064 123.14375Q561.10626 122.47188 561.10626 121.37813Q561.10626 120.675 561.48126 120.12813Q561.85626 119.56563 562.52814 119.28438Q561.96564 119.00313 561.6375 118.50313Q561.3094 118.00313 561.3094 117.3625Q561.3094 116.28438 561.9969 115.65938Q562.6844 115.01875 563.825 115.01875Q564.95 115.01875 565.6375 115.65938Q566.34064 116.28438 566.34064 117.3625ZM565.45 121.34688Q565.45 120.62813 564.9969 120.19063Q564.54376 119.7375 563.8094 119.7375Q563.075 119.7375 562.6219 120.19063Q562.1844 120.62813 562.1844 121.3625Q562.1844 122.08125 562.6219 122.50313Q563.0594 122.90938 563.825 122.90938Q564.575 122.90938 565.0125 122.4875Q565.45 122.06563 565.45 121.34688ZM563.825 115.90938Q563.1844 115.90938 562.77814 116.31563Q562.3875 116.70625 562.3875 117.39375Q562.3875 118.03438 562.77814 118.44063Q563.16876 118.84688 563.8094 118.84688Q564.46564 118.84688 564.85626 118.44063Q565.2469 118.03438 565.2469 117.39375Q565.2469 116.7375 564.84064 116.33125Q564.4344 115.90938 563.825 115.90938ZM568.29376 123.1125Q568.29376 122.83125 568.45 122.64375Q568.6219 122.45625 568.95 122.45625Q569.29376 122.45625 569.46564 122.64375Q569.6375 122.83125 569.6375 123.1125Q569.6375 123.37813 569.46564 123.56563Q569.29376 123.7375 568.95 123.7375Q568.6219 123.7375 568.45 123.56563Q568.29376 123.37813 568.29376 123.1125ZM572.73126 118.87813L573.54376 118.87813Q574.325 118.8625 574.7625 118.47188Q575.2 118.08125 575.2 117.40938Q575.2 115.90938 573.7 115.90938Q572.9969 115.90938 572.575 116.31563Q572.16876 116.72188 572.16876 117.37813L571.075 117.37813Q571.075 116.3625 571.8094 115.69063Q572.5594 115.01875 573.7 115.01875Q574.90314 115.01875 575.59064 115.65938Q576.27814 116.3 576.27814 117.44063Q576.27814 118.00313 575.91876 118.51875Q575.5594 119.03438 574.9344 119.3Q575.6375 119.51875 576.0125 120.03438Q576.40314 120.55 576.40314 121.3Q576.40314 122.44063 575.65314 123.12813Q574.90314 123.8 573.7 123.8Q572.5125 123.8 571.7469 123.14375Q570.9969 122.4875 570.9969 121.425L572.09064 121.425Q572.09064 122.09688 572.52814 122.50313Q572.96564 122.90938 573.71564 122.90938Q574.4969 122.90938 574.90314 122.50313Q575.325 122.08125 575.325 121.31563Q575.325 120.58125 574.8719 120.19063Q574.41876 119.78438 573.54376 119.76875L572.73126 119.76875L572.73126 118.87813Z" fill-rule="nonzero"/><path fill="#757575" d="M566.34064 51.604168Q566.34064 52.244793 565.9969 52.744793Q565.65314 53.244793 565.09064 53.526043Q565.7469 53.807293 566.1375 54.369793Q566.52814 54.916668 566.52814 55.619793Q566.52814 56.713543 565.77814 57.385418Q565.04376 58.041668 563.825 58.041668Q562.59064 58.041668 561.84064 57.385418Q561.10626 56.713543 561.10626 55.619793Q561.10626 54.916668 561.48126 54.369793Q561.85626 53.807293 562.52814 53.526043Q561.96564 53.244793 561.6375 52.744793Q561.3094 52.244793 561.3094 51.604168Q561.3094 50.526043 561.9969 49.901043Q562.6844 49.260418 563.825 49.260418Q564.95 49.260418 565.6375 49.901043Q566.34064 50.526043 566.34064 51.604168ZM565.45 55.588543Q565.45 54.869793 564.9969 54.432293Q564.54376 53.979168 563.8094 53.979168Q563.075 53.979168 562.6219 54.432293Q562.1844 54.869793 562.1844 55.604168Q562.1844 56.322918 562.6219 56.744793Q563.0594 57.151043 563.825 57.151043Q564.575 57.151043 565.0125 56.729168Q565.45 56.307293 565.45 55.588543ZM563.825 50.151043Q563.1844 50.151043 562.77814 50.557293Q562.3875 50.947918 562.3875 51.635418Q562.3875 52.276043 562.77814 52.682293Q563.16876 53.088543 563.8094 53.088543Q564.46564 53.088543 564.85626 52.682293Q565.2469 52.276043 565.2469 51.635418Q565.2469 50.979168 564.84064 50.572918Q564.4344 50.151043 563.825 50.151043ZM568.29376 57.354168Q568.29376 57.072918 568.45 56.885418Q568.6219 56.697918 568.95 56.697918Q569.29376 56.697918 569.46564 56.885418Q569.6375 57.072918 569.6375 57.354168Q569.6375 57.619793 569.46564 57.807293Q569.29376 57.979168 568.95 57.979168Q568.6219 57.979168 568.45 57.807293Q568.29376 57.619793 568.29376 57.354168ZM571.65314 53.635418L572.09064 49.385418L576.46564 49.385418L576.46564 50.385418L573.0125 50.385418L572.7469 52.713543Q573.3875 52.338543 574.1844 52.338543Q575.34064 52.338543 576.02814 53.119793Q576.71564 53.885418 576.71564 55.197918Q576.71564 56.510418 575.9969 57.276043Q575.29376 58.041668 574.0125 58.041668Q572.8875 58.041668 572.16876 57.416668Q571.45 56.776043 571.35626 55.666668L572.3719 55.666668Q572.48126 56.401043 572.90314 56.776043Q573.325 57.151043 574.0125 57.151043Q574.7625 57.151043 575.2 56.635418Q575.6375 56.119793 575.6375 55.213543Q575.6375 54.354168 575.16876 53.838543Q574.7 53.322918 573.91876 53.322918Q573.21564 53.322918 572.8094 53.619793L572.52814 53.854168L571.65314 53.635418Z" fill-rule="nonzero"/><path fill="#757575" d="M68.05134 334.45L66.97321 334.45L66.97321 327.23126L64.78571 328.02814L64.78571 327.04376L67.89509 325.8719L68.05134 325.8719L68.05134 334.45ZM71.62946 333.8875Q71.62946 333.60626 71.78571 333.41876Q71.95759 333.23126 72.28571 333.23126Q72.62946 333.23126 72.80134 333.41876Q72.97321 333.60626 72.97321 333.8875Q72.97321 334.15314 72.80134 334.34064Q72.62946 334.5125 72.28571 334.5125Q71.95759 334.5125 71.78571 334.34064Q71.62946 334.15314 71.62946 333.8875ZM79.22321 325.91876L82.02009 332.8719L84.80134 325.91876L86.27009 325.91876L86.27009 334.45L85.14509 334.45L85.14509 331.1219L85.25446 327.54376L82.44196 334.45L81.58259 334.45L78.78571 327.5594L78.89509 331.1219L78.89509 334.45L77.77009 334.45L77.77009 325.91876L79.22321 325.91876ZM87.31696 331.21564Q87.31696 330.29376 87.67634 329.54376Q88.05134 328.79376 88.70759 328.40314Q89.36384 327.9969 90.19196 327.9969Q91.48884 327.9969 92.28571 328.8875Q93.09821 329.77814 93.09821 331.27814L93.09821 331.35626Q93.09821 332.27814 92.73884 333.0125Q92.37946 333.7469 91.72321 334.16876Q91.06696 334.575 90.20759 334.575Q88.92634 334.575 88.11384 333.6844Q87.31696 332.77814 87.31696 331.29376L87.31696 331.21564ZM88.41071 331.35626Q88.41071 332.40314 88.89509 333.04376Q89.39509 333.6844 90.20759 333.6844Q91.03571 333.6844 91.52009 333.04376Q92.00446 332.3875 92.00446 331.21564Q92.00446 330.1844 91.50446 329.54376Q91.02009 328.8875 90.19196 328.8875Q89.39509 328.8875 88.89509 329.52814Q88.41071 330.15314 88.41071 331.35626ZM95.62946 328.10626L95.66071 328.90314Q96.39509 327.9969 97.56696 327.9969Q99.58259 327.9969 99.59821 330.2625L99.59821 334.45L98.50446 334.45L98.50446 330.2469Q98.50446 329.575 98.19196 329.2469Q97.89509 328.91876 97.23884 328.91876Q96.70759 328.91876 96.30134 329.2Q95.91071 329.48126 95.69196 329.9344L95.69196 334.45L94.61384 334.45L94.61384 328.10626L95.62946 328.10626ZM101.34821 331.23126Q101.34821 329.7625 102.03571 328.8875Q102.72321 327.9969 103.84821 327.9969Q104.95759 327.9969 105.61384 328.7469L105.61384 325.45L106.69196 325.45L106.69196 334.45L105.69196 334.45L105.64509 333.7625Q104.98884 334.575 103.83259 334.575Q102.73884 334.575 102.03571 333.66876Q101.34821 332.7625 101.34821 331.3094L101.34821 331.23126ZM102.42634 331.35626Q102.42634 332.4344 102.86384 333.04376Q103.31696 333.65314 104.09821 333.65314Q105.12946 333.65314 105.61384 332.71564L105.61384 329.8094Q105.12946 328.91876 104.11384 328.91876Q103.31696 328.91876 102.86384 329.52814Q102.42634 330.1375 102.42634 331.35626ZM112.52009 334.45Q112.42634 334.2625 112.36384 333.77814Q111.61384 334.575 110.56696 334.575Q109.62946 334.575 109.02009 334.04376Q108.42634 333.5125 108.42634 332.6844Q108.42634 331.7 109.17634 331.15314Q109.92634 330.60626 111.30134 330.60626L112.34821 330.60626L112.34821 330.10626Q112.34821 329.54376 112.00446 329.21564Q111.67634 328.8719 111.00446 328.8719Q110.42634 328.8719 110.03571 329.16876Q109.64509 329.45 109.64509 329.8719L108.55134 329.8719Q108.55134 329.3875 108.87946 328.95Q109.22321 328.5125 109.80134 328.2625Q110.37946 327.9969 111.06696 327.9969Q112.17634 327.9969 112.78571 328.54376Q113.41071 329.09064 113.44196 330.04376L113.44196 332.96564Q113.44196 333.84064 113.66071 334.35626L113.66071 334.45L112.52009 334.45ZM110.72321 333.6219Q111.23884 333.6219 111.69196 333.35626Q112.14509 333.09064 112.34821 332.66876L112.34821 331.3719L111.50446 331.3719Q109.50446 331.3719 109.50446 332.54376Q109.50446 333.04376 109.84821 333.34064Q110.19196 333.6219 110.72321 333.6219ZM117.67634 332.85626L119.16071 328.10626L120.31696 328.10626L117.77009 335.4344Q117.17634 337.0125 115.89509 337.0125L115.67634 336.9969L115.28571 336.91876L115.28571 336.04376L115.56696 336.0594Q116.12946 336.0594 116.42634 335.84064Q116.73884 335.6219 116.94196 335.02814L117.17634 334.3719L114.91071 328.10626L116.09821 328.10626L117.67634 332.85626Z" fill-rule="nonzero"/><path fill="#757575" d="M138.32068 334.45L132.72693 334.45L132.72693 333.66876L135.68005 330.3875Q136.3363 329.6375 136.5863 329.1844Q136.8363 328.71564 136.8363 328.21564Q136.8363 327.54376 136.43005 327.1219Q136.03943 326.6844 135.35193 326.6844Q134.55505 326.6844 134.10193 327.15314Q133.6488 327.60626 133.6488 328.4344L132.57068 328.4344Q132.57068 327.2469 133.32068 326.52814Q134.0863 325.79376 135.35193 325.79376Q136.55505 325.79376 137.24255 326.41876Q137.93005 327.04376 137.93005 328.09064Q137.93005 329.34064 136.32068 331.09064L134.03943 333.5594L138.32068 333.5594L138.32068 334.45ZM139.86755 333.8875Q139.86755 333.60626 140.0238 333.41876Q140.19568 333.23126 140.5238 333.23126Q140.86755 333.23126 141.03943 333.41876Q141.2113 333.60626 141.2113 333.8875Q141.2113 334.15314 141.03943 334.34064Q140.86755 334.5125 140.5238 334.5125Q140.19568 334.5125 140.0238 334.34064Q139.86755 334.15314 139.86755 333.8875ZM151.91443 326.84064L149.16443 326.84064L149.16443 334.45L148.05505 334.45L148.05505 326.84064L145.30505 326.84064L145.30505 325.91876L151.91443 325.91876L151.91443 326.84064ZM156.75818 333.825Q156.13318 334.575 154.8988 334.575Q153.88318 334.575 153.35193 333.98126Q152.82068 333.3875 152.82068 332.23126L152.82068 328.10626L153.8988 328.10626L153.8988 332.2Q153.8988 333.65314 155.07068 333.65314Q156.32068 333.65314 156.72693 332.71564L156.72693 328.10626L157.82068 328.10626L157.82068 334.45L156.78943 334.45L156.75818 333.825ZM162.47693 334.575Q161.18005 334.575 160.36755 333.73126Q159.57068 332.8719 159.57068 331.45L159.57068 331.2625Q159.57068 330.3094 159.93005 329.575Q160.28943 328.825 160.93005 328.41876Q161.5863 327.9969 162.3363 327.9969Q163.57068 327.9969 164.25818 328.8094Q164.94568 329.6219 164.94568 331.1375L164.94568 331.59064L160.6488 331.59064Q160.68005 332.52814 161.19568 333.10626Q161.72693 333.6844 162.53943 333.6844Q163.10193 333.6844 163.49255 333.45Q163.8988 333.21564 164.2113 332.825L164.86755 333.34064Q164.07068 334.575 162.47693 334.575ZM162.3363 328.8875Q161.68005 328.8875 161.22693 329.3719Q160.78943 329.84064 160.69568 330.7L163.86755 330.7L163.86755 330.6219Q163.82068 329.79376 163.41443 329.34064Q163.0238 328.8875 162.3363 328.8875ZM169.53943 332.7625Q169.53943 332.325 169.19568 332.09064Q168.86755 331.84064 168.03943 331.66876Q167.22693 331.4969 166.74255 331.2469Q166.25818 330.9969 166.0238 330.66876Q165.80505 330.325 165.80505 329.85626Q165.80505 329.075 166.4613 328.54376Q167.11755 327.9969 168.1488 327.9969Q169.22693 327.9969 169.88318 328.5594Q170.55505 329.10626 170.55505 329.96564L169.47693 329.96564Q169.47693 329.52814 169.0863 329.21564Q168.7113 328.8875 168.1488 328.8875Q167.55505 328.8875 167.2113 329.15314Q166.88318 329.40314 166.88318 329.8094Q166.88318 330.2 167.19568 330.40314Q167.50818 330.60626 168.32068 330.79376Q169.13318 330.96564 169.63318 331.21564Q170.13318 331.46564 170.36755 331.825Q170.61755 332.1844 170.61755 332.6844Q170.61755 333.54376 169.93005 334.0594Q169.25818 334.575 168.18005 334.575Q167.41443 334.575 166.82068 334.3094Q166.24255 334.02814 165.91443 333.54376Q165.5863 333.0594 165.5863 332.4969L166.66443 332.4969Q166.69568 333.04376 167.10193 333.3719Q167.50818 333.6844 168.18005 333.6844Q168.78943 333.6844 169.16443 333.4344Q169.53943 333.1844 169.53943 332.7625ZM171.5863 331.23126Q171.5863 329.7625 172.2738 328.8875Q172.9613 327.9969 174.0863 327.9969Q175.19568 327.9969 175.85193 328.7469L175.85193 325.45L176.93005 325.45L176.93005 334.45L175.93005 334.45L175.88318 333.7625Q175.22693 334.575 174.07068 334.575Q172.97693 334.575 172.2738 333.66876Q171.5863 332.7625 171.5863 331.3094L171.5863 331.23126ZM172.66443 331.35626Q172.66443 332.4344 173.10193 333.04376Q173.55505 333.65314 174.3363 333.65314Q175.36755 333.65314 175.85193 332.71564L175.85193 329.8094Q175.36755 328.91876 174.35193 328.91876Q173.55505 328.91876 173.10193 329.52814Q172.66443 330.1375 172.66443 331.35626ZM182.75818 334.45Q182.66443 334.2625 182.60193 333.77814Q181.85193 334.575 180.80505 334.575Q179.86755 334.575 179.25818 334.04376Q178.66443 333.5125 178.66443 332.6844Q178.66443 331.7 179.41443 331.15314Q180.16443 330.60626 181.53943 330.60626L182.5863 330.60626L182.5863 330.10626Q182.5863 329.54376 182.24255 329.21564Q181.91443 328.8719 181.24255 328.8719Q180.66443 328.8719 180.2738 329.16876Q179.88318 329.45 179.88318 329.8719L178.78943 329.8719Q178.78943 329.3875 179.11755 328.95Q179.4613 328.5125 180.03943 328.2625Q180.61755 327.9969 181.30505 327.9969Q182.41443 327.9969 183.0238 328.54376Q183.6488 329.09064 183.68005 330.04376L183.68005 332.96564Q183.68005 333.84064 183.8988 334.35626L183.8988 334.45L182.75818 334.45ZM180.9613 333.6219Q181.47693 333.6219 181.93005 333.35626Q182.38318 333.09064 182.5863 332.66876L182.5863 331.3719L181.74255 331.3719Q179.74255 331.3719 179.74255 332.54376Q179.74255 333.04376 180.0863 333.34064Q180.43005 333.6219 180.9613 333.6219ZM187.91443 332.85626L189.3988 328.10626L190.55505 328.10626L188.00818 335.4344Q187.41443 337.0125 186.13318 337.0125L185.91443 336.9969L185.5238 336.91876L185.5238 336.04376L185.80505 336.0594Q186.36755 336.0594 186.66443 335.84064Q186.97693 335.6219 187.18005 335.02814L187.41443 334.3719L185.1488 328.10626L186.3363 328.10626L187.91443 332.85626Z" fill-rule="nonzero"/><path fill="#757575" d="M228.04315 329.65314L228.85565 329.65314Q229.6369 329.6375 230.0744 329.2469Q230.5119 328.85626 230.5119 328.1844Q230.5119 326.6844 229.0119 326.6844Q228.30878 326.6844 227.8869 327.09064Q227.48065 327.4969 227.48065 328.15314L226.3869 328.15314Q226.3869 327.1375 227.12128 326.46564Q227.87128 325.79376 229.0119 325.79376Q230.21503 325.79376 230.90253 326.4344Q231.59003 327.075 231.59003 328.21564Q231.59003 328.77814 231.23065 329.29376Q230.87128 329.8094 230.24628 330.075Q230.9494 330.29376 231.3244 330.8094Q231.71503 331.325 231.71503 332.075Q231.71503 333.21564 230.96503 333.90314Q230.21503 334.575 229.0119 334.575Q227.8244 334.575 227.05878 333.91876Q226.30878 333.2625 226.30878 332.2L227.40253 332.2Q227.40253 332.8719 227.84003 333.27814Q228.27753 333.6844 229.02753 333.6844Q229.80878 333.6844 230.21503 333.27814Q230.6369 332.85626 230.6369 332.09064Q230.6369 331.35626 230.18378 330.96564Q229.73065 330.5594 228.85565 330.54376L228.04315 330.54376L228.04315 329.65314ZM233.60565 333.8875Q233.60565 333.60626 233.7619 333.41876Q233.93378 333.23126 234.2619 333.23126Q234.60565 333.23126 234.77753 333.41876Q234.9494 333.60626 234.9494 333.8875Q234.9494 334.15314 234.77753 334.34064Q234.60565 334.5125 234.2619 334.5125Q233.93378 334.5125 233.7619 334.34064Q233.60565 334.15314 233.60565 333.8875Z" fill-rule="nonzero"/><path fill="#757575" d="M202.09003 346.7625L202.2619 347.8875L202.49628 346.8719L204.18378 340.91876L205.1369 340.91876L206.77753 346.8719L207.0119 347.90314L207.1994 346.7469L208.52753 340.91876L209.65253 340.91876L207.59003 349.45L206.55878 349.45L204.79315 343.23126L204.66815 342.575L204.52753 343.23126L202.71503 349.45L201.68378 349.45L199.62128 340.91876L200.74628 340.91876L202.09003 346.7625ZM213.71503 349.575Q212.41815 349.575 211.60565 348.73126Q210.80878 347.8719 210.80878 346.45L210.80878 346.2625Q210.80878 345.3094 211.16815 344.575Q211.52753 343.825 212.16815 343.41876Q212.8244 342.9969 213.5744 342.9969Q214.80878 342.9969 215.49628 343.8094Q216.18378 344.6219 216.18378 346.1375L216.18378 346.59064L211.8869 346.59064Q211.91815 347.52814 212.43378 348.10626Q212.96503 348.6844 213.77753 348.6844Q214.34003 348.6844 214.73065 348.45Q215.1369 348.21564 215.4494 347.825L216.10565 348.34064Q215.30878 349.575 213.71503 349.575ZM213.5744 343.8875Q212.91815 343.8875 212.46503 344.3719Q212.02753 344.84064 211.93378 345.7L215.10565 345.7L215.10565 345.6219Q215.05878 344.79376 214.65253 344.34064Q214.2619 343.8875 213.5744 343.8875ZM216.8244 346.23126Q216.8244 344.7625 217.5119 343.8875Q218.1994 342.9969 219.3244 342.9969Q220.43378 342.9969 221.09003 343.7469L221.09003 340.45L222.16815 340.45L222.16815 349.45L221.16815 349.45L221.12128 348.7625Q220.46503 349.575 219.30878 349.575Q218.21503 349.575 217.5119 348.66876Q216.8244 347.7625 216.8244 346.3094L216.8244 346.23126ZM217.90253 346.35626Q217.90253 347.4344 218.34003 348.04376Q218.79315 348.65314 219.5744 348.65314Q220.60565 348.65314 221.09003 347.71564L221.09003 344.8094Q220.60565 343.91876 219.59003 343.91876Q218.79315 343.91876 218.34003 344.52814Q217.90253 345.1375 217.90253 346.35626ZM225.10565 343.10626L225.1369 343.90314Q225.87128 342.9969 227.04315 342.9969Q229.05878 342.9969 229.0744 345.2625L229.0744 349.45L227.98065 349.45L227.98065 345.2469Q227.98065 344.575 227.66815 344.2469Q227.37128 343.91876 226.71503 343.91876Q226.18378 343.91876 225.77753 344.2Q225.3869 344.48126 225.16815 344.9344L225.16815 349.45L224.09003 349.45L224.09003 343.10626L225.10565 343.10626ZM233.71503 349.575Q232.41815 349.575 231.60565 348.73126Q230.80878 347.8719 230.80878 346.45L230.80878 346.2625Q230.80878 345.3094 231.16815 344.575Q231.52753 343.825 232.16815 343.41876Q232.8244 342.9969 233.5744 342.9969Q234.80878 342.9969 235.49628 343.8094Q236.18378 344.6219 236.18378 346.1375L236.18378 346.59064L231.8869 346.59064Q231.91815 347.52814 232.43378 348.10626Q232.96503 348.6844 233.77753 348.6844Q234.34003 348.6844 234.73065 348.45Q235.1369 348.21564 235.4494 347.825L236.10565 348.34064Q235.30878 349.575 233.71503 349.575ZM233.5744 343.8875Q232.91815 343.8875 232.46503 344.3719Q232.02753 344.84064 231.93378 345.7L235.10565 345.7L235.10565 345.6219Q235.05878 344.79376 234.65253 344.34064Q234.2619 343.8875 233.5744 343.8875ZM240.77753 347.7625Q240.77753 347.325 240.43378 347.09064Q240.10565 346.84064 239.27753 346.66876Q238.46503 346.4969 237.98065 346.2469Q237.49628 345.9969 237.2619 345.66876Q237.04315 345.325 237.04315 344.85626Q237.04315 344.075 237.6994 343.54376Q238.35565 342.9969 239.3869 342.9969Q240.46503 342.9969 241.12128 343.5594Q241.79315 344.10626 241.79315 344.96564L240.71503 344.96564Q240.71503 344.52814 240.3244 344.21564Q239.9494 343.8875 239.3869 343.8875Q238.79315 343.8875 238.4494 344.15314Q238.12128 344.40314 238.12128 344.8094Q238.12128 345.2 238.43378 345.40314Q238.74628 345.60626 239.55878 345.79376Q240.37128 345.96564 240.87128 346.21564Q241.37128 346.46564 241.60565 346.825Q241.85565 347.1844 241.85565 347.6844Q241.85565 348.54376 241.16815 349.0594Q240.49628 349.575 239.41815 349.575Q238.65253 349.575 238.05878 349.3094Q237.48065 349.02814 237.15253 348.54376Q236.8244 348.0594 236.8244 347.4969L237.90253 347.4969Q237.93378 348.04376 238.34003 348.3719Q238.74628 348.6844 239.41815 348.6844Q240.02753 348.6844 240.40253 348.4344Q240.77753 348.1844 240.77753 347.7625ZM242.8244 346.23126Q242.8244 344.7625 243.5119 343.8875Q244.1994 342.9969 245.3244 342.9969Q246.43378 342.9969 247.09003 343.7469L247.09003 340.45L248.16815 340.45L248.16815 349.45L247.16815 349.45L247.12128 348.7625Q246.46503 349.575 245.30878 349.575Q244.21503 349.575 243.5119 348.66876Q242.8244 347.7625 242.8244 346.3094L242.8244 346.23126ZM243.90253 346.35626Q243.90253 347.4344 244.34003 348.04376Q244.79315 348.65314 245.5744 348.65314Q246.60565 348.65314 247.09003 347.71564L247.09003 344.8094Q246.60565 343.91876 245.59003 343.91876Q244.79315 343.91876 244.34003 344.52814Q243.90253 345.1375 243.90253 346.35626ZM253.99628 349.45Q253.90253 349.2625 253.84003 348.77814Q253.09003 349.575 252.04315 349.575Q251.10565 349.575 250.49628 349.04376Q249.90253 348.5125 249.90253 347.6844Q249.90253 346.7 250.65253 346.15314Q251.40253 345.60626 252.77753 345.60626L253.8244 345.60626L253.8244 345.10626Q253.8244 344.54376 253.48065 344.21564Q253.15253 343.8719 252.48065 343.8719Q251.90253 343.8719 251.5119 344.16876Q251.12128 344.45 251.12128 344.8719L250.02753 344.8719Q250.02753 344.3875 250.35565 343.95Q250.6994 343.5125 251.27753 343.2625Q251.85565 342.9969 252.54315 342.9969Q253.65253 342.9969 254.2619 343.54376Q254.8869 344.09064 254.91815 345.04376L254.91815 347.96564Q254.91815 348.84064 255.1369 349.35626L255.1369 349.45L253.99628 349.45ZM252.1994 348.6219Q252.71503 348.6219 253.16815 348.35626Q253.62128 348.09064 253.8244 347.66876L253.8244 346.3719L252.98065 346.3719Q250.98065 346.3719 250.98065 347.54376Q250.98065 348.04376 251.3244 348.34064Q251.66815 348.6219 252.1994 348.6219ZM259.15253 347.85626L260.6369 343.10626L261.79315 343.10626L259.24628 350.4344Q258.65253 352.0125 257.37128 352.0125L257.15253 351.9969L256.7619 351.91876L256.7619 351.04376L257.04315 351.0594Q257.60565 351.0594 257.90253 350.84064Q258.21503 350.6219 258.41815 350.02814L258.65253 349.3719L256.3869 343.10626L257.5744 343.10626L259.15253 347.85626Z" fill-rule="nonzero"/><path fill="#757575" d="M273.28125 331.59064L274.46875 331.59064L274.46875 332.46564L273.28125 332.46564L273.28125 334.45L272.20312 334.45L272.20312 332.46564L268.3125 332.46564L268.3125 331.825L272.125 325.91876L273.28125 325.91876L273.28125 331.59064ZM269.54688 331.59064L272.20312 331.59064L272.20312 327.40314L272.0625 327.6375L269.54688 331.59064ZM275.84375 333.8875Q275.84375 333.60626 276.0 333.41876Q276.17188 333.23126 276.5 333.23126Q276.84375 333.23126 277.01562 333.41876Q277.1875 333.60626 277.1875 333.8875Q277.1875 334.15314 277.01562 334.34064Q276.84375 334.5125 276.5 334.5125Q276.17188 334.5125 276.0 334.34064Q275.84375 334.15314 275.84375 333.8875ZM287.89062 326.84064L285.14062 326.84064L285.14062 334.45L284.03125 334.45L284.03125 326.84064L281.28125 326.84064L281.28125 325.91876L287.89062 325.91876L287.89062 326.84064ZM289.90625 328.8719Q290.625 327.9969 291.78125 327.9969Q293.79688 327.9969 293.8125 330.2625L293.8125 334.45L292.71875 334.45L292.71875 330.2469Q292.71875 329.575 292.40625 329.2469Q292.10938 328.91876 291.45312 328.91876Q290.92188 328.91876 290.51562 329.2Q290.125 329.48126 289.90625 329.9344L289.90625 334.45L288.82812 334.45L288.82812 325.45L289.90625 325.45L289.90625 328.8719ZM299.73438 333.825Q299.10938 334.575 297.875 334.575Q296.85938 334.575 296.32812 333.98126Q295.79688 333.3875 295.79688 332.23126L295.79688 328.10626L296.875 328.10626L296.875 332.2Q296.875 333.65314 298.04688 333.65314Q299.29688 333.65314 299.70312 332.71564L299.70312 328.10626L300.79688 328.10626L300.79688 334.45L299.76562 334.45L299.73438 333.825ZM305.89062 329.075Q305.64062 329.04376 305.35938 329.04376Q304.28125 329.04376 303.90625 329.95L303.90625 334.45L302.82812 334.45L302.82812 328.10626L303.875 328.10626L303.89062 328.84064Q304.42188 327.9969 305.40625 327.9969Q305.71875 327.9969 305.89062 328.075L305.89062 329.075ZM310.51562 332.7625Q310.51562 332.325 310.17188 332.09064Q309.84375 331.84064 309.01562 331.66876Q308.20312 331.4969 307.71875 331.2469Q307.23438 330.9969 307.0 330.66876Q306.78125 330.325 306.78125 329.85626Q306.78125 329.075 307.4375 328.54376Q308.09375 327.9969 309.125 327.9969Q310.20312 327.9969 310.85938 328.5594Q311.53125 329.10626 311.53125 329.96564L310.45312 329.96564Q310.45312 329.52814 310.0625 329.21564Q309.6875 328.8875 309.125 328.8875Q308.53125 328.8875 308.1875 329.15314Q307.85938 329.40314 307.85938 329.8094Q307.85938 330.2 308.17188 330.40314Q308.48438 330.60626 309.29688 330.79376Q310.10938 330.96564 310.60938 331.21564Q311.10938 331.46564 311.34375 331.825Q311.59375 332.1844 311.59375 332.6844Q311.59375 333.54376 310.90625 334.0594Q310.23438 334.575 309.15625 334.575Q308.39062 334.575 307.79688 334.3094Q307.21875 334.02814 306.89062 333.54376Q306.5625 333.0594 306.5625 332.4969L307.64062 332.4969Q307.67188 333.04376 308.07812 333.3719Q308.48438 333.6844 309.15625 333.6844Q309.76562 333.6844 310.14062 333.4344Q310.51562 333.1844 310.51562 332.7625ZM312.5625 331.23126Q312.5625 329.7625 313.25 328.8875Q313.9375 327.9969 315.0625 327.9969Q316.17188 327.9969 316.82812 328.7469L316.82812 325.45L317.90625 325.45L317.90625 334.45L316.90625 334.45L316.85938 333.7625Q316.20312 334.575 315.04688 334.575Q313.95312 334.575 313.25 333.66876Q312.5625 332.7625 312.5625 331.3094L312.5625 331.23126ZM313.64062 331.35626Q313.64062 332.4344 314.07812 333.04376Q314.53125 333.65314 315.3125 333.65314Q316.34375 333.65314 316.82812 332.71564L316.82812 329.8094Q316.34375 328.91876 315.32812 328.91876Q314.53125 328.91876 314.07812 329.52814Q313.64062 330.1375 313.64062 331.35626ZM323.73438 334.45Q323.64062 334.2625 323.57812 333.77814Q322.82812 334.575 321.78125 334.575Q320.84375 334.575 320.23438 334.04376Q319.64062 333.5125 319.64062 332.6844Q319.64062 331.7 320.39062 331.15314Q321.14062 330.60626 322.51562 330.60626L323.5625 330.60626L323.5625 330.10626Q323.5625 329.54376 323.21875 329.21564Q322.89062 328.8719 322.21875 328.8719Q321.64062 328.8719 321.25 329.16876Q320.85938 329.45 320.85938 329.8719L319.76562 329.8719Q319.76562 329.3875 320.09375 328.95Q320.4375 328.5125 321.01562 328.2625Q321.59375 327.9969 322.28125 327.9969Q323.39062 327.9969 324.0 328.54376Q324.625 329.09064 324.65625 330.04376L324.65625 332.96564Q324.65625 333.84064 324.875 334.35626L324.875 334.45L323.73438 334.45ZM321.9375 333.6219Q322.45312 333.6219 322.90625 333.35626Q323.35938 333.09064 323.5625 332.66876L323.5625 331.3719L322.71875 331.3719Q320.71875 331.3719 320.71875 332.54376Q320.71875 333.04376 321.0625 333.34064Q321.40625 333.6219 321.9375 333.6219ZM328.89062 332.85626L330.375 328.10626L331.53125 328.10626L328.98438 335.4344Q328.39062 337.0125 327.10938 337.0125L326.89062 336.9969L326.5 336.91876L326.5 336.04376L326.78125 336.0594Q327.34375 336.0594 327.64062 335.84064Q327.95312 335.6219 328.15625 335.02814L328.39062 334.3719L326.125 328.10626L327.3125 328.10626L328.89062 332.85626Z" fill-rule="nonzero"/><path fill="#757575" d="M346.94122 330.16876L347.37872 325.91876L351.75372 325.91876L351.75372 326.91876L348.3006 326.91876L348.03497 329.2469Q348.6756 328.8719 349.47247 328.8719Q350.62872 328.8719 351.31622 329.65314Q352.00372 330.41876 352.00372 331.73126Q352.00372 333.04376 351.28497 333.8094Q350.58185 334.575 349.3006 334.575Q348.1756 334.575 347.45685 333.95Q346.7381 333.3094 346.64435 332.2L347.65997 332.2Q347.76935 332.9344 348.19122 333.3094Q348.6131 333.6844 349.3006 333.6844Q350.0506 333.6844 350.4881 333.16876Q350.9256 332.65314 350.9256 331.7469Q350.9256 330.8875 350.45685 330.3719Q349.9881 329.85626 349.20685 329.85626Q348.50372 329.85626 348.09747 330.15314L347.81622 330.3875L346.94122 330.16876ZM353.58185 333.8875Q353.58185 333.60626 353.7381 333.41876Q353.90997 333.23126 354.2381 333.23126Q354.58185 333.23126 354.75372 333.41876Q354.9256 333.60626 354.9256 333.8875Q354.9256 334.15314 354.75372 334.34064Q354.58185 334.5125 354.2381 334.5125Q353.90997 334.5125 353.7381 334.34064Q353.58185 334.15314 353.58185 333.8875ZM364.44122 330.6844L360.84747 330.6844L360.84747 334.45L359.72247 334.45L359.72247 325.91876L365.01935 325.91876L365.01935 326.84064L360.84747 326.84064L360.84747 329.7625L364.44122 329.7625L364.44122 330.6844ZM369.62872 329.075Q369.37872 329.04376 369.09747 329.04376Q368.01935 329.04376 367.64435 329.95L367.64435 334.45L366.56622 334.45L366.56622 328.10626L367.6131 328.10626L367.62872 328.84064Q368.15997 327.9969 369.14435 327.9969Q369.45685 327.9969 369.62872 328.075L369.62872 329.075ZM371.7381 334.45L370.65997 334.45L370.65997 328.10626L371.7381 328.10626L371.7381 334.45ZM370.56622 326.4344Q370.56622 326.16876 370.72247 325.98126Q370.89435 325.79376 371.20685 325.79376Q371.51935 325.79376 371.6756 325.98126Q371.84747 326.16876 371.84747 326.4344Q371.84747 326.6844 371.6756 326.8719Q371.51935 327.04376 371.20685 327.04376Q370.89435 327.04376 370.72247 326.8719Q370.56622 326.6844 370.56622 326.4344ZM373.3006 331.23126Q373.3006 329.7625 373.9881 328.8875Q374.6756 327.9969 375.8006 327.9969Q376.90997 327.9969 377.56622 328.7469L377.56622 325.45L378.64435 325.45L378.64435 334.45L377.64435 334.45L377.59747 333.7625Q376.94122 334.575 375.78497 334.575Q374.69122 334.575 373.9881 333.66876Q373.3006 332.7625 373.3006 331.3094L373.3006 331.23126ZM374.37872 331.35626Q374.37872 332.4344 374.81622 333.04376Q375.26935 333.65314 376.0506 333.65314Q377.08185 333.65314 377.56622 332.71564L377.56622 329.8094Q377.08185 328.91876 376.06622 328.91876Q375.26935 328.91876 374.81622 329.52814Q374.37872 330.1375 374.37872 331.35626ZM384.47247 334.45Q384.37872 334.2625 384.31622 333.77814Q383.56622 334.575 382.51935 334.575Q381.58185 334.575 380.97247 334.04376Q380.37872 333.5125 380.37872 332.6844Q380.37872 331.7 381.12872 331.15314Q381.87872 330.60626 383.25372 330.60626L384.3006 330.60626L384.3006 330.10626Q384.3006 329.54376 383.95685 329.21564Q383.62872 328.8719 382.95685 328.8719Q382.37872 328.8719 381.9881 329.16876Q381.59747 329.45 381.59747 329.8719L380.50372 329.8719Q380.50372 329.3875 380.83185 328.95Q381.1756 328.5125 381.75372 328.2625Q382.33185 327.9969 383.01935 327.9969Q384.12872 327.9969 384.7381 328.54376Q385.3631 329.09064 385.39435 330.04376L385.39435 332.96564Q385.39435 333.84064 385.6131 334.35626L385.6131 334.45L384.47247 334.45ZM382.6756 333.6219Q383.19122 333.6219 383.64435 333.35626Q384.09747 333.09064 384.3006 332.66876L384.3006 331.3719L383.45685 331.3719Q381.45685 331.3719 381.45685 332.54376Q381.45685 333.04376 381.8006 333.34064Q382.14435 333.6219 382.6756 333.6219ZM389.62872 332.85626L391.1131 328.10626L392.26935 328.10626L389.72247 335.4344Q389.12872 337.0125 387.84747 337.0125L387.62872 336.9969L387.2381 336.91876L387.2381 336.04376L387.51935 336.0594Q388.08185 336.0594 388.37872 335.84064Q388.69122 335.6219 388.89435 335.02814L389.12872 334.3719L386.8631 328.10626L388.0506 328.10626L389.62872 332.85626Z" fill-rule="nonzero"/><path fill="#757575" d="M412.44495 325.91876L412.44495 326.825L412.24182 326.825Q410.9762 326.85626 410.2262 327.59064Q409.4762 328.3094 409.3512 329.6219Q410.0387 328.85626 411.19495 328.85626Q412.30432 328.85626 412.9762 329.6375Q413.64807 330.41876 413.64807 331.66876Q413.64807 332.98126 412.92932 333.77814Q412.21057 334.575 410.99182 334.575Q409.77307 334.575 409.00745 333.6375Q408.25745 332.6844 408.25745 331.2L408.25745 330.79376Q408.25745 328.4344 409.25745 327.1844Q410.25745 325.9344 412.24182 325.91876L412.44495 325.91876ZM411.02307 329.7625Q410.46057 329.7625 409.99182 330.09064Q409.52307 330.41876 409.33557 330.9344L409.33557 331.325Q409.33557 332.3875 409.80432 333.02814Q410.2887 333.66876 410.99182 333.66876Q411.7262 333.66876 412.14807 333.1375Q412.56995 332.59064 412.56995 331.71564Q412.56995 330.84064 412.14807 330.3094Q411.7262 329.7625 411.02307 329.7625ZM415.31995 333.8875Q415.31995 333.60626 415.4762 333.41876Q415.64807 333.23126 415.9762 333.23126Q416.31995 333.23126 416.49182 333.41876Q416.6637 333.60626 416.6637 333.8875Q416.6637 334.15314 416.49182 334.34064Q416.31995 334.5125 415.9762 334.5125Q415.64807 334.5125 415.4762 334.34064Q415.31995 334.15314 415.31995 333.8875ZM423.9762 330.65314Q422.5387 330.23126 421.86682 329.6219Q421.21057 329.0125 421.21057 328.1219Q421.21057 327.1219 422.00745 326.46564Q422.81995 325.79376 424.11682 325.79376Q424.99182 325.79376 425.67932 326.1375Q426.36682 326.48126 426.74182 327.075Q427.13245 327.66876 427.13245 328.3875L425.99182 328.3875Q425.99182 327.60626 425.49182 327.16876Q425.00745 326.73126 424.11682 326.73126Q423.2887 326.73126 422.81995 327.10626Q422.3512 327.46564 422.3512 328.10626Q422.3512 328.6375 422.7887 328.9969Q423.24182 329.35626 424.30432 329.65314Q425.36682 329.95 425.96057 330.3094Q426.56995 330.66876 426.8512 331.15314Q427.14807 331.6375 427.14807 332.27814Q427.14807 333.325 426.33557 333.95Q425.52307 334.575 424.17932 334.575Q423.2887 334.575 422.52307 334.23126Q421.77307 333.8875 421.3512 333.3094Q420.94495 332.71564 420.94495 331.98126L422.06995 331.98126Q422.06995 332.7469 422.64807 333.2Q423.2262 333.65314 424.17932 333.65314Q425.06995 333.65314 425.5387 333.29376Q426.00745 332.91876 426.00745 332.29376Q426.00745 331.66876 425.56995 331.325Q425.13245 330.98126 423.9762 330.65314ZM432.21057 334.45Q432.11682 334.2625 432.05432 333.77814Q431.30432 334.575 430.25745 334.575Q429.31995 334.575 428.71057 334.04376Q428.11682 333.5125 428.11682 332.6844Q428.11682 331.7 428.86682 331.15314Q429.61682 330.60626 430.99182 330.60626L432.0387 330.60626L432.0387 330.10626Q432.0387 329.54376 431.69495 329.21564Q431.36682 328.8719 430.69495 328.8719Q430.11682 328.8719 429.7262 329.16876Q429.33557 329.45 429.33557 329.8719L428.24182 329.8719Q428.24182 329.3875 428.56995 328.95Q428.9137 328.5125 429.49182 328.2625Q430.06995 327.9969 430.75745 327.9969Q431.86682 327.9969 432.4762 328.54376Q433.1012 329.09064 433.13245 330.04376L433.13245 332.96564Q433.13245 333.84064 433.3512 334.35626L433.3512 334.45L432.21057 334.45ZM430.4137 333.6219Q430.92932 333.6219 431.38245 333.35626Q431.83557 333.09064 432.0387 332.66876L432.0387 331.3719L431.19495 331.3719Q429.19495 331.3719 429.19495 332.54376Q429.19495 333.04376 429.5387 333.34064Q429.88245 333.6219 430.4137 333.6219ZM436.77307 326.575L436.77307 328.10626L437.94495 328.10626L437.94495 328.95L436.77307 328.95L436.77307 332.8719Q436.77307 333.2625 436.92932 333.45Q437.08557 333.6375 437.46057 333.6375Q437.64807 333.6375 437.9762 333.575L437.9762 334.45Q437.55432 334.575 437.14807 334.575Q436.42932 334.575 436.05432 334.1375Q435.67932 333.6844 435.67932 332.8719L435.67932 328.95L434.52307 328.95L434.52307 328.10626L435.67932 328.10626L435.67932 326.575L436.77307 326.575ZM443.21057 333.825Q442.58557 334.575 441.3512 334.575Q440.33557 334.575 439.80432 333.98126Q439.27307 333.3875 439.27307 332.23126L439.27307 328.10626L440.3512 328.10626L440.3512 332.2Q440.3512 333.65314 441.52307 333.65314Q442.77307 333.65314 443.17932 332.71564L443.17932 328.10626L444.27307 328.10626L444.27307 334.45L443.24182 334.45L443.21057 333.825ZM449.36682 329.075Q449.11682 329.04376 448.83557 329.04376Q447.75745 329.04376 447.38245 329.95L447.38245 334.45L446.30432 334.45L446.30432 328.10626L447.3512 328.10626L447.36682 328.84064Q447.89807 327.9969 448.88245 327.9969Q449.19495 327.9969 449.36682 328.075L449.36682 329.075ZM450.0387 331.23126Q450.0387 329.7625 450.7262 328.8875Q451.4137 327.9969 452.5387 327.9969Q453.64807 327.9969 454.30432 328.7469L454.30432 325.45L455.38245 325.45L455.38245 334.45L454.38245 334.45L454.33557 333.7625Q453.67932 334.575 452.52307 334.575Q451.42932 334.575 450.7262 333.66876Q450.0387 332.7625 450.0387 331.3094L450.0387 331.23126ZM451.11682 331.35626Q451.11682 332.4344 451.55432 333.04376Q452.00745 333.65314 452.7887 333.65314Q453.81995 333.65314 454.30432 332.71564L454.30432 329.8094Q453.81995 328.91876 452.80432 328.91876Q452.00745 328.91876 451.55432 329.52814Q451.11682 330.1375 451.11682 331.35626ZM461.21057 334.45Q461.11682 334.2625 461.05432 333.77814Q460.30432 334.575 459.25745 334.575Q458.31995 334.575 457.71057 334.04376Q457.11682 333.5125 457.11682 332.6844Q457.11682 331.7 457.86682 331.15314Q458.61682 330.60626 459.99182 330.60626L461.0387 330.60626L461.0387 330.10626Q461.0387 329.54376 460.69495 329.21564Q460.36682 328.8719 459.69495 328.8719Q459.11682 328.8719 458.7262 329.16876Q458.33557 329.45 458.33557 329.8719L457.24182 329.8719Q457.24182 329.3875 457.56995 328.95Q457.9137 328.5125 458.49182 328.2625Q459.06995 327.9969 459.75745 327.9969Q460.86682 327.9969 461.4762 328.54376Q462.1012 329.09064 462.13245 330.04376L462.13245 332.96564Q462.13245 333.84064 462.3512 334.35626L462.3512 334.45L461.21057 334.45ZM459.4137 333.6219Q459.92932 333.6219 460.38245 333.35626Q460.83557 333.09064 461.0387 332.66876L461.0387 331.3719L460.19495 331.3719Q458.19495 331.3719 458.19495 332.54376Q458.19495 333.04376 458.5387 333.34064Q458.88245 333.6219 459.4137 333.6219ZM466.36682 332.85626L467.8512 328.10626L469.00745 328.10626L466.46057 335.4344Q465.86682 337.0125 464.58557 337.0125L464.36682 336.9969L463.9762 336.91876L463.9762 336.04376L464.25745 336.0594Q464.81995 336.0594 465.11682 335.84064Q465.42932 335.6219 465.63245 335.02814L465.86682 334.3719L463.6012 328.10626L464.7887 328.10626L466.36682 332.85626Z" fill-rule="nonzero"/><path fill="#757575" d="M486.93304 326.52814L483.4018 334.45L482.26117 334.45L485.7768 326.8094L481.16742 326.8094L481.16742 325.91876L486.93304 325.91876L486.93304 326.52814ZM488.55804 333.8875Q488.55804 333.60626 488.7143 333.41876Q488.88617 333.23126 489.2143 333.23126Q489.55804 333.23126 489.72992 333.41876Q489.9018 333.60626 489.9018 333.8875Q489.9018 334.15314 489.72992 334.34064Q489.55804 334.5125 489.2143 334.5125Q488.88617 334.5125 488.7143 334.34064Q488.55804 334.15314 488.55804 333.8875ZM497.2143 330.65314Q495.7768 330.23126 495.10492 329.6219Q494.44867 329.0125 494.44867 328.1219Q494.44867 327.1219 495.24554 326.46564Q496.05804 325.79376 497.35492 325.79376Q498.22992 325.79376 498.91742 326.1375Q499.60492 326.48126 499.97992 327.075Q500.37054 327.66876 500.37054 328.3875L499.22992 328.3875Q499.22992 327.60626 498.72992 327.16876Q498.24554 326.73126 497.35492 326.73126Q496.5268 326.73126 496.05804 327.10626Q495.5893 327.46564 495.5893 328.10626Q495.5893 328.6375 496.0268 328.9969Q496.47992 329.35626 497.54242 329.65314Q498.60492 329.95 499.19867 330.3094Q499.80804 330.66876 500.0893 331.15314Q500.38617 331.6375 500.38617 332.27814Q500.38617 333.325 499.57367 333.95Q498.76117 334.575 497.41742 334.575Q496.5268 334.575 495.76117 334.23126Q495.01117 333.8875 494.5893 333.3094Q494.18304 332.71564 494.18304 331.98126L495.30804 331.98126Q495.30804 332.7469 495.88617 333.2Q496.4643 333.65314 497.41742 333.65314Q498.30804 333.65314 498.7768 333.29376Q499.24554 332.91876 499.24554 332.29376Q499.24554 331.66876 498.80804 331.325Q498.37054 330.98126 497.2143 330.65314ZM505.44867 333.825Q504.82367 334.575 503.5893 334.575Q502.57367 334.575 502.04242 333.98126Q501.51117 333.3875 501.51117 332.23126L501.51117 328.10626L502.5893 328.10626L502.5893 332.2Q502.5893 333.65314 503.76117 333.65314Q505.01117 333.65314 505.41742 332.71564L505.41742 328.10626L506.51117 328.10626L506.51117 334.45L505.47992 334.45L505.44867 333.825ZM509.55804 328.10626L509.5893 328.90314Q510.32367 327.9969 511.49554 327.9969Q513.51117 327.9969 513.5268 330.2625L513.5268 334.45L512.43304 334.45L512.43304 330.2469Q512.43304 329.575 512.12054 329.2469Q511.82367 328.91876 511.16742 328.91876Q510.63617 328.91876 510.22992 329.2Q509.8393 329.48126 509.62054 329.9344L509.62054 334.45L508.54242 334.45L508.54242 328.10626L509.55804 328.10626ZM515.2768 331.23126Q515.2768 329.7625 515.9643 328.8875Q516.6518 327.9969 517.7768 327.9969Q518.88617 327.9969 519.5424 328.7469L519.5424 325.45L520.62054 325.45L520.62054 334.45L519.62054 334.45L519.57367 333.7625Q518.9174 334.575 517.76117 334.575Q516.6674 334.575 515.9643 333.66876Q515.2768 332.7625 515.2768 331.3094L515.2768 331.23126ZM516.3549 331.35626Q516.3549 332.4344 516.7924 333.04376Q517.24554 333.65314 518.0268 333.65314Q519.05804 333.65314 519.5424 332.71564L519.5424 329.8094Q519.05804 328.91876 518.0424 328.91876Q517.24554 328.91876 516.7924 329.52814Q516.3549 330.1375 516.3549 331.35626ZM526.44867 334.45Q526.3549 334.2625 526.2924 333.77814Q525.5424 334.575 524.49554 334.575Q523.55804 334.575 522.94867 334.04376Q522.3549 333.5125 522.3549 332.6844Q522.3549 331.7 523.1049 331.15314Q523.8549 330.60626 525.2299 330.60626L526.2768 330.60626L526.2768 330.10626Q526.2768 329.54376 525.93304 329.21564Q525.6049 328.8719 524.93304 328.8719Q524.3549 328.8719 523.9643 329.16876Q523.57367 329.45 523.57367 329.8719L522.4799 329.8719Q522.4799 329.3875 522.80804 328.95Q523.1518 328.5125 523.7299 328.2625Q524.30804 327.9969 524.99554 327.9969Q526.1049 327.9969 526.7143 328.54376Q527.3393 329.09064 527.37054 330.04376L527.37054 332.96564Q527.37054 333.84064 527.5893 334.35626L527.5893 334.45L526.44867 334.45ZM524.6518 333.6219Q525.1674 333.6219 525.62054 333.35626Q526.07367 333.09064 526.2768 332.66876L526.2768 331.3719L525.43304 331.3719Q523.43304 331.3719 523.43304 332.54376Q523.43304 333.04376 523.7768 333.34064Q524.12054 333.6219 524.6518 333.6219ZM531.6049 332.85626L533.0893 328.10626L534.24554 328.10626L531.69867 335.4344Q531.1049 337.0125 529.82367 337.0125L529.6049 336.9969L529.2143 336.91876L529.2143 336.04376L529.49554 336.0594Q530.05804 336.0594 530.3549 335.84064Q530.6674 335.6219 530.87054 335.02814L531.1049 334.3719L528.8393 328.10626L530.0268 328.10626L531.6049 332.85626Z" fill-rule="nonzero"/><path fill="#4285f4" d="M233.0 21.05C233.0 20.497715 233.44771 20.05 234.0 20.05L244.0 20.05C244.55229 20.05 245.0 20.497715 245.0 21.05L245.0 31.05C245.0 31.602285 244.55229 32.05 244.0 32.05L234.0 32.05C233.44771 32.05 233.0 31.602285 233.0 31.05Z" fill-rule="nonzero"/><path fill="#757575" d="M258.8125 26.6125L255.10938 26.6125L255.10938 29.628124L259.40625 29.628124L259.40625 30.55L253.98438 30.55L253.98438 22.01875L259.35938 22.01875L259.35938 22.940624L255.10938 22.940624L255.10938 25.690624L258.8125 25.690624L258.8125 26.6125ZM266.17188 27.45625Q266.17188 28.89375 265.51562 29.784374Q264.85938 30.675 263.71875 30.675Q262.5625 30.675 261.90625 29.940624L261.90625 32.9875L260.82812 32.9875L260.82812 24.20625L261.8125 24.20625L261.85938 24.909374Q262.53125 24.096874 263.70312 24.096874Q264.84375 24.096874 265.5 24.95625Q266.17188 25.815624 266.17188 27.346874L266.17188 27.45625ZM265.09375 27.33125Q265.09375 26.253124 264.625 25.64375Q264.17188 25.01875 263.375 25.01875Q262.39062 25.01875 261.90625 25.878124L261.90625 28.909374Q262.39062 29.784374 263.39062 29.784374Q264.17188 29.784374 264.625 29.175Q265.09375 28.55 265.09375 27.33125ZM269.0 30.55L267.92188 30.55L267.92188 24.20625L269.0 24.20625L269.0 30.55ZM267.82812 22.534374Q267.82812 22.26875 267.98438 22.08125Q268.15625 21.89375 268.46875 21.89375Q268.78125 21.89375 268.9375 22.08125Q269.10938 22.26875 269.10938 22.534374Q269.10938 22.784374 268.9375 22.971874Q268.78125 23.14375 268.46875 23.14375Q268.15625 23.14375 267.98438 22.971874Q267.82812 22.784374 267.82812 22.534374ZM274.51562 28.8625Q274.51562 28.425 274.17188 28.190624Q273.84375 27.940624 273.01562 27.76875Q272.20312 27.596874 271.71875 27.346874Q271.23438 27.096874 271.0 26.76875Q270.78125 26.425 270.78125 25.95625Q270.78125 25.175 271.4375 24.64375Q272.09375 24.096874 273.125 24.096874Q274.20312 24.096874 274.85938 24.659374Q275.53125 25.20625 275.53125 26.065624L274.45312 26.065624Q274.45312 25.628124 274.0625 25.315624Q273.6875 24.9875 273.125 24.9875Q272.53125 24.9875 272.1875 25.253124Q271.85938 25.503124 271.85938 25.909374Q271.85938 26.3 272.17188 26.503124Q272.48438 26.70625 273.29688 26.89375Q274.10938 27.065624 274.60938 27.315624Q275.10938 27.565624 275.34375 27.925Q275.59375 28.284374 275.59375 28.784374Q275.59375 29.64375 274.90625 30.159374Q274.23438 30.675 273.15625 30.675Q272.39062 30.675 271.79688 30.409374Q271.21875 30.128124 270.89062 29.64375Q270.5625 29.159374 270.5625 28.596874L271.64062 28.596874Q271.67188 29.14375 272.07812 29.471874Q272.48438 29.784374 273.15625 29.784374Q273.76562 29.784374 274.14062 29.534374Q274.51562 29.284374 274.51562 28.8625ZM276.53125 27.315624Q276.53125 26.39375 276.89062 25.64375Q277.26562 24.89375 277.92188 24.503124Q278.57812 24.096874 279.40625 24.096874Q280.70312 24.096874 281.5 24.9875Q282.3125 25.878124 282.3125 27.378124L282.3125 27.45625Q282.3125 28.378124 281.95312 29.1125Q281.59375 29.846874 280.9375 30.26875Q280.28125 30.675 279.42188 30.675Q278.14062 30.675 277.32812 29.784374Q276.53125 28.878124 276.53125 27.39375L276.53125 27.315624ZM277.625 27.45625Q277.625 28.503124 278.10938 29.14375Q278.60938 29.784374 279.42188 29.784374Q280.25 29.784374 280.73438 29.14375Q281.21875 28.4875 281.21875 27.315624Q281.21875 26.284374 280.71875 25.64375Q280.23438 24.9875 279.40625 24.9875Q278.60938 24.9875 278.10938 25.628124Q277.625 26.253124 277.625 27.45625ZM283.5625 27.33125Q283.5625 25.8625 284.25 24.9875Q284.9375 24.096874 286.0625 24.096874Q287.17188 24.096874 287.82812 24.846874L287.82812 21.55L288.90625 21.55L288.90625 30.55L287.90625 30.55L287.85938 29.8625Q287.20312 30.675 286.04688 30.675Q284.95312 30.675 284.25 29.76875Q283.5625 28.8625 283.5625 27.409374L283.5625 27.33125ZM284.64062 27.45625Q284.64062 28.534374 285.07812 29.14375Q285.53125 29.753124 286.3125 29.753124Q287.34375 29.753124 287.82812 28.815624L287.82812 25.909374Q287.34375 25.01875 286.32812 25.01875Q285.53125 25.01875 285.07812 25.628124Q284.64062 26.2375 284.64062 27.45625ZM293.45312 30.675Q292.15625 30.675 291.34375 29.83125Q290.54688 28.971874 290.54688 27.55L290.54688 27.3625Q290.54688 26.409374 290.90625 25.675Q291.26562 24.925 291.90625 24.51875Q292.5625 24.096874 293.3125 24.096874Q294.54688 24.096874 295.23438 24.909374Q295.92188 25.721874 295.92188 27.2375L295.92188 27.690624L291.625 27.690624Q291.65625 28.628124 292.17188 29.20625Q292.70312 29.784374 293.51562 29.784374Q294.07812 29.784374 294.46875 29.55Q294.875 29.315624 295.1875 28.925L295.84375 29.440624Q295.04688 30.675 293.45312 30.675ZM293.3125 24.9875Q292.65625 24.9875 292.20312 25.471874Q291.76562 25.940624 291.67188 26.8L294.84375 26.8L294.84375 26.721874Q294.79688 25.89375 294.39062 25.440624Q294.0 24.9875 293.3125 24.9875Z" fill-rule="nonzero"/><path stroke="#db4437" stroke-width="4.0" stroke-linecap="butt" d="M312.0 26.05L324.0 26.05" fill-rule="nonzero"/><path fill="#757575" d="M336.125 27.096874L334.10938 27.096874L334.10938 30.55L332.98438 30.55L332.98438 22.01875L335.8125 22.01875Q337.25 22.01875 338.01562 22.675Q338.79688 23.33125 338.79688 24.58125Q338.79688 25.378124 338.35938 25.971874Q337.9375 26.565624 337.17188 26.8625L339.17188 30.471874L339.17188 30.55L337.96875 30.55L336.125 27.096874ZM334.10938 26.175L335.84375 26.175Q336.6875 26.175 337.17188 25.753124Q337.67188 25.315624 337.67188 24.58125Q337.67188 23.8 337.20312 23.378124Q336.73438 22.95625 335.84375 22.940624L334.10938 22.940624L334.10938 26.175ZM343.73438 30.55Q343.64062 30.3625 343.57812 29.878124Q342.82812 30.675 341.78125 30.675Q340.84375 30.675 340.23438 30.14375Q339.64062 29.6125 339.64062 28.784374Q339.64062 27.8 340.39062 27.253124Q341.14062 26.70625 342.51562 26.70625L343.5625 26.70625L343.5625 26.20625Q343.5625 25.64375 343.21875 25.315624Q342.89062 24.971874 342.21875 24.971874Q341.64062 24.971874 341.25 25.26875Q340.85938 25.55 340.85938 25.971874L339.76562 25.971874Q339.76562 25.4875 340.09375 25.05Q340.4375 24.6125 341.01562 24.3625Q341.59375 24.096874 342.28125 24.096874Q343.39062 24.096874 344.0 24.64375Q344.625 25.190624 344.65625 26.14375L344.65625 29.065624Q344.65625 29.940624 344.875 30.45625L344.875 30.55L343.73438 30.55ZM341.9375 29.721874Q342.45312 29.721874 342.90625 29.45625Q343.35938 29.190624 343.5625 28.76875L343.5625 27.471874L342.71875 27.471874Q340.71875 27.471874 340.71875 28.64375Q340.71875 29.14375 341.0625 29.440624Q341.40625 29.721874 341.9375 29.721874ZM348.29688 22.675L348.29688 24.20625L349.46875 24.20625L349.46875 25.05L348.29688 25.05L348.29688 28.971874Q348.29688 29.3625 348.45312 29.55Q348.60938 29.7375 348.98438 29.7375Q349.17188 29.7375 349.5 29.675L349.5 30.55Q349.07812 30.675 348.67188 30.675Q347.95312 30.675 347.57812 30.2375Q347.20312 29.784374 347.20312 28.971874L347.20312 25.05L346.04688 25.05L346.04688 24.20625L347.20312 24.20625L347.20312 22.675L348.29688 22.675ZM352.0 30.55L350.92188 30.55L350.92188 24.20625L352.0 24.20625L352.0 30.55ZM350.82812 22.534374Q350.82812 22.26875 350.98438 22.08125Q351.15625 21.89375 351.46875 21.89375Q351.78125 21.89375 351.9375 22.08125Q352.10938 22.26875 352.10938 22.534374Q352.10938 22.784374 351.9375 22.971874Q351.78125 23.14375 351.46875 23.14375Q351.15625 23.14375 350.98438 22.971874Q350.82812 22.784374 350.82812 22.534374ZM354.84375 24.20625L354.875 25.003124Q355.60938 24.096874 356.78125 24.096874Q358.79688 24.096874 358.8125 26.3625L358.8125 30.55L357.71875 30.55L357.71875 26.346874Q357.71875 25.675 357.40625 25.346874Q357.10938 25.01875 356.45312 25.01875Q355.92188 25.01875 355.51562 25.3Q355.125 25.58125 354.90625 26.034374L354.90625 30.55L353.82812 30.55L353.82812 24.20625L354.84375 24.20625ZM360.5625 27.33125Q360.5625 25.846874 361.25 24.971874Q361.9375 24.096874 363.0625 24.096874Q364.21875 24.096874 364.875 24.909374L364.92188 24.20625L365.92188 24.20625L365.92188 30.39375Q365.92188 31.628124 365.1875 32.33125Q364.45312 33.05 363.23438 33.05Q362.54688 33.05 361.89062 32.753124Q361.23438 32.45625 360.89062 31.95625L361.45312 31.3Q362.14062 32.159374 363.15625 32.159374Q363.9375 32.159374 364.375 31.70625Q364.82812 31.26875 364.82812 30.45625L364.82812 29.909374Q364.17188 30.675 363.04688 30.675Q361.9375 30.675 361.25 29.784374Q360.5625 28.878124 360.5625 27.33125ZM361.65625 27.45625Q361.65625 28.51875 362.09375 29.14375Q362.53125 29.753124 363.32812 29.753124Q364.34375 29.753124 364.82812 28.815624L364.82812 25.925Q364.32812 25.01875 363.32812 25.01875Q362.54688 25.01875 362.09375 25.628124Q361.65625 26.2375 361.65625 27.45625Z" fill-rule="nonzero"/></svg>